<?xml version="1.0" encoding="UTF-8" standalone="no"?>
<svg xmlns:rdf="http://www.w3.org/1999/02/22-rdf-syntax-ns#" xmlns="http://www.w3.org/2000/svg" xml:space="preserve" height="174" width="174" version="1.1" xmlns:cc="http://creativecommons.org/ns#" viewBox="0 0 173.85333 173.85333" xmlns:dc="http://purl.org/dc/elements/1.1/"><g transform="matrix(1.33 0 0 -1.33 0 174)"><g transform="scale(.1)"><path d="m0 652c0 360 292 652 652 652s652-292 652-652-290-652-648-652c-360 0-652 292-652 652" fill="#fff"/><path d="m559 807-1.05-1.04 1.89-0.625 10-2.54 10.2-7.45 5.25-6.3 5.27-3.61s3.29 2.39 0.75 5.24l-3.15 3.74-6.13 7.35-3.9 2.24-4.79 1.8-5.4 1.05-5.39 0.453-3.59-0.304zm4.69-40.7s-0.586-0.313-1.21-0.196c0 0-0.938 0.43-0.625 1.09l0.781 1.41 1.72 1.09 1.88 0.938 2.03 0.625 1.88 0.937 3.59 1.41 3.12 1.09 2.03 0.938 2.34 0.625 2.5 0.625 0.781 0.781 0.156 1.25-0.156 0.781-0.937 0.781-1.25 0.313s-1.25 0.156-2.03 0c-0.781-0.156-1.72-0.781-2.19-0.781-0.469 0-2.97-1.56-2.97-1.56l-3.44-1.72-2.66-1.09-2.5-0.938-2.97-0.469s-2.03 0-2.5-0.156c-0.469-0.156-3.09 0.313-2.97 0.313 0 0-1.64-0.04-2.5 0.625-0.274 0.207 0.285 1.68 0.246 1.41 0 0 1.17 0.547 1.72 0.469 0 0 1.29 0.117 1.56 0l1.25 0.156h4.53l2.81 0.625s0.613 0.429 0.887 1.44l0.429 2.15-0.468 2.66-0.938 1.25-1.56 1.09-2.5 1.56s-1.41 0.781-1.72 0.781c-0.313 0-2.34 0.782-2.34 0.782l-2.03-0.157s-5.49-0.183-6.69-2.08l-1.34-0.242 0.437 4.87 1.04 3.42 2.89 0.207 4.3-0.859 2.19-0.781 2.03-1.09 2.97-1.09 2.03-1.09 2.03-0.781 3.12 0.156 1.41 0.469 0.313 1.25-0.625 1.72-1.56 1.88-3.12 2.34-3.28 1.88-1.41 1.09-1.56 0.938-1.88 0.469-2.5 0.468h-2.81s-2.58-0.156-2.74 0c0 0-1.29 0.821-1.17 1.25l-0.312 2.5-0.078 1.63 1.88 1.41 2.03 0.942 3.75 0.469h10.2l2.66-0.161 3.75-0.625 2.66-1.09 4.38-2.04 2.19-1.71 4.06-4.69 3.44-3.9 3.12-4.38 3.91-4.53 3.75-5s0.938-0.981 1.56-1.88c0.273-0.391 0.586-2.11 0.469-2.5l-0.313-2.66s-1.09-1.47-3.05-1.75l-3.44-0.039h-9.84c-0.469 0-3.44-0.312-4.22-0.468l-2.81-0.625-2.81-1.25-2.34-0.938-3.91-1.41-4.22-1.41-4.26-1.21" fill-rule="evenodd" fill="#165096"/><path d="m872 403c2.25 2.9 2.64 10.8 29.7 12.8 6.17 0 9.25-7.94 4.78-8.06-1.97-0.059-3.72 0.156-3.72 0.156-5.73-0.156-4.32-3.37-4.32-3.37s1.99-4.92 10.8-4.25c0.774 0.066 4.18 0.168 5.02 0.391 12.4 3.27 3.06 12.3 3.06 12.3-2.72 3.09-10 5.02-10 5.02l-3.05 0.676-5.06 0.488-9.26-1.16c-14.8-3.09-20.7-2-20.7-2l2.78-13" fill="#165096"/><path d="m854 443 6.48-2.98s12.9-9.69 27.5-7.38c0.762 0.128 26.7 2.5 37.3-8.91 0 2.42 0.214 7.09-0.286 8.13-3.76 7.92-20.9 7.84-20.9 7.84-19.1-4.73-32.9 1.81-32.9 1.81s-10.8 8.09-11.6 8.48c-0.77 0.383-8.35 2.84-8.35 2.84l2.72-9.84" fill="#165096"/><path d="m936 430-9.34 14.8c-4.71 5.4-17.4 5.78-17.4 5.78l-7.72 0.39s-12-1.07-13.1-1.15c-12.6-0.891-26.8 4.62-26.8 4.62l-4.63 1.54s-1.54 5.95-1.54 6.73c0 0.761 0.383 6.16 0.383 6.16 2.41-8.56 10.8-8.1 10.8-8.1 2.66-0.73 3.86 0.383 3.86 0.383l13.7-0.774 19.7 0.774s8.21-0.742 8.98-0.774c15.5-0.625 20.3-17.1 20.3-17.1l2.77-13.2" fill-rule="evenodd" fill="#165096"/><path d="m936 479-5.79 7.7-5.01 4.25-5.4 3.86-5.4 3.09-5.01 3.09-6.56 3.46-9.26 5.02-8.09 4.63-6.94 5.4-5.57 3.47-3.08 3.47-0.39 6.94 0.769 8.65 2.32 6.55 1.54 5.79 1.16 6.17 0.93 5.78-0.383 4.25-0.547 5.39-1.16 5.79 4.49 3.12 3-5.06 1.16-4.24 0.379-5.01-0.379-5.02-0.391-6.56-1.16-5.4-1.92-6.17-1.93-4.63-1.54-5.18-0.938-5.79 0.938-5.01 5.01-3.86 6.56-1.93 9.64-4.25 8.49-2.7 6.93-2.7 6.18-3.86 5.39-3.86 5.4-3.86 6.17-5.4 5.79-6.55-1.16-3.48-4.24-5.39" fill="#165096"/><path d="m946 502c-4.46 8.47-18.5 9.26-18.5 9.26-1.36 0.367-2.31 1.92-2.31 1.92s0.332 0.996 1.54 1.16c6.03 0.828 18.5-4.77 18.5-4.77l1.16-2.95-0.379-4.63" fill="#165096"/><path d="m946 502c-4.46 8.47-18.5 9.26-18.5 9.26-1.36 0.367-2.31 1.92-2.31 1.92s0.332 0.996 1.54 1.16c6.03 0.828 18.5-4.77 18.5-4.77l1.16-2.95-0.379-4.63z" stroke="#165096" stroke-miterlimit="3.86" stroke-width="1.42" fill="none"/><path d="m885 576s8-7.3 9.26-12.7c-0.516-1.5-8.48-21.6-8.48-21.6-3.01-11.8-0.441-17.2 7.97-15.5l46-2.75-4.24 12.7c-0.449-0.332-2.68-2.68-6.09-2.36-46.1-9.11-34.8 9.85-34.8 9.85 0.339-3.16 6.56 17.4 6.56 17.4 1.95 5.27-3.86 12.3-3.86 12.3-0.379 1.6-12.2 14.8-12.2 14.8l-5.52-3.24s4.34-6.82 5.4-8.88" fill="#165096"/><path d="m907 541c4.43 5.94 7.38 10.2 8.87 12.7 5.88 13-9.64 19.3-9.64 19.3-2.08 1.36-9.26 1.15-9.26 1.15l-8.1 4.63c0.926-1.16-3.85 3.86-3.85 3.86s19.9-1.58 25.1-3.57c15.5-10.8 18-20.7 6.93-31.5l-3.86-7.49-3.08-9.57-6.7 0.258 3.6 10.3" fill="#165096"/><path d="m912 462v3.09l1.93 9.65 1.15 6.93 0.39 2.71v1.92l1.93-1.54 1.16-3.09 0.762-3.07v-2.32l-0.379-2.31-1.54-4.25s-2.04-2.2-0.773-8.49c0.136-0.652 1.16-2.86 1.16-2.86l-2.71-0.383s-1.54 0.774-1.92 1.54c-0.391 0.774-1.16 1.7-1.16 2.47" fill="#165096"/><path d="m903 458-1.92 1.54-1.93 2.86-0.773 1.93v1.92l0.773 2.32 0.77 3.86 1.16 4.63 0.379 5.4-0.77 3.86-2.7 4.63-3.09 2.69-3.86 3.48-5.78 3.09-6.56 3.08-3.63 1.92-5.78 3.09-7.33 5.4-3.86 3.86-2.7 4.25-1.54 5.4-0.39 5.79 1.16 4.63 1.92 4.78 1.93 4.25 1.54 3.46 0.383 7.72 0.391 2.71-1.16 5.4-0.77 3.47-0.773 2.31s-1.9 6.38-0.743 7.53c1.16 1.16 7.03 2.28 6.37 2.27-4.2 0.559 7.92-1.14 5.57-2.86 0.723-1.17 0.383-5.01 0.383-5.01v-4.63l-1.16-5.02-1.15-4.24-1.15-5.02-1.16-3.86-1.54-4.23-1.15-3.86-0.774-3.25-1.54-5.78-0.39-5.4 1.54-5.79 2.71-4.62 3.46-3.48 4.24-1.93 6.34-3.47 6.55-2.7s3.48-1.54 4.63-2.32c1.16-0.77 7.72-3.48 7.72-3.48l3.09-2.7 3.48-4.25 2.7-3.46 0.769-4.63-0.378-8.09-1.54-7.34v-6.55l0.773-4.02-0.773-2.32-1.93 0.774" fill-rule="evenodd" fill="#165096"/><path d="m828 569v-3.86l-0.774-9.64-7.32-22.5c-1.5-8.08-0.734-14.4 2.31-18.9l6.55-11.6 2.31-4.24s5.45-17-1.92-21.2c-11.2-12.6-14.7 1.92-14.7 1.92l-5.4 10.4-3.46 11.6c-0.684 2.92-6.95 11.2-6.95 11.2l-3.24 3.86-3.09 2.7-4.24 5.02-3.48 2.7-2.31 1.54s-2.32 1.15-3.09 1.15c-0.773 0-3.09-0.769-3.09-0.769s-1.93-1.93-1.54-2.7c0.391-0.773 1.54-3.48 1.54-3.48l2.7-1.54 5.4-2.7 4.24-3.47 5.01-6.17 3.64-5.4 4.24-10.8 2.31-8.11 3.47-7.32 5.16-8.39c5.36-6.63 16-2.52 16.8-2.52 0.774 0 4.3 2.81 4.3 2.81s3.48-1.02 4.26 0.52c0.781 1.54 1.52 10.3 1.52 10.3l0.391 6.56-0.391 4.63c0.215 2.68-2.7 10.4-2.7 10.4l-8.87 15c-4.39 9.96 0 20.8 0 20.8l5.78 14.8 1.93 5.78 2.31 10v2.7c-2.07 5.34-7.72 2.7-8.48 2.31-0.774-0.386-1.16-3.47-1.16-3.47" fill="#165096"/><path d="m838 471-1.16-3.86-1.53-3.09-1.93-2.31-2.32-2.47-4.24-3.48c-11.2-5.78-18.9-1.54-18.9-1.54 0.5-0.488-6.17 4.63-6.17 4.63l-14.8 21.8-5.78 8.86-9.26 10.4c-13.2 10-19.7-2.31-19.7-2.31l-1.93-3.09 7.33 17c9.93-1.27 21.6-9.26 21.6-9.26l23.3-35.5 6.16-7.49c9.06-2.72 13.1 2.09 13.1 2.09s1.61 1.47 3.09 3.09c1.41 1.54 5.4 2.31 5.4 2.31s2.31 1.93 3.09 2.32c0.77 0.382 4.63 1.92 4.63 1.92" fill-rule="evenodd" fill="#165096"/><path d="m807 577 0.118-5.59c2.44-2.79 1.71-4.74 1.71-4.74 0.375-0.031-2.31-2.7-2.31-2.7l-3.86-4.25-3.47-6.18-2.31-5.78-0.773-5.4c-0.352-8.37 4.96-19.4 4.96-19.4l6.96-10.7c4.97-9.55 3.07-18.4 3.07-18.4l-1.5-6.91 3.86-7.7 1.39-2.5s0.926 4.04 1.31 4.8c0.39 0.781 1.07 15.9 1.07 15.9 0.547 5.46-1.85 13-1.85 13-10.4 15.3-12.3 22.4-12.3 22.4-2.34 8.37-1.49 12.8 1.16 16l5.4 7.34 3.09 3.86 3.47 3.09s1.16 1.15 2.31 2.7l2.32 3.09 0.77 2.31s-0.379 3.09-2.31 3.86c-1.92 0.769-3.86 2.31-3.86 2.31l-4.43 2.08-3.95-2.55" fill="#165096"/><path d="m803 438c0.313 0-2.53 0.547-2.53 0.547l-4.76-0.172c-5.33 2.15-9.38 0.313-9.38 0.313l-9.69-7.5-5.62-4.69-3.75-4.06c-3.02-3.32-5.48-1.62-5.48-1.62l-6.71 4.75 2.19 0.937 4.39 0.25 10.1 6.82 9.58 9.18 2.19 1.88c0.168 10.6-7.5 7.81-7.5 7.81l-1.88-1.56-1.88-3.12s-1.88-1.25-3.12-0.312c-1.26 0.937-1.56 2.81-1.56 2.81s1.45 4.19 5.27 6.51c4.36 1.63 7.86 1.61 7.86 1.61l-0.312 2.5c-2.51 6.14-11.8 6.86-11.8 6.86-14.2-0.586-13.5-9.05-13.5-9.05l-1.2-3.91-4.97 14.7 6.48-0.203s7.75 2.72 8.38 2.72c0.625 0 2.23 0.515 7.57 0.41 5.52-0.481 13.4-10.3 13.4-10.3l6.26-14.1c0.519-1.74 2.18-2.81 2.18-2.81l6.26-3.75s3.22-3.5 3.54-3.5" fill-rule="evenodd" fill="#165096"/><path d="m839 449c9.72 23.1 14.1 22.6 10.4 51 0.41 1.08-15.3 20.9-15.3 20.9-1.38 1.97-1.24 8.75-1.24 8.75 1.2 8.28 6.87 16.2 6.87 16.2 1.86 1.66 3.75 8.12 3.75 8.12l1.57 11.6v2.5l7.01 2.65s-1.64-26.6-4.51-28.9c-6.18-11.2-6.8-19.9-1.88-25.9l6.56-8.75c1.02-0.918 3.75-0.937 3.75-0.937l10.6-8.44 12.5-11.2 8.13-9.06c5.51-9.38 3.53-18.1 3.53-18.1-1.4-0.308-3.96 0.5-3.96 0.5l-0.195 7.86c-0.274 4.97-5.3 10-5.3 10l-10.1 10.3-12.1 9.38-1.88 0.625-0.312-2.81 1.25-2.19 3.12-3.75 16.2-22.6 4.06-7.08-10.9 0.496-0.637 4.18c-0.84 9.16-12.2 20-12.2 20l-0.937-5.31-1.26-14.1 1.57-7.19s0.442-10.4 0.129-9.76c-0.312 0.625-18.3 0.996-18.3 0.996" fill="#165096"/><path d="m808 571 3.77-3.22c52.7-3.47 65.1 10.7 65.1 10.7 4.46 2.73 9.99 11.2 9.99 11.2l5.8 2.34-0.633 7.5-6.19-2.46-5.68-0.969-3.75 0.625-1.26-6.57c-2-8.41-46.2-16.2-46.2-16.2l-6.88 0.312h-5.94l-4.37-1.25-3.75-1.88" fill="#165096"/><path d="m813 576s0.313 3.75 0.618 4.38c0.32 0.617 1.88 2.49 1.88 2.49 24.2-0.156 58.8 12.2 58.8 12.2 5 0.535 4.99 1.88 4.99 1.88 4.43 6.74 1.02 7.84 1.02 7.84l-7-3c-25.6-13.8-63.5-15.1-63.5-15.1l-1.48-3.36 0.305-4.38 5.01-3.44" fill="#165096"/><path d="m809 589c-0.754 2.81 2.81 2.81 2.81 2.81 17.8 0.246 48.8 11.2 49.4 11.6 0.625 0.313 10.6 4.38 10.6 4.38 3.82 3.11 7.91 1.74 7.91 1.74l-0.41 7.01-1.88 5s-1.59 2.6-1.59 1.97c0-0.625-6.84-9.16-6.84-9.16-8.45-9.11-40.3-15-40.3-15l-6.24-0.938h-9.38c-4.93 0.02-5.1 7.24-5.1 7.24l-4.59-4.74 1.88-7.81 3.75-4.06" fill="#165096"/><path d="m878 621c-0.527 5.27-9.92 2.23-9.92 2.23-16.5-11.9-44.3-17-44.3-17-14.4 1.17-16.5-3.95-16.5-3.95-5.49 0.586-6.87 3.75-6.87 3.75s-1.57 11.9-1.57 12.5c0 0.625-1.56 2.81-1.56 2.81l3.81-1.17 6.81-7.32c22.9-1.13 32.2 11.6 32.2 11.6 12.4 4.64 16.5 6.09 20 10.3 1.6 1.95 3.12 1.56 3.75 1.88 0.618 0.313 12.1 0.488 12.1 0.488l1.99-16.1" fill-rule="evenodd" fill="#165096"/><path d="m707 651s7.21 5.48 7.82 6.25c0.527 0.672 2.49 2.81 3.12 3.44 0.625 0.625 3.75 2.81 3.75 2.81 1.78-0.304 8.44 0 8.44 0 0.09-0.148 1.11-1.94 2.7-3.12 1.54-1.12 3.87-3.76 3.87-3.76l4.06-2.81s4.07-2.81 4.69-2.81c0.633 0 5.32-1.56 5.32-1.56l4.06-1.56 4.07-2.5 5.62-1.88 4.37-2.19 2.51-1.87 2.5-1.88 6.65-5.23 3.91-2.57 3.59-2.39c2.39-4.99 13-7.31 13-7.31l-2.81 4.69-1.56 4.38-0.313 5.31s-0.625 3.44-0.625 4.06c0 0.625-0.937 2.8-0.937 2.8l-4.69 3.12-3.97 2.48-7.91 1.58-3.43 1.88-5.87 3.15s-5.07 1.85-5.7 1.85h-4.37l-4.38 1.56c-10.8 5.41-17.8 13.4-17.8 13.4l-3.75 3.75-3.12 0.938-3.75 0.312-5.31-0.312s-2.16-0.063-13.1-7.5c-3.44-3.12-8.13-0.938-8.13-0.938 0.097 0.711 1.57-6.25 1.57-6.25l3.44-6.25 2.49-3.12" fill-rule="evenodd" fill="#165096"/><path d="m841 624c-0.207 1.98-5.01 3.59-5.01 3.59l-10.8-0.496-8.75 0.938-4.68 1.56-3.44 1.56-2.81 1.88-2.82 1.88-6.25 5.31-3.75 0.938-4.06 2.19-3.22 3.84 5.4-0.398s6.25-0.313 6.88-0.313c0.625 0 5.94-0.312 5.94-0.312s4.68-1.25 5.31-1.25c0.625 0 4.38-1.25 4.38-1.25l5.32-2.81 7.5-3.44c7.97-4.7 13.8 0.937 13.8 0.937l3.75-0.625c2.68-9.65 14.1-7.19 14.1-7.19-1.08-1.5-16.7-6.53-16.7-6.53" fill="#165096"/><path d="m762 826-3.13 1.25-3.75 2.19-2.49 1.88-3.44 0.625-3.44 0.625-3.75 2.19-5.3 3.44-2.79 4.04-2.83 4.71-4.38 7.19-2.51 6.56-0.938 3.44v2.19l1.26 0.625c1.91-0.125 4.37-1.56 4.37-1.56 3.36-1.34 7.5-5.31 7.5-5.31l3.75-3.12 3.13-1.56 6.88-2.5 4.06-1.25 10.3-2.5c6.11-1.63 11.2-4.38 11.2-4.38 10.2-7.09 11.6-15 11.6-15l1.56-7.19 0.633-6.88-0.313-5.31-0.625-7.5 0.625-4.06 1.56-4.69 0.938-3.12c0.195-2.23 0.195-3.59 0-4.06-1.26-0.125-3.43 1.25-3.43 1.25-1.3 0.976-2.81 3.75-2.81 3.75l-1.88 3.12-0.937 4.69-0.32 7.19-0.618 5.94v8.44c0.969 8.18-5.31 16.9-5.31 16.9l-4.06 3.44-5.31 2.5-4.06 1.56-8.44 1.88-7.82 1.25-7.5 3.44-3.43 2.5c-4.22 0.508-2.5-3.44-2.5-3.44l1.56-3.75 2.49-3.44c6-3.97 8.76-4.06 8.76-4.06s9.99-0.313 10.9-0.625c0.938-0.313 3.44-1.25 3.44-1.25l3.12-1.56 2.81-2.19 2.51-3.44 0.305-2.81c-1.9-3.96-7.18-2.19-7.18-2.19" fill="#165096"/><path d="m762 826-3.13 1.25-3.75 2.19-2.49 1.88-3.44 0.625-3.44 0.625-3.75 2.19-5.3 3.44-2.79 4.04-2.83 4.71-4.38 7.19-2.51 6.56-0.938 3.44v2.19l1.26 0.625c1.91-0.125 4.37-1.56 4.37-1.56 3.36-1.34 7.5-5.31 7.5-5.31l3.75-3.12 3.13-1.56 6.88-2.5 4.06-1.25 10.3-2.5c6.11-1.63 11.2-4.38 11.2-4.38 10.2-7.09 11.6-15 11.6-15l1.56-7.19 0.633-6.88-0.313-5.31-0.625-7.5 0.625-4.06 1.56-4.69 0.938-3.12c0.195-2.23 0.195-3.59 0-4.06-1.26-0.125-3.43 1.25-3.43 1.25-1.3 0.976-2.81 3.75-2.81 3.75l-1.88 3.12-0.937 4.69-0.32 7.19-0.618 5.94v8.44c0.969 8.18-5.31 16.9-5.31 16.9l-4.06 3.44-5.31 2.5-4.06 1.56-8.44 1.88-7.82 1.25-7.5 3.44-3.43 2.5c-4.22 0.508-2.5-3.44-2.5-3.44l1.56-3.75 2.49-3.44c6-3.97 8.76-4.06 8.76-4.06s9.99-0.313 10.9-0.625c0.938-0.313 3.44-1.25 3.44-1.25l3.12-1.56 2.81-2.19 2.51-3.44 0.305-2.81c-1.9-3.96-7.18-2.19-7.18-2.19z" stroke="#165096" stroke-miterlimit="3.86" stroke-width="1.42" fill="none"/><path d="m806 683c-1.55-2.32 0.567-4 3.75-4.69-0.047-0.398 5.93-1.56 5.93-1.56 1.58-0.071 3.12 1.88 2.82 2.81-0.32 0.942-1.88 1.88-1.88 1.88-4.67 4.07-10.6 1.57-10.6 1.57" fill="#165096"/><path d="m806 683c-1.55-2.32 0.567-4 3.75-4.69-0.047-0.398 5.93-1.56 5.93-1.56 1.58-0.071 3.12 1.88 2.82 2.81-0.32 0.942-1.88 1.88-1.88 1.88-4.67 4.07-10.6 1.57-10.6 1.57z" stroke="#165096" stroke-miterlimit="3.86" stroke-width="1.42" fill="none"/><path d="m664 757c-1.1-0.274-2.81 1.25-2.81 1.25-1.88 2.77-0.632 5.94-0.632 5.94 0.203 0.43 1.31 1.62 1.88 1.88 0.632 0.274 2.2 0.938 2.81 0.938 3.44 0.605 5.09 0.183 7.82-0.938 0.578-0.137 3.12-1.56 3.12-1.56l3.12-2.5c1.69-1.7 2.52-2.95 2.51-3.75 0 0 0.422-8.77-0.632-9.69-3.34-4.43-6.98-7.15-10.9-8.12l-14.4-3.44-4.06-1.56-2.19-2.81-2.68-6.4s-2.43 14.5-3.06 14.8c-0.625 0.313-1.76 8.79-1.76 8.79l9.69-7.81c14.9-0.071 22.5 7.5 22.5 7.5l0.938 4.06c-0.086 2.25-0.184 3.5-0.313 3.75 0 0-1.94 3.25-7.19 1.56-1.41-1.08-3.75-1.88-3.75-1.88" fill="#165096"/><path d="m664 757c-1.1-0.274-2.81 1.25-2.81 1.25-1.88 2.77-0.632 5.94-0.632 5.94 0.203 0.43 1.31 1.62 1.88 1.88 0.632 0.274 2.2 0.938 2.81 0.938 3.44 0.605 5.09 0.183 7.82-0.938 0.578-0.137 3.12-1.56 3.12-1.56l3.12-2.5c1.69-1.7 2.52-2.95 2.51-3.75 0 0 0.422-8.77-0.632-9.69-3.34-4.43-6.98-7.15-10.9-8.12l-14.4-3.44-4.06-1.56-2.19-2.81-2.68-6.4s-2.43 14.5-3.06 14.8c-0.625 0.313-1.76 8.79-1.76 8.79l9.69-7.81c14.9-0.071 22.5 7.5 22.5 7.5l0.938 4.06c-0.086 2.25-0.184 3.5-0.313 3.75 0 0-1.94 3.25-7.19 1.56-1.41-1.08-3.75-1.88-3.75-1.88z" stroke="#165096" stroke-miterlimit="3.86" stroke-width="1.42" fill="none"/><path d="m595 926c2.34 2 13.7 7.09 13.7 7.09-0.032 0.305 14.2 4.55 14.2 4.55s7.63 2.2 9.62 2.53c28.2 4.37 49.8 6.14 64.9 5.33 29.3 0.137 54.1-6.84 54.1-6.84 14.5-3.11 44.6-14.7 44.6-14.7 5.85-2.23 25.6-12.7 35.9-28.8 0.77-1.21 21.8-35 21.8-35 6.31-13.2 14.3-42.4 14.3-42.4l3.94-16.8 5.1-18.7c7.58-28.6 9.11-44.6 9.11-44.6l1.54-13.2 2.59-23.6 0.925-12.3 2.53-19.7c0.508-2.25-6.08-23.3-6.08-23.3l-7.59-10.1-7.13-2.02v4.05l8.14 10.6c0.852 0.137 5.57 10.1 5.57 11.1 0 1.02-1.52 41-1.52 41l-1.02 21.8-1.39 13.7c0.402 1.59-2.15 17.7-2.15 17.7 0.059 0.957-3.54 10.6-3.54 10.6l-3.58 12.6-3.54 12.2-3.74 14.9-2.28 13.6c-0.301 4.86-8.16 27.7-8.16 27.7-10.2 23.5-30.4 48.6-30.4 48.6l-12.7 11.6c-69.4 42.3-150 33.4-152 33.4 0 0-15.9-1.89-31.4-4.56-14.5-3.44-22.8-7.57-22.8-7.57-3.74-2.28-9.57-3.06-9.57-3.06-2.82 0.164-1.52 2.53-1.52 2.53" fill="#165096"/><path d="m718 915c1.43-0.637 4.13-2.16 8.1-4.55 16.4-10.4 29.6-16.9 42.5-21 1.02-0.508 25.4-10.7 31.4-24.6 5.68-8.26 8.09-16.2 8.09-16.2-0.137 1.46 3.55-11.6 3.55-11.6l4.55-23.8 3.04-8.6c3.37-10.1 10.6-16.2 10.6-16.2l19.2-16.7s11.1-12.2 10.5-22.7c0.633-2.11-1.84-3.12-2.87 0.386-1.2 4.08-1.54 4.91-2.83 7.35-2.34 4.39-11.8 12.9-11.8 12.9l-11.1 8.09-11.1 8.64-7.59 6.57c-4.68 8.48-3.55 15.7-3.55 15.7l0.508 11.1c1.29 5.57-4.56 24.3-4.56 24.3l-2.19 5.2-1.86 4.41-3.55 7.62c-0.527 0.434-2.51 2.08-7.12 6.58-11.1 13-31.4 18.7-31.4 18.7-8.77 1.82-15.3 3.8-21.8 7.08-20.1 12.2-18.7 21.3-18.7 21.3" fill="#165096"/><path d="m718 915c1.43-0.637 4.13-2.16 8.1-4.55 16.4-10.4 29.6-16.9 42.5-21 1.02-0.508 25.4-10.7 31.4-24.6 5.68-8.26 8.09-16.2 8.09-16.2-0.137 1.46 3.55-11.6 3.55-11.6l4.55-23.8 3.04-8.6c3.37-10.1 10.6-16.2 10.6-16.2l19.2-16.7s11.1-12.2 10.5-22.7c0.633-2.11-1.84-3.12-2.87 0.386-1.2 4.08-1.54 4.91-2.83 7.35-2.34 4.39-11.8 12.9-11.8 12.9l-11.1 8.09-11.1 8.64-7.59 6.57c-4.68 8.48-3.55 15.7-3.55 15.7l0.508 11.1c1.29 5.57-4.56 24.3-4.56 24.3l-2.19 5.2-1.86 4.41-3.55 7.62c-0.527 0.434-2.51 2.08-7.12 6.58-11.1 13-31.4 18.7-31.4 18.7-8.77 1.82-15.3 3.8-21.8 7.08-20.1 12.2-18.7 21.3-18.7 21.3z" stroke="#165096" stroke-miterlimit="3.86" stroke-width="1.42" fill="none"/><path d="m600 906c5.16 2.81 22.9 7.02 22.9 7.02 1.15 0.633 17.2 3.04 18.2 3.04 1.01 0 29.9 4.04 29.9 4.04 12.6 0.899 22.3-3.04 22.3-3.04 3.58-0.996 6.58-3.54 6.58-3.54l16.2-12.7 16.2-11.1s9.61-5.06 11.1-5.57c1.52-0.508 21.8-7.6 23.8-8.09 2.02-0.512 17.2-7.6 17.2-7.6s21.4-12.2 19.6-20.7c-9.02 9.52-25.2 16.2-25.2 16.2-44.1 14.7-50.6 21.8-50.6 21.8l-12.2 8.11-10.6 7.08c-14 11.2-33.4 12-33.4 12-19.2 1.67-52.4-4.72-52.4-4.72-13.2-3.66-19.5-2.18-19.5-2.18" fill="#165096"/><path d="m745 924c-1.02-0.039 6.95-0.614 13.7-2.29 2.03-0.508 12-4.16 13.2-4.56 0.957-0.312 18-7.71 20.2-9.1 10.3-5.91 17.3-10.8 21.3-14.2 11.5-9.9 14.3-16.4 14.3-16.4 8.13-10.8 14.4-21.1 18.6-36.2l3.55-12.1 2.02-10.6 3.04-17.7 2.53-10.6-10.1 14.2-3.69 4.8-2.88 4.81-3.04 9.11c-10.1 45-18.2 54.7-18.2 54.7-10.2 15.5-25.9 24.3-25.9 24.3-3.2 2.17-22.8 11.1-22.8 11.1s-16.3 6.07-18.2 6.58c-11.7 3.12-7.59 4.32-7.59 4.32" fill-rule="evenodd" fill="#165096"/><path d="m642 867c10.1-5.7 16.7-6.58 16.7-6.58 8.05-0.027 17.2-2.06 17.2-2.06s6.08-3.04 7.09-6.08c1.02-3.04 1.02-4.55 1.02-4.55l0.496-9.62s2.03-11.1 3.55-11.6c1.52-0.512 1.41-3.33 22.8-8.61 0.985-0.246 11-4.47 12.2-6.07 2.89-2.26 4.75-4.28 5.57-6.07 7.52-12.3 2.53-39 2.53-39l1.02-5.57c9.57-8.27 14.7-7.09 14.7-7.09v3.04c0 1.02-2.54 6.07-2.54 6.07l-9.61 43.1c-4.14 8.08-22.3 15.7-22.3 15.7-10.6 2.67-11.1 10.6-11.1 10.6l-2.54 10.6-3.03 11.1c-2.75 14.1-15.2 13.7-15.2 13.7h-13.2l-6.57 0.496-5.57 1.02-8.6 3.55s-9.57 2.11-4.56-6.08" fill="#165096"/><path d="m644 846 6.14-1.29 4.55-1.51c4.16-0.176 5.06 1 5.06 1l9.11 3.04h3.05l6.07-1.01c11.9-2.8 12.7-10.1 12.7-10.1l-7.09 2.02-6.58 0.508-10.1 0.508-7.09-0.508c-9.95-3.32-15.8 7.36-15.8 7.36" fill="#165096"/><path d="m640 887c8.82-11.9 18.2-4.87 17.7-5.58l14.7 3.04c3.96 0.282 7.77 0.465 8.88 0.333 6.65-0.461 9.32-1.56 11-2.06 4.56-1.32 8.18-1.85 14.1-10.9-0.097 0.852 5.06-9.62 5.06-9.62l4.09-10.7c6.32-24 30.4-32.9 30.4-32.9l14.2-4.04 4.56-2.03s5.53-4.23 6.58-7.08c0.496-1.34 3.54-7.09 3.54-7.09l3.04-9.1 4.55-12.7 4.05-3.55 5.06-4.04 4.59-6.08c-1.71-1.46-1-5.06-1-5.06 0-0.574-4.59-1.52-4.59-1.52l-4.9-1.35c-2.29 0.976-3.71 4.89-3.71 4.89l-1.52 7.59-6.57 21.8c-4.99 12.8-14.2 15.2-14.2 15.2l-12.6 6.08-17.2 9.62c-12.5 5.92-19.3 27.8-19.3 27.8-5.27 22-15.2 26.9-15.2 26.9-5.23 5.43-31.2 2.37-31.2 2.37l-10.1-3.35c1.13 0.519-15.8-5.6-15.8-5.6s0.508 8.1 0.508 9.11c0 1.02 1.52 9.62 1.52 9.62" fill-rule="evenodd" fill="#165096"/><path d="m748 796c9.84-12 5.57-34.5 5.57-34.5l2.03-10.6 6.57-9.62s11.6-13.2 12.1-14.2c13.5-15.3 10.3-29.9 5.07-41.5l-5.07-6.08-1.01-2.02-0.507-13.2 2.02-3.54c3.38-2.09 15.2-2.53 15.2-2.53s15.2 0 16.2-0.508c1.01-0.496 7.08 1.02 5.57 2.03-1.52 1.01-4.05 2.02-4.05 2.02s-7.08 5.57-7.59 7.09c-0.508 1.51-1.51 10.1-1.51 11.1 0 1.01-1.52 4.56-1.52 4.56-0.41 0.828-2.87 4.7-4.59-0.512 0.308 0.989-1.02-5.56-1.02-5.56l-1.52-6.07-5.57-2.53c-0.703-0.136-1.55 0.032-2.53 0.508-1.03 0.762-0.508 4.56-0.508 4.56 0.711 1.82 4.04 6.57 4.04 6.57l2.03 6.58 2.53 9.11 1.01 10.7-2.53 9.11-3.04 6.07-12.1 16.2-5.57 7.59-5.57 7.6-2.53 9.11-0.554 22.2c0.312 6.72-6.52 14.3-6.52 14.3-7.7 3.02-4.57-4-4.57-4" fill-rule="evenodd" fill="#165096"/><path d="m592 915 15.1 6.6 18.7 4.33c45.1 6.84 77 4.05 77 4.05 26.4-4.66 43.6-13.2 43.6-13.2s44.8-18.9 61.8-39c5.1-6.91 7.09-13.2 7.09-13.2l12.6-39c3.93-12.1 8.1-17.2 8.1-17.2 2.87-3.84 6.58-5.57 6.58-5.57l4.56-2.03c4.43-1.73 8.1-7.08 8.1-7.08 5.23-7.23 5.06-13.7 5.06-13.7 1.04-0.711 0-7.09 0-7.09l-4.55 5.57-8.95 9.02c-19.9 11-25.5 40.1-25.5 40.1l-3.55 15.2-5.07 15.2c-5.48 28.3-80 58.2-80 58.2-31.3 15.1-70.9 10.1-70.9 10.1-4.77-0.093-17.2-2.02-17.2-2.02l-32.4-5.57-12.6-2.75-7.5-1.09" fill-rule="evenodd" fill="#165096"/><path d="m854 627c1.94 0.113 3.12 2.14 3.54 6.07l1.52 7.09 1.01 9.11 0.508 7.59 1.02 8.1v6.58c-5.33 13.1-23.3 20.8-23.3 20.8l-9.62 3.04-7.09 4.04-5.57 5.1-5.57 3.55-7.08 2.02c-4.16 0.266-1.52 2.53-1.52 2.53s2.53 1.02 4.56 1.02c2.02 0 7.59-0.512 9.1-1.02 1.52-0.496 6.58-1.51 6.58-1.51s4.53-4.54 7.6-6.08c12.1-6.04 39-25.8 39-25.8 3.22-1.99 3.04-8.61 3.04-8.61v-6.58l-0.508-7.08-1.52-5.05-2.53-11.1-1.02-7.09s-1.52-2.53-2.02-3.55c-0.508-1.01-3.04-3.54-3.04-3.54l-4.06-1.02-3.04 1.52" fill="#165096"/><path d="m871 681-6.57 11.1s-6.88 13.6-20.3 20.1c-7.75 2.22-9.41 5.54-9.41 5.54-0.176 0.207-0.187 8.83-0.187 8.83 1.57 13.3-10.1 24.8-10.1 24.8s-14.2 7.59-15.2 8.1c-1.02 0.504-14.5 4.55-15.7 5.06-0.938 0.391-10.1 7.6-10.1 7.6l-2.02 5.56 4.04-2.53 13.2-6.58 30.3-14.9c6.92-3.74 10.7-8.33 10.7-8.33 1.36-2.75 4.06-15.2 4.06-15.2 0.488-4.61 5.06-7.59 5.06-7.59 2.21-2.01 20.8-19.2 20.8-19.2 3.37-4.72 1.52-22.3 1.52-22.3" fill-rule="evenodd" fill="#165096"/><path d="m871 681-6.57 11.1s-6.88 13.6-20.3 20.1c-7.75 2.22-9.41 5.54-9.41 5.54-0.176 0.207-0.187 8.83-0.187 8.83 1.57 13.3-10.1 24.8-10.1 24.8s-14.2 7.59-15.2 8.1c-1.02 0.504-14.5 4.55-15.7 5.06-0.938 0.391-10.1 7.6-10.1 7.6l-2.02 5.56 4.04-2.53 13.2-6.58 30.3-14.9c6.92-3.74 10.7-8.33 10.7-8.33 1.36-2.75 4.06-15.2 4.06-15.2 0.488-4.61 5.06-7.59 5.06-7.59 2.21-2.01 20.8-19.2 20.8-19.2 3.37-4.72 1.52-22.3 1.52-22.3z" stroke="#165096" stroke-miterlimit="3.86" stroke-width="1.42" fill="none"/><path d="m648 880c-2.22 3.52-1.5 7.86-1.5 7.86 4.99 8.76 44.5 4.15 48.6 2.03l17.7-9.62 18.8-10.1c32.4-16.7 54.9-21.8 54.9-21.8 10.9-6.52 9.38-33.4 9.38-33.4l0.539-14.7 0.508-8.61 1.02-6.58c0.547-4.44 4.55-7.12 4.55-7.12l40-23.3s10.9-6.94 12.1-24.8c-0.02-6.73-3.04-10.1-3.04-10.1 0.246-1.47 0-4.56 0-4.56s0.508-1 4.06-3.04l7.08-4.04-0.508 4.55-2.02 7.09-0.507 16.2 0.839 12c0.372 3.07-1.48 4.71-4.88 6.7l-5.07 2.53-20.2 10.1-7.09 4.06-10.1 6.07-6.57 7.12-4.05 7.6-2.53 9.1-1.02 8.61v7.08l-0.457 9.31-0.547 9.42c1.78 14.5-29.4 22.8-29.4 22.8l-22.3 7.62-9.11 4.06-15.7 11.1c-0.117 0.774-15.7 10.6-15.7 10.6-20.7 11.1-43.6 9.8-43.6 9.8l-9.78-0.801c-8.09-1.28-12.4-5.46-12.4-5.46l-0.508-4.05s0.832-3.87 1.25-4.8c0.605-1.35 2.3-3.81 2.3-3.81l5.04-2.8" fill="#165096"/><path d="m647 834c0.887-0.637 27.2-21.7 27.2-21.7 9.93-9.15 25.2-11.9 25.2-11.9 3.21-0.75 12.3-0.308 12.3-0.308 9.06-2.34 8.59-13.9 8.59-13.9 2.78-16.9-5.11-17.1-5.11-17.1-2.23-1.34-4.04-2.02-4.04-2.02s-4.05-2.53-0.508-3.04c3.54-0.508 16.7 1.01 16.7 1.01l-4.56 31.9c-3.46 12.5-21 11.1-21 11.1-3.91-0.781-9.22-0.156-9.22-0.156-11.7 2.97-19.1 10.2-19.1 10.2l-25 19c-7.28 2.66-1.41-2.97-1.41-2.97" fill="#165096"/><path d="m847 633 1.19 8.1 2.95 10.7c0.313 1.41-0.937 4.14-0.937 4.14 0 0.468-7.03 9.22-7.03 9.22-0.859 1.64-0.312 7.58-0.312 7.58 0.137 3.1-1.63 9.44-5.29 19-4.32 6.99-11.6 9.11-11.6 9.11s-4.05 1.59-4.05 1.04c-0.828-0.269-0.84-1.09-0.028-2.44 10.3-10.4 12.2-22.4 12.2-22.4 0.481-1.84 0.363-1.46 0.871-2.47 0.508-1.02 1.66-4.62 1.66-4.62l2.04-5.06 5.57-11.1c2.23-2.94-3.04-10.1-3.04-10.1l0.508-7.09 5.38-3.55" fill="#165096"/><path d="m846 630-0.508 7.6s-0.899 7.07-2.02 8.09c-17.7 16.1-38.5 15.7-38.5 15.7l-3.54-1.01 1.7-2.53c41.6-9.14 36.8-19.8 36.8-19.8 1.82-2.17 0.984-3.44 0.984-3.44l2.53-3.04 2.53-1.52" fill="#165096"/><path d="m788 663s13.5 1.57 14.6 1.9c20.4 5.76 33 1.64 33 1.64 2.47-0.078 4.82-3.67 4.82-3.67l1.41 1.64-0.148 3.05c-0.321 4.77-9.46 5.86-9.46 5.86l-22.3-1.17-9.7-1.65-15.2-4.06 3.04-3.54" fill="#165096"/><path d="m766 792 0.196-6.21s-1.04-19.3-1.02-17.2c-0.125 0.383 0.441-10.7 4.56-14.2 2.44-1.51 7.7-6.12 7.7-6.12 3.14-2.23 8.28-11.5 8.28-11.5s4.6-15.1 3.75-16.3l-1.51-8.11 2.31-4.58s8.35 1.56 9.36 1.56c1.02 0 4.06 1 4.06 1l0.508 2.53s-2.54 1.53-3.55 1.02c-1.02-0.508-2.53-1.02-2.53-1.02l-1.52 6.58c-0.07 2.82-5.78 13.9-5.78 13.9l-1.34 3.82-3.04 9.62-6.08 8.61c-4.43 1.7-7.59 8.09-7.59 8.09-1.8 3.02-2.53 22.8-2.53 22.8-0.39 2.06-4.25 5.7-4.25 5.7" fill="#165096"/><path d="m825 704c1.76-1.18-2.02 6.07-2.02 6.07l2.02 16.7c-1.35 18.2-19.7 29.9-19.7 29.9l-9.65 3.04-5.57-0.508c-5.81-4.82-12.7-2.53-12.7-2.53s-13.7-3.04-16.2-2.02c-2.53 1.02-5.07 4.05-5.07 4.05s-1.5 4.45-2.02 3.04c-1.09-2.94-9.11 0-9.11 0l-14.7 6.06-1.51-0.5-11.1-1.52-0.507-2.02 2.53-1.02s24.3-7.74 27.9-21.6c0.402-1.56 6.05-1.64 7.07-1.64s12.1 4.05 12.1 4.05 3.95 10.3 12.7 5.06c1.29-0.782 12.6 0.508 12.6 0.508l10.2-1.53c12.1-3.34 14.2-24.3 14.2-24.3 1.02-2.21-2.53-7.09-2.53-7.09s5.86-10.8 6.58-11.6c2.94-3.5 4.55-0.508 4.55-0.508" fill="#165096"/><path d="m643 782 3.54 2.53 3.04 3.04s3.54 4.06 5.06 4.06h5.06s8.99-1.65 10.5-2.16c1.52-0.5 9.22-3.41 9.22-3.41l10.1-2.03 4.04-0.507 6.58-3.58 3.54-4.55 1.52-3.04 0.508-4.05 3.04-2.53 6.61-1.53-3.07 9.11-5.07 11.7-3.54 3.04-4.05 2.02c-24 4.29-25.3 9.11-25.3 9.11l-2.53 2.53-10.1 9.11-13.4 13.8c-0.793 1.2-7.4 5.19-7.4 5.19-2.26-0.609-0.91-2.81-0.91-2.81l11.6-9.61s8.1-12.2 10.1-13.7c2.02-1.52 3.04-4.55 3.04-4.55-1.56-2.77-4.55 0-4.55 0l-3.04 4.05-16.8 16c-6.12 3.55-1.88-2.85-1.88-2.85 0.723-1.22 11.1-13.7 11.1-13.7l1-5.57-2.53-2.03-3.55 1.52-2.02-1.02-3.04-6.07 3.55-7.59" fill="#165096"/><path d="m768 655-1.52 4.05-0.507 4.55c0.832 3.82 6.58 1.52 6.58 1.52s3.04 0.507 4.04 0.507c1.02 0 0.851 13 0.851 13l-7.42 0.149-6.58-0.508s-3.6 4.58-1.52 4.56c13.6-0.11 14.2 19.3 14.2 19.3-0.692 4.53-3.54 2.02-3.54 2.02-3.25-15.6-14.7-17.7-14.7-17.7l-6.07-0.507-4.06 1-2.02 2.03c14.8 7.88 17.2 15.2 17.2 15.2 1.99 1.73 1.52 11.6 1.52 11.6l-1.02 5.06c-1.8 1.75-3.55-0.496-3.55-0.496v-4.06c0.09-1.74-0.078-3.59-0.508-5.57-10.1-20.8-19.2-13.7-19.2-13.7l-2.02 2.02c17.1 2.3 14.2 36.5 14.2 36.5l-0.507 4.56-2.02 2.02-2.34-0.266c1.87-4.56 2.34-15.4 2.34-15.4 0.617 0.23-4.7-22.3-18.7-19.2-0.985 0.214-5.57 1.01-5.06 2.03 0.508 1 0 3.02 1.52 3.53 1.52 0.512 4.56 2.03 5.57 2.53 1.02 0.508 5.57 5.07 5.57 5.07l2.03 4.55 0.508 6.08-0.508 2.53c-0.528 0.613-2.03 0-2.03 0l-1.01-2.02c-1.55-14.2-13.7-15.7-13.7-15.7l-5.57-2.53h-3.07l-1.52 1.02c12.4 8.79 13.2 18.2 13.2 18.2l0.5 5.57c0.007 2.54-0.168 3.72-0.5 3.54-0.196 0.429-2.03 0-2.03 0 0.032 0.371-1.51-2.02-1.51-2.02l-2.53-8.09c-3.35-9.2-12.2-13.2-12.2-13.2-4.75-0.253-2.53 3.54-2.53 3.54 11.2 11.4 10.2 15.2 10.2 15.2l-0.539 8.6c-1.16 1.24-2.54 0-2.54 0l-1.51-4.55c-1.39-9.28-9.11-16.7-11.1-16.7-2.02 0-3.55-1.01-3.55-1.01l-1 2.53 3.54 2.02 3.04 3.55 2.53 4.55c0.418 2.95 0.586 4.97 0.508 6.08 0.652 2.46 0.996 3.8 1.02 4.05-0.898 0.86-2.53 0.508-2.53 0.508-0.43 0.164-1.02-2.53-1.02-2.53-1.84-5.5-4.03-9.21-6.58-11.1 0 0-3.95 0.379-2.53 1.52 3.67 2.92 3.54 12.1 3.54 12.1l-0.508 12.6 1.52 3.04 8.1 2.03 11.7-1.02 3.05 2.53-5.07 4.05-10.7 1.52-5.06-2.02-4.05-0.508-5.57 0.508-2.02 1.01-11.1 7.09c-2.4 0.434-3.92 0.434-4.56 0 0 0-2.26-2.29 1.02-3.54 1.43-0.691 27.3-10.4 14.7-37.5-0.313-1.22-3.04-3.04-3.04-3.04-0.977-0.809-8.09-1.01-8.09-1.01-0.735-0.086-5.57 2.02-5.57 2.02l-4.56 4.55v4.56l-13.2-2.03-1.01-3.04 0.5-2.02s4.07-3.89 4.55-4.04c1.55-0.679 3.54-5.57 3.54-5.57 0.129 0.039 0-9.1 0-9.1l-0.839-28.4c0.05-2.63 4.82-11.4 4.82-11.4-0.012-0.094 4.3 0.52 4.3 0.52-2.72 5.14-4.58 12.3-4.23 16.9l2.02 15.2s2.03 6.07 2.03 7.09c0 1 1.12 8.5 1.12 8.5s0.391 1.62 1.9 1.62c1.52 0 2.54-0.508 2.54-0.508 0.735-0.379 1.01-1.52 1.01-1.52 0.145-0.152-0.512-11.1-0.512-11.1-6.58-23.9-3.05-36-3.05-36 0.363 0.129 6.69 0.742 6.69 0.742-3.87 6.62-4.13 13.5-4.13 13.5l1.52 7.6 2.02 7.62 1.52 11.6 1.01 2.02h2.03l0.508-5.06v-12.7l-1.56-9.52c-0.468-8.43 1.63-14.8 1.63-14.8l4.31 0.372-1.34 5.66-0.508 7.59s0.508 6.05 0.508 7.09 2.53 10.2 2.53 10.2l2.02 3.04c4.13 1.33 4.55-3.55 4.55-3.55l-4.04-20.8s-0.918-9.58-0.508-10.6c0.539-1.37 4.05-7.08 4.05-7.08 0.77-1.16 2.02 1.01 2.02 1.01-0.059-0.903 1.52 22.8 1.52 22.8s1.86 3.02 5.14 1.3c5.58-0.254 7.01 5.82 7.01 5.82s7.37 7.17 7.62-6.62c0.051-2.48-4.01-7.79-4.01-7.79-4.06-4.53 3.12-2.35 3.12-2.35l5.44 2.04s4.05 1.02 5.07 1.02c1 0 2.02 0 4.04-1.02 2.03-1.02 3.04-3.04 3.04-3.04l-3.54-7.08s-0.828-5.97 0-7.6c1.89-3.7 5.57 0 5.57 0s-1.02 4.06-0.507 5.07c0.507 1 1.52 3.54 1.52 3.54 1.41 2.38 7.09 2.03 7.09 2.03 10.3-4.65 12.1-21.3 12.1-21.3 1.07-2.3-2.54-3.04-2.54-3.04l2.03-4.05 15.7-5.57-5.57 8.1" fill-rule="evenodd" fill="#165096"/><path d="m768 655-1.52 4.05-0.507 4.55c0.832 3.82 6.58 1.52 6.58 1.52s3.04 0.507 4.04 0.507c1.02 0 0.851 13 0.851 13l-7.42 0.149-6.58-0.508s-3.6 4.58-1.52 4.56c13.6-0.11 14.2 19.3 14.2 19.3-0.692 4.53-3.54 2.02-3.54 2.02-3.25-15.6-14.7-17.7-14.7-17.7l-6.07-0.507-4.06 1-2.02 2.03c14.8 7.88 17.2 15.2 17.2 15.2 1.99 1.73 1.52 11.6 1.52 11.6l-1.02 5.06c-1.8 1.75-3.55-0.496-3.55-0.496v-4.06c0.09-1.74-0.078-3.59-0.508-5.57-10.1-20.8-19.2-13.7-19.2-13.7l-2.02 2.02c17.1 2.3 14.2 36.5 14.2 36.5l-0.507 4.56-2.02 2.02-2.34-0.266c1.87-4.56 2.34-15.4 2.34-15.4 0.617 0.23-4.7-22.3-18.7-19.2-0.985 0.214-5.57 1.01-5.06 2.03 0.508 1 0 3.02 1.52 3.53 1.52 0.512 4.56 2.03 5.57 2.53 1.02 0.508 5.57 5.07 5.57 5.07l2.03 4.55 0.508 6.08-0.508 2.53c-0.528 0.613-2.03 0-2.03 0l-1.01-2.02c-1.55-14.2-13.7-15.7-13.7-15.7l-5.57-2.53h-3.07l-1.52 1.02c12.4 8.79 13.2 18.2 13.2 18.2l0.5 5.57c0.007 2.54-0.168 3.72-0.5 3.54-0.196 0.429-2.03 0-2.03 0 0.032 0.371-1.51-2.02-1.51-2.02l-2.53-8.09c-3.35-9.2-12.2-13.2-12.2-13.2-4.75-0.253-2.53 3.54-2.53 3.54 11.2 11.4 10.2 15.2 10.2 15.2l-0.539 8.6c-1.16 1.24-2.54 0-2.54 0l-1.51-4.55c-1.39-9.28-9.11-16.7-11.1-16.7-2.02 0-3.55-1.01-3.55-1.01l-1 2.53 3.54 2.02 3.04 3.55 2.53 4.55c0.418 2.95 0.586 4.97 0.508 6.08 0.652 2.46 0.996 3.8 1.02 4.05-0.898 0.86-2.53 0.508-2.53 0.508-0.43 0.164-1.02-2.53-1.02-2.53-1.84-5.5-4.03-9.21-6.58-11.1 0 0-3.95 0.379-2.53 1.52 3.67 2.92 3.54 12.1 3.54 12.1l-0.508 12.6 1.52 3.04 8.1 2.03 11.7-1.02 3.05 2.53-5.07 4.05-10.7 1.52-5.06-2.02-4.05-0.508-5.57 0.508-2.02 1.01-11.1 7.09c-2.4 0.434-3.92 0.434-4.56 0 0 0-2.26-2.29 1.02-3.54 1.43-0.691 27.3-10.4 14.7-37.5-0.313-1.22-3.04-3.04-3.04-3.04-0.977-0.809-8.09-1.01-8.09-1.01-0.735-0.086-5.57 2.02-5.57 2.02l-4.56 4.55v4.56l-13.2-2.03-1.01-3.04 0.5-2.02s4.07-3.89 4.55-4.04c1.55-0.679 3.54-5.57 3.54-5.57 0.129 0.039 0-9.1 0-9.1l-0.839-28.4c0.05-2.63 4.82-11.4 4.82-11.4-0.012-0.094 4.3 0.52 4.3 0.52-2.72 5.14-4.58 12.3-4.23 16.9l2.02 15.2s2.03 6.07 2.03 7.09c0 1 1.12 8.5 1.12 8.5s0.391 1.62 1.9 1.62c1.52 0 2.54-0.508 2.54-0.508 0.735-0.379 1.01-1.52 1.01-1.52 0.145-0.152-0.512-11.1-0.512-11.1-6.58-23.9-3.05-36-3.05-36 0.363 0.129 6.69 0.742 6.69 0.742-3.87 6.62-4.13 13.5-4.13 13.5l1.52 7.6 2.02 7.62 1.52 11.6 1.01 2.02h2.03l0.508-5.06v-12.7l-1.56-9.52c-0.468-8.43 1.63-14.8 1.63-14.8l4.31 0.372-1.34 5.66-0.508 7.59s0.508 6.05 0.508 7.09 2.53 10.2 2.53 10.2l2.02 3.04c4.13 1.33 4.55-3.55 4.55-3.55l-4.04-20.8s-0.918-9.58-0.508-10.6c0.539-1.37 4.05-7.08 4.05-7.08 0.77-1.16 2.02 1.01 2.02 1.01-0.059-0.903 1.52 22.8 1.52 22.8s1.86 3.02 5.14 1.3c5.58-0.254 7.01 5.82 7.01 5.82s7.37 7.17 7.62-6.62c0.051-2.48-4.01-7.79-4.01-7.79-4.06-4.53 3.12-2.35 3.12-2.35l5.44 2.04s4.05 1.02 5.07 1.02c1 0 2.02 0 4.04-1.02 2.03-1.02 3.04-3.04 3.04-3.04l-3.54-7.08s-0.828-5.97 0-7.6c1.89-3.7 5.57 0 5.57 0s-1.02 4.06-0.507 5.07c0.507 1 1.52 3.54 1.52 3.54 1.41 2.38 7.09 2.03 7.09 2.03 10.3-4.65 12.1-21.3 12.1-21.3 1.07-2.3-2.54-3.04-2.54-3.04l2.03-4.05 15.7-5.57-5.57 8.1z" stroke="#165096" stroke-miterlimit="3.86" stroke-width="1.42" fill="none"/><path d="m859 785 4.47-7.79 6.58-21.3 4.04-53.1 1.02-21.3v-17c-1.97-8.91-5.06-11.6-5.06-11.6-0.196 0.039-2.03 10.1-2.03 10.1v22.8l-1 26.3c0.157 46.8-7.9 63.8-7.9 63.8l-0.117 9.32" fill="#165096"/><path d="m859 785 4.47-7.79 6.58-21.3 4.04-53.1 1.02-21.3v-17c-1.97-8.91-5.06-11.6-5.06-11.6-0.196 0.039-2.03 10.1-2.03 10.1v22.8l-1 26.3c0.157 46.8-7.9 63.8-7.9 63.8l-0.117 9.32z" stroke="#165096" stroke-miterlimit="3.86" stroke-width="1.42" fill="none"/><path d="m783 773 8.53-24.9 6.7-14.1 6.06-15.2c1.84-2.17 0-6.07 0-6.07l4.05-3.04 11.1-5.06s3.54-0.507 2.53 2.02c-1 2.54-7.58 10.1-10.6 12.7-3.04 2.53-3.54 2.53-4.05 4.06-0.508 1.52-7.08 23.3-7.08 23.3l-5.1 15.7-6.58 9.11-5.57 1.52" fill="#165096"/><path d="m504 328-9.04 0.183 1.3 34.9c0.183 18.6-5.86 33.9-5.86 33.9l-7.04 17-7.05 12.9-6.46 14.1c-3.57 6.6-4.03 14.2-4.03 14.2l0.293 4.38c2 12-7 11-7 11l-36.6 7.6-19 1.65c-41.6-0.469-35.3 46.9-35.3 46.9 0.918 6.38 5.28 11.3 5.28 11.3l4.7 8.22c2.95 5.77-3.45 11.5-3.45 11.5l-4.97 2.59c-3.47 1.61-1.56 10.6-1.56 10.6l1.13 3.35 1.41 5.16c0.273 2.84-2.54 5.59-2.54 5.59-2.3 3.79 0 12.3 0 12.3l0.586 10.7-0.586 5.29s-0.371 5.97-0.371 5.39c0-0.586-0.227 0.571-0.227 0.571l-6.63-0.254c-20.6-0.567-19.9 19.9-19.9 19.9 0.926 8.09 10.8 18.1 10.8 18.1l9.94 17.3 11.7 17.2 13 17.6c4.38 5.67 3.16 17.6 3.16 17.6l-0.136 8.25c-0.137 10.5 3.52 13.5 3.52 13.5l6.46 10.6s5.96 15 6.27 15.5c4.09 6.8 6.8 36 4.75 38.8 2.02-0.969-15.3 8-16.3 12-4.44 27.4 2.95 41.5 2.95 41.5l18.2 15.8 13.6 16.3c17 25.9 33.2 26.5 33.2 26.5 4.48 11.1 19 22.3 19 22.3s15 10.2 42.4 6.08c8.09-0.208 10.6-7.86 10.6-7.86s3.2-23.9 14.9-29.1c15-9.96 23.4 0.965 23.4 0.965 6.06 2.77 8.31-4.3 0.098-6.96-2.3-0.449-8.91-1.25-8.91-1.25-22.1-4.58-28.3 13.1-28.3 13.1l-6.5 16.4c-2.43 10.1-15.3 9.39-15.3 9.39l-17.6-1.17c-4 0.086-7.73-0.695-11.1-2.35-4.97-3.46-9.98-11.7-9.98-11.7l-2.94-4.11-4.69-5.47-4.3-2.92-5.27-2.34s-11.9-4.9-24.3-21.2c-3.66-6.87-8.34-13.4-13.3-19.9l-11.7-8.8c-13.6-10.7-10.4-25.2-10.4-25.2l0.468-12.6c0.371-3.71 6.83-7.31 15.3-10.6 3.44-1.71 4.11-5.87 4.11-5.87l0.586-10.6-1.76-19.4-3.52-14.1-5.28-14.3-5.11-9.74c-3.73-6.98-2.52-13.2-2.52-13.2v-13.4c0.281-8.82-11.2-17.8-11.2-17.8l-9.55-12.2-11.7-20.1-4.11-5.29c-7.02-7.12-16.2-23.6-16.2-23.6 0.43-5.12-3.75-14.4 12.5-13.8 2.93 0.118 13.8 1.19 13.8 1.19 8.86-1.21 15.2-4.98 15.2-4.98 4.27-5.92 11.4-4 13.5-3.32 3.44 1.12 5.18 1.63 1.86 10.5-0.652 1.76-3.03 8.14-3.03 8.14l1.38 1.28s8.48-12.3 9.11-21c-10.3-6.57-15.4-4.58-15.4-4.58l-10.5 4.26-8.12 1.25c-6.92 3.48-2.82 1.25-2.82 1.25 4.38-5.62 0.734-20.6 0.734-20.6l-0.996-5.47s-0.988-3.96 2.88-4.41c2.91-0.344 4.65-0.508 5.46-0.703 1.19-0.281 2.74-1.52 3.18-2.23 4.43-6.74 6.8-4.57 6.8-4.57s5.68 0.281 7.49 0.344c1.5 0.047 3.72-6.01-0.969-6.01-5.49-0.371-8.64-0.43-8.64-0.43-1.48 0.02-6.38 3.68-6.38 3.68-9.88 4.26-15.5-22.1-2.42-18.9 3.31-2.85 5.51-13.1 5.51-13.1 0.019-4.78-10.9-16.8-10.9-16.8s-2.73-5.61-0.637-18.2c1.6-15.2 15-25.8 40.1-25.8 11.9-0.469 30.5-1.77 31.1-1.77 0.586 0 15.7-0.527 17-0.586 36.1-1.59 79.9 37.7 79.9 37.7l33.3 35.2c14.3 12.5 12.9 0.848 12.9 0.848 7.75-2.95-11.4-21.9-11.4-21.9 1.46 0.879-43.1-29.4-43.1-29.4-17.7-11.4-17.9-18.3-17.9-18.3-1.34-13.4-1.58-13.9-1.58-13.9s-19.8-13.3-23.1-12.5c-2.28 0.567 17.3 16.3 17.3 16.3 3.54 7.7-4.93 4.47-6.57 3.86-12.9-8.32-29.7-7.89-29.7-7.89l-0.332-9.88c1.24-17 7.63-28.9 7.63-28.9l8.81-15.3 5.86-12.3c7.81-14.2 9.98-32.9 9.98-32.9l-0.488-47.8" fill-rule="evenodd" fill="#165096"/><path d="m504 328-9.04 0.183 1.3 34.9c0.183 18.6-5.86 33.9-5.86 33.9l-7.04 17-7.05 12.9-6.46 14.1c-3.57 6.6-4.03 14.2-4.03 14.2l0.293 4.38c2 12-7 11-7 11l-36.6 7.6-19 1.65c-41.6-0.469-35.3 46.9-35.3 46.9 0.918 6.38 5.28 11.3 5.28 11.3l4.7 8.22c2.95 5.77-3.45 11.5-3.45 11.5l-4.97 2.59c-3.47 1.61-1.56 10.6-1.56 10.6l1.13 3.35 1.41 5.16c0.273 2.84-2.54 5.59-2.54 5.59-2.3 3.79 0 12.3 0 12.3l0.586 10.7-0.586 5.29s-0.371 5.97-0.371 5.39c0-0.586-0.227 0.571-0.227 0.571l-6.63-0.254c-20.6-0.567-19.9 19.9-19.9 19.9 0.926 8.09 10.8 18.1 10.8 18.1l9.94 17.3 11.7 17.2 13 17.6c4.38 5.67 3.16 17.6 3.16 17.6l-0.136 8.25c-0.137 10.5 3.52 13.5 3.52 13.5l6.46 10.6s5.96 15 6.27 15.5c4.09 6.8 6.8 36 4.75 38.8 2.02-0.969-15.3 8-16.3 12-4.44 27.4 2.95 41.5 2.95 41.5l18.2 15.8 13.6 16.3c17 25.9 33.2 26.5 33.2 26.5 4.48 11.1 19 22.3 19 22.3s15 10.2 42.4 6.08c8.09-0.208 10.6-7.86 10.6-7.86s3.2-23.9 14.9-29.1c15-9.96 23.4 0.965 23.4 0.965 6.06 2.77 8.31-4.3 0.098-6.96-2.3-0.449-8.91-1.25-8.91-1.25-22.1-4.58-28.3 13.1-28.3 13.1l-6.5 16.4c-2.43 10.1-15.3 9.39-15.3 9.39l-17.6-1.17c-4 0.086-7.73-0.695-11.1-2.35-4.97-3.46-9.98-11.7-9.98-11.7l-2.94-4.11-4.69-5.47-4.3-2.92-5.27-2.34s-11.9-4.9-24.3-21.2c-3.66-6.87-8.34-13.4-13.3-19.9l-11.7-8.8c-13.6-10.7-10.4-25.2-10.4-25.2l0.468-12.6c0.371-3.71 6.83-7.31 15.3-10.6 3.44-1.71 4.11-5.87 4.11-5.87l0.586-10.6-1.76-19.4-3.52-14.1-5.28-14.3-5.11-9.74c-3.73-6.98-2.52-13.2-2.52-13.2v-13.4c0.281-8.82-11.2-17.8-11.2-17.8l-9.55-12.2-11.7-20.1-4.11-5.29c-7.02-7.12-16.2-23.6-16.2-23.6 0.43-5.12-3.75-14.4 12.5-13.8 2.93 0.118 13.8 1.19 13.8 1.19 8.86-1.21 15.2-4.98 15.2-4.98 4.27-5.92 11.4-4 13.5-3.32 3.44 1.12 5.18 1.63 1.86 10.5-0.652 1.76-3.03 8.14-3.03 8.14l1.38 1.28s8.48-12.3 9.11-21c-10.3-6.57-15.4-4.58-15.4-4.58l-10.5 4.26-8.12 1.25c-6.92 3.48-2.82 1.25-2.82 1.25 4.38-5.62 0.734-20.6 0.734-20.6l-0.996-5.47s-0.988-3.96 2.88-4.41c2.91-0.344 4.65-0.508 5.46-0.703 1.19-0.281 2.74-1.52 3.18-2.23 4.43-6.74 6.8-4.57 6.8-4.57s5.68 0.281 7.49 0.344c1.5 0.047 3.72-6.01-0.969-6.01-5.49-0.371-8.64-0.43-8.64-0.43-1.48 0.02-6.38 3.68-6.38 3.68-9.88 4.26-15.5-22.1-2.42-18.9 3.31-2.85 5.51-13.1 5.51-13.1 0.019-4.78-10.9-16.8-10.9-16.8s-2.73-5.61-0.637-18.2c1.6-15.2 15-25.8 40.1-25.8 11.9-0.469 30.5-1.77 31.1-1.77 0.586 0 15.7-0.527 17-0.586 36.1-1.59 79.9 37.7 79.9 37.7l33.3 35.2c14.3 12.5 12.9 0.848 12.9 0.848 7.75-2.95-11.4-21.9-11.4-21.9 1.46 0.879-43.1-29.4-43.1-29.4-17.7-11.4-17.9-18.3-17.9-18.3-1.34-13.4-1.58-13.9-1.58-13.9s-19.8-13.3-23.1-12.5c-2.28 0.567 17.3 16.3 17.3 16.3 3.54 7.7-4.93 4.47-6.57 3.86-12.9-8.32-29.7-7.89-29.7-7.89l-0.332-9.88c1.24-17 7.63-28.9 7.63-28.9l8.81-15.3 5.86-12.3c7.81-14.2 9.98-32.9 9.98-32.9l-0.488-47.8z" stroke="#165096" stroke-miterlimit="3.86" stroke-width="7.5" fill="none"/><path d="m617 823c-1.52-2.98 5.27-8.93 5.27-8.93 0.996-1.38 10-12.5 10-12.5s8.51-7.5 7.26-21.8c1.48-13-3.5-14.9-5.94-21.9-0.461-7.78 3.48-23 3.48-23 1.97-4.63 7.09-33.2 7.09-33.2s1.98-27.8 3.3-27.8c1.88-2.19 13.8-2.63 35.7-1.32 15.1-7.05 13.9-24.9 15.3-24.9 1.32 0 5.2 1.81 5.2 1.81l2.75 6.6c1.47 2.77 2.25 7.01 2.25 7.01-5.86 1.78-8.54 4.88-8.54 4.88-2.46 3.55-1.31 8.71-1.31 8.71 0.801 5.02-8.81 4.19-8.81 4.19-33.3-3.71-35.3-0.468-35.3-0.468-2.66 3.37-8 47.8-8 47.8l-5.72 23.7c-0.078 7.45 5.25 17.2 5.25 17.2 2.09 9.16 0.117 22.6 0.117 22.6-3.48 9.85-13.3 20.4-13.3 20.4-6.41 6.39-5.59 9.88-5.59 9.88 12.1 25.5 14.5 42.7 14.5 42.7l1.67 14.2c-2.01 17.9-7.27 19.8-7.27 19.8-2.4 1.98-10.6 4.62-10.6 4.62-8.44 2.81-20.1 3.39-23.2 3.3-3.65 0.32-12.5-1.32-12.5-1.32-3.96-0.676-8.57-2.65-8.57-2.65s-5.97-2.87-0.489-3.15c1.32-0.071 17 2.5 21 1.84 3.96-0.657 13.5-0.774 28.2-7.03 12.3-3.7 4.24-33.9 4.24-33.9l-17.2-37.4" fill="#165096"/><path d="m617 823c-1.52-2.98 5.27-8.93 5.27-8.93 0.996-1.38 10-12.5 10-12.5s8.51-7.5 7.26-21.8c1.48-13-3.5-14.9-5.94-21.9-0.461-7.78 3.48-23 3.48-23 1.97-4.63 7.09-33.2 7.09-33.2s1.98-27.8 3.3-27.8c1.88-2.19 13.8-2.63 35.7-1.32 15.1-7.05 13.9-24.9 15.3-24.9 1.32 0 5.2 1.81 5.2 1.81l2.75 6.6c1.47 2.77 2.25 7.01 2.25 7.01-5.86 1.78-8.54 4.88-8.54 4.88-2.46 3.55-1.31 8.71-1.31 8.71 0.801 5.02-8.81 4.19-8.81 4.19-33.3-3.71-35.3-0.468-35.3-0.468-2.66 3.37-8 47.8-8 47.8l-5.72 23.7c-0.078 7.45 5.25 17.2 5.25 17.2 2.09 9.16 0.117 22.6 0.117 22.6-3.48 9.85-13.3 20.4-13.3 20.4-6.41 6.39-5.59 9.88-5.59 9.88 12.1 25.5 14.5 42.7 14.5 42.7l1.67 14.2c-2.01 17.9-7.27 19.8-7.27 19.8-2.4 1.98-10.6 4.62-10.6 4.62-8.44 2.81-20.1 3.39-23.2 3.3-3.65 0.32-12.5-1.32-12.5-1.32-3.96-0.676-8.57-2.65-8.57-2.65s-5.97-2.87-0.489-3.15c1.32-0.071 17 2.5 21 1.84 3.96-0.657 13.5-0.774 28.2-7.03 12.3-3.7 4.24-33.9 4.24-33.9l-17.2-37.4z" stroke="#165096" stroke-miterlimit="3.86" stroke-width="7.5" fill="none"/><path d="m660 504-25.7-32.3-34.8-51.9-20.5-41.3-26.5-94.1h12.5c8.75 76.2 52.1 148 52.1 148l38.9 52.1 46.1 57.8 38.3 36.7s43.8 33.1 47.8 36.5c2.95 6.46 7.21-10.3 7.21-10.3 4.17-8.12 6.13-11.5 6.13-11.5 6.63-21.1-0.488-20.1-0.488-20.1-14.7-1.98-21.2-12.9-21.2-12.9-10.2-16-4.65-34.9-4.65-34.9-20.9 2.24-26.9-13.5-26.9-13.5-12.4-23.6-2.56-46.6-2.56-46.6s3.08-15.4 2.41-26.6c-0.078-1.48-0.657-16.9 5.71-20.4 5.71-4.17 10.5-5.05 10.5-5.05s3.5-7.02 8.79-7.69c10.4-1.32 17.2 12.3 17.8 13 0.664 0.652 12.3 11.2 12.3 11.2s6.59 4.39 15.6 2.2c1.09-0.223 12.5 0.656 12.5 0.656 12.1 0.664 16.2 12.5 16.2 12.5s0.879-29 20.7-34.9c-1.97-2.64-1.69-7.89-1.69-7.89-3.84-16.3 8.07-24.2 8.07-24.2 25.7-15.6 51.6-0.664 51.6-0.664 15.5 8.81 16.3 30.5 16.3 30.5 1.88 17.6-0.227 27.9-0.227 27.9-14.3 22.7 0.442 38.5 0.442 38.5 4.89 4.41 8.14 13 9.78 25.8 1.9 21-8.86 28.5-8.86 28.5-7.22 5.88-5.1 12.4-5.1 12.4l2.2 25.6c0.223 12.7-5.27 23.3-5.27 23.3-1.76 5.93-11.4 10.3-11.4 10.3-7.03 1.54-17.4 1.32-17.4 1.32-22-1.32-20.5-5.43-23-4.48-1.64 0.625 3.09 5.47 1.74 12.9-6.54 11.9-2.98 19.1-2.98 19.1l11.3 15.9c15.7 27.9 13.1 61.8 13.1 61.8-4.06 59.1-15.3 90.5-15.3 90.5-16.2 52.5-40.9 99.2-40.9 99.2-31.9 51.4-101 60.8-101 60.8-33.8 6.88-92 4.38-92 4.38-30.2-2.34-47.2-9.84-47.2-9.84s-26.6-10.3-37.7-28c-0.351-0.559-3.81-9.27-2.64-9.9 3.07-1.69 2.64-3.96 2.64-3.96 0.891-2.84-2.64-6.48-2.64-6.48l-8.28-12.8s-4.19-6.8-8.58-21.8c0.098-0.183-5.6-14.3-5.6-14.3-2.41-9.88-5.12-19.1-5.12-19.1-0.793-1.15-10.8-21.9-10.8-21.9-2.96-15.6-8.46-21.7-8.46-21.7l-39.9-62c-4.7-8.71-5.03-17-3.96-20.2 1.41-4.14 2.44-6.02 6.41-6.02 3.96 0 12.3-0.84 15-0.781 7.19 0.156 7.58-5.62 7.58-5.62s0.203-18.4 0.391-19.8c0.234-1.88 0.547-11 0.547-11s-0.469-5.86 7.19-8.83c0.234-0.387 1.41-1.8-1.28-6.01-0.594-1.33-2.47-11.8-2.16-12.7 0.39-1.09 0.175-2.57 2.89-3.75 8.36-3.59 8.28-9.6 8.28-9.6 1.56-3.53-7.03-18.3-7.03-18.3-4.84-7.69-2.73-30.4-2.5-31.8 2.97-18.4 24-23.2 24-23.2 21.2-0.938 33.2-0.293 33.2-0.293l24.9 2.34c7.42 0.703 7.63-12.3 7.63-12.3l19.4-85.5c6.55 9.66 6.13 9.28 6.13 9.28l-3.63 19.1-10.9 49.9c-4.3 23.6-4.02 16.9-4.02 19.5 0 2.64 8.48 3.5 8.48 3.5 57.8 9.94 63.6 28 66.2 31.8 9.36 16.4 24.6 64.1 24.6 64.1s4.97 6.12 9.45 7.42c5.94 1.71 11.6-1.72 11.6-1.72 2.58-1.48 8.83-8.67 8.83-8.67 3.98-2.9 12.9-5.62 12.9-5.62 3.75-0.859 17-6.48 18.4-6.95 1.26-0.395 5.48-3.79 6.72-4.77 1.14-0.894 14.7-4.39 14.7-4.39-2.68 5.55-1.27 6.43-12.3 14.8-1.67 1.26-29.3 10.3-29.3 10.3-7.11 4.07-11.1 8.11-12.6 9.3-9.76 8.12-14.9 9.45-14.9 9.45-10 1.72-22.4-14.5-22.4-14.5l-4-6c1.11-10.8-18-51.6-18-51.6-2.81-5.32-4.09-14.9-18.7-17.7-12.3-4.68-19.8-6.73-34.4-9.36-24.6-5.56-41.8-5.56-41.8-5.56l-29.7-0.59c-51.3-1.4-32.4 39.4-32.4 39.4l4.63 11.2c1.2 3.24 3.48 1.66 6.11 1.54 7.74-0.332 1.27 6.5 1.27 6.5-2.94 3.1-6.95 10.3-0.657 16.1 0.157 1.64-3.11 1.09-3.11 1.09-6.6-4.33-9.69-0.559-9.69-0.559-3.98 6.07 1.76 9.7 1.76 9.7s3.26 3.63 15.5 0.332c2.85-0.773 9.91 0.008 9.91 0.008 5.04 0.91 4.93 4.91 4.93 4.91-6.57 4.73-4.98 4.36-8.16 5.82-1.66 0.757-3.06-8.79-13.7-1.29-5.62 5.39-6.56 4.78-7.23 4.78-6.12 0-6.91-1.81-8.59 4.96l-0.547 24.5 0.242 7.23 11-1.42c6.66-2.34 10.3-1.42 10.3-1.42-2.34-0.899 11.3 1.21 6.45 12.9-3.01-7.24-17.6-3.12-17.6-3.12-10.5 7.63-25.2 3.92-25.2 3.92-18.7-2.71-10.2 11.4-10.2 11.4l17.9 28.3s19.5 27.2 29.9 44.9c2.33 19.1 5.69 26.4 5.69 26.4 7.67 8.51 9.82 15.9 10 16.5 10.4 34.5 12.1 41.3 12.1 41.3 1.43 5.84 8.5 17.2 16.5 18.6-6.84 7.02-5.18 21.7-0.254 25.4 3.78 4.96 14.1 12 14.1 12 2.5 1.88 30.9 15.3 63.1 16.4 31.1 1.07 57.5-0.468 79.5-3.12 19.6-2.36 71.7-25.2 71.7-25.2 15.9-8.04 28.3-26.2 28.3-26.2 10-10.6 31.1-59.8 31.1-59.8s15.4-52.5 16.1-52.5c0.653 0 11.5-35.9 13.4-95.5-2.36-39.6-21.5-50.8-21.5-50.9-2.97-5.94-2.88-9.91-2.88-9.91-0.398-6.34 0.657-10.6 0.657-10.6 4.83-10.3 3.68-15.2 3.68-15.2 0.618-1.37-3.68-9.99-3.68-9.99s-1.52-6.51 10.9-4.47c2.61 0.422 11.1 2.32 11.1 2.32 18.9 2.33 32.6 1.07 36.8-22 0 0-5.3-20.1-3.29-37.6 17-19 14.2-35.9 14.2-36.5 0-0.664 0.156-2.32-6.54-10.8-0.41-0.52-10.8-17.8-10.8-17.8-4.3-18.2 1.96-30 1.96-30 6.19-10.1 3.09-31.8 3.09-31.8-7.6-39.2-78-33.2-58.2 7.03-16.7 11.5-17.9 21.7-17.9 21.7l-8.73 25.1-14.6-14.4c-5.62-7.03-19.1-7.03-19.1-7.03l-19.6 1.54s1.6-9.7-8.24-15.3c-13.6-17.7-20.4-6.46-20.4-6.46-14.9 9.84-12.7 45.7-12.7 45.7-12.9 15.7-1.09 35.6-1.09 35.6 3.61 22.3 27.8 21.7 27.8 21.7s-0.086 9.91 0 14.8c0.156 8.11 5.32 19.1 5.32 19.1 7.84 9.07 15.2 10.3 15.2 10.3 13.4 0.656 10.1 13.8 10.1 13.8l-3.35 15.3-6 22.2c-1.44 4.13-8.55 13.2-8.55 13.2l-7.95-5.19-44.4-34c-35.1-27.2-81.1-85.9-81.1-85.9" fill-rule="evenodd" fill="#165096"/><path d="m424 856c-0.371-0.324-0.711-0.578-1.02-0.774-8.04-5.41-13-16.4-13-16.4l-1.56-12.8c2.21-4.96 8.17-0.449 8.17-0.449 0.078 0 1.17 8.23 4.59 12.3 2.3 3.89 8.31 9.1 20.2 12.1 5.41 1.03 7.68 2.01 8.41 1.87 6.29-1.2 2.51-5.92 2.51-5.92-1.18-0.813-12.8-3.32-12.8-3.32-13.7-2.28-16.2-16-16.2-16-0.469-12-6.72-20.7-6.72-20.7-2.49 12.1-9.78 15.7-9.78 15.7-1.86 4.36-2.11 8.65-2.11 8.65 0.254 11.3 4.17 20.4 7.12 25.6l12.1-0.008zm46.6 0c-4.8-9.97-9.86-4.39-12.5-0.063l12.5 0.063zm44.5 0c-4.42-2.62-7.48-3.14-7.48-3.14l-22.9-5.93s-0.703-1.41-0.468-1.65c0.234-0.234 4.76-13.6 22.5-1.9 0.488 0.293 9.25 7.07 16.4 12.6l27.3-0.015c-1.77-5.06-3.77-10.7-3.77-10.7 3.89 2.9-15.6-10.4-15.6-10.4l-8.42-5.27c-14-10.9-29.5-7.98-29.5-7.98-7.41 0.07-11.8 4.02-11.8 4.02l-2.61 1.89c12.6-2.05 22.9-2.81 30.1 0.969 0.476 0 20.6 8.9 32.3 23.9-0.293 5.76-10.9 1.89-10.9 1.89l-7.1-3.78c-5.66-1.99-23.1-17.2-23.1-17.2-2.8-2.18-6.84-0.625-6.84-0.625-6.23 8.09-16.7 9.59-16.7 9.59l-7.57-0.481c-7.18-2.26-5.93 1.78-5.93 1.78s3.73 5.29 27.1 9.96c5.69 0.871 9.99 1.7 13.2 2.49l11.5 0.031" fill-rule="evenodd" fill="#165096"/><path d="m507 906c-3.91-0.703-7.1-1.99-8.2-2.99-0.567 0-13.4-7.18-18.6-13.9 0 0-13-14.6-13.7-21.4 0 0-0.195-2.54 1.97-3.39 0 0 1.65-0.305 1.99-0.176 1.41 1.41 8.61 16.6 13.6 20.5 0 0 18.6 15.6 31.6 9.31l10.1-7.18s3.1-1.85 5.09-1.95c0 0 6.54-0.351 11.7 1.29 0 0 6.98 1.04 1.08 4.18l-3.39 1.42-3.11 1.12c-2.93 0.813-7.2 4.04-12.6 10.2 0 0-3.54 2.15-6.31 2.92l14.2 0.071c4.51-4.93 9.43-7.7 9.77-7.7 0.441 0 8.07-2.34 17.7 7.68l12.7 0.012c-0.305-0.403-0.637-0.813-1.02-1.25l-10.4-5.27s-8.01-4.97-8.52-9.94c0.664-6.36 9.51-0.156 9.51-0.156 3.06-8.2-4.32-12.4-4.32-12.4-2.93 1.66-14.4 0.242-14.4 0.242-8.96-2.28-15.9-10.2-15.9-10.2-4.45-5.58-8.93-9.02-12.5-11.1l-11.5 0.039c10.9 2.6 10.2 4.85 11.2 7.18 0 0 0.938 2.66-2.32 1.74-0.711-0.207-12.1-2.13-13-2.13-0.949 0-2.61-0.239-2.61-0.239s7.78 5.55 27.7 6.8c3.42 5.6 2.8 4.67-0.957 6.94 0 0-8.03 2.21-12.1 0.945-8.14-1.71-14.2-7.81-14.2-7.81l-8.53-7.1-9.07-5.43s1.37 4.08 1.55 4.37c5.29 7.78 20.8 16.4 20.8 16.4l9 3.56c5.6 6.46-7.81 5.21-7.81 5.21-15.7 0.007-27-17.8-27-17.8s-4.77-11.6-5.44-12.3c-0.07-0.148-0.137-0.293-0.207-0.441l-12.5 0.031c-1.11 1.8-1.78 3.42-1.78 3.48 0 0.235-3.07 2.13-3.54 2.13-0.481 0-4.27 0.945-4.27 0.945-15.4 1.09-21.3-4.14-24.5-6.59l-12.1 0.031c1.78 3.15 3.21 4.91 3.3 4.91 5.26 4.22 8.52 7.27 13.7 8.52 0 0 8.18 3.27 29.1 1.89 4.14 3.18-0.234 5.92-0.234 5.92s-11.1 3.57-33.4 0.945c-3.67-0.933-5.3 2.08-5.3 2.08-0.246 0.723 9.4 13.7 9.86 13.7 0.477 0 21.5 5.32 42 0.617 11.3-2.59 6.66 7.23 5.55 7.51-0.907 1.49-6.15 2.93-11 4l41.5-0.066zm16.2-50l9.34 7.26c6.64 3.6 20.6 0.946 20.6 0.946 0.098-0.157-1.18-3.98-2.62-8.14l-27.3-0.066zm-94.6 26.8c9.09 0.339 13 1.13 13 1.13 6.58 0.696 16.1-1.69 16.1-1.69 2.98-1.06 9.04-1.14 9.04-1.14 6.21 1.25 2.25 6.78 2.25 6.78-8.31 5.88-21.5 5.08-21.5 5.08-16.2 0.488-21.2-7.9-21.2-7.9-0.593-0.476-0.593-2.55 2.27-2.26" fill-rule="evenodd" fill="#165096"/><path d="m465 906c-4.65 1.07-8.98 1.73-8.98 1.73-0.789-0.105 10.7 5.11 31.6-1.38 3.98-1.24 3.91 4.13 3.91 4.13-0.652 4.02-10.7 9.14-10.1 8.42-12.4 3.58-24.4 1.91-24.4 1.91l16.1 18.9s3.92 0.688 4.39 0.688c0.469 0 8.62 1.64 15.3-0.246 6.42-1.82 14.6-15.8 14.6-15.8l4.11-5.7c7.73-12.4 5.62 0.207 5.62 0.207s-0.703 3.31-0.938 3.78c-3.25 10.9-8.18 17.1-11.4 21.8-2.46 3.57-11.9 4.23-11.9 4.23-19.2-2.11 9.27 6.33 17.6 2.16 0.464-0.239 4.26-6.16 4.26-6.16l12.1-31.5c1.39-2.76 3.23-5.2 5.14-7.27l-14.2 0.051c-0.32 0.015-0.633 0.097-0.937 0.144-3.43 0.684-7.16 0.481-10.4-0.129l-41.5-0.015zm94.4 0c0.73 0.75 1.46 1.57 2.22 2.48 2.45 2.83 3.08 3.79 3.08 3.79 5.43 0.793 12.8 0.774 7.42-6.26h-12.7zm-84.6 22.1c1.1-0.286 3.68-0.129 3.68-0.129 16.8-1.22 18-11.5 18-11.5 0.457-2.27 8.19-10.3 7.98 4.13-3.6 14.7-20.3 14.4-20.3 14.4-6.82-0.047-9.97-3.1-9.97-3.1s-1.46-2.78 0.644-3.83" fill-rule="evenodd" fill="#165096"/><path d="m408 692c4.22 0 6.72 0.313 10 0.781 0.156 1.88 0.996 13.6 0.996 13.6v6.06l1.02 5.05 3.03 3.54s2.02 2.02 4.04 2.02 6.06-0.496 6.06-0.496l7.08-0.508 5.05-2.53 9.27-3.65 6.18-8.68 1.65-2.92 4.32-1.78c1-0.312 4.9-1.75 4.9-1.75-0.988 1.16-10.4 16.5-11.8 18.2 0 0-2.7 2.18-3.77 1.9-3.7 1.8-6.12 1.91-6.12 1.91l-8.09 3.54-5.56 3.03-5.89 1.04h-5.79l-5.68-0.371-6.06-0.723-1.72-2.5 2.03-5.94 1.09-4.39v-11.1l-1.72-6.41-4.53-6.89" fill="#165096"/><path d="m408 692c4.22 0 6.72 0.313 10 0.781 0.156 1.88 0.996 13.6 0.996 13.6v6.06l1.02 5.05 3.03 3.54s2.02 2.02 4.04 2.02 6.06-0.496 6.06-0.496l7.08-0.508 5.05-2.53 9.27-3.65 6.18-8.68 1.65-2.92 4.32-1.78c1-0.312 4.9-1.75 4.9-1.75-0.988 1.16-10.4 16.5-11.8 18.2 0 0-2.7 2.18-3.77 1.9-3.7 1.8-6.12 1.91-6.12 1.91l-8.09 3.54-5.56 3.03-5.89 1.04h-5.79l-5.68-0.371-6.06-0.723-1.72-2.5 2.03-5.94 1.09-4.39v-11.1l-1.72-6.41-4.53-6.89z" stroke="#165096" stroke-miterlimit="3.86" stroke-width="1.42" fill="none"/><path d="m430 684 4.2-0.008s2.22 0.164 2.73 0.164h4.42c0.852 0 4.26 1.37 4.6 1.37s6.99 4.29 6.99 4.29l1.43 1.91-0.926 2.68-1.54 3.71s-2.38 1.71-2.9 1.88c-0.515 0.176-2.72 1.5-2.72 1.5l-2.38 1.88-3.24 2.04-2.72 2.04-1.87 1.54-3.24 1.02-1.19 0.168-0.847 0.34-1.7-0.34-1.37-0.852 0.254-1.28 0.684-1.03 1.7-0.684 1.88-0.852 2.22-0.847 2.73-1.37 2.55-1.02 2.05-1.67 1.7-2.12 1.04-2.32-3.18-1.31-2.24 0.176-1.32 1.91-1.19 0.851-1.37 1.53-1.53 0.859-1.19 0.344-2.38-0.18-2-1.02-0.215-1.86 0.344-1.88 0.254-3.08s1.8-0.168 2.14-0.168c0.343 0 2.38-0.332 2.38-0.332l2.21 0.512s1.03 0.508 1.37 0.508c0.343 0 1.91 0.437 2.41 0.437 0.508 0 2.38-0.34 2.38-0.34l2.49-1.96-0.34-2.21-2.7-1.39h-1.71l-2.72-0.684-2.21-0.34-3.69-0.332-1.35-1.17 0.848-1.03" fill="#165096"/><path d="m430 684 4.2-0.008s2.22 0.164 2.73 0.164h4.42c0.852 0 4.26 1.37 4.6 1.37s6.99 4.29 6.99 4.29l1.43 1.91-0.926 2.68-1.54 3.71s-2.38 1.71-2.9 1.88c-0.515 0.176-2.72 1.5-2.72 1.5l-2.38 1.88-3.24 2.04-2.72 2.04-1.87 1.54-3.24 1.02-1.19 0.168-0.847 0.34-1.7-0.34-1.37-0.852 0.254-1.28 0.684-1.03 1.7-0.684 1.88-0.852 2.22-0.847 2.73-1.37 2.55-1.02 2.05-1.67 1.7-2.12 1.04-2.32-3.18-1.31-2.24 0.176-1.32 1.91-1.19 0.851-1.37 1.53-1.53 0.859-1.19 0.344-2.38-0.18-2-1.02-0.215-1.86 0.344-1.88 0.254-3.08s1.8-0.168 2.14-0.168c0.343 0 2.38-0.332 2.38-0.332l2.21 0.512s1.03 0.508 1.37 0.508c0.343 0 1.91 0.437 2.41 0.437 0.508 0 2.38-0.34 2.38-0.34l2.49-1.96-0.34-2.21-2.7-1.39h-1.71l-2.72-0.684-2.21-0.34-3.69-0.332-1.35-1.17 0.848-1.03z" stroke="#165096" stroke-miterlimit="3.86" stroke-width="1.42" fill="none"/><path d="m433 677 0.344-2.38 1.02-1.88 1.7-1.37 1.37-0.508 2.38-0.34 2.56 0.848 1.52 1.71 0.683 1.19-0.344 1.19s0.864 0.508-1.19 0.508c-2.04 0-3.23-0.164-3.23-0.164l-2.38 0.344-1.19 0.672-1.37 0.344h-1.53l-0.344-0.168" fill="#165096"/><path d="m433 677 0.344-2.38 1.02-1.88 1.7-1.37 1.37-0.508 2.38-0.34 2.56 0.848 1.52 1.71 0.683 1.19-0.344 1.19s0.864 0.508-1.19 0.508c-2.04 0-3.23-0.164-3.23-0.164l-2.38 0.344-1.19 0.672-1.37 0.344h-1.53l-0.344-0.168z" stroke="#165096" stroke-miterlimit="3.86" stroke-width="1.42" fill="none"/><path d="m778 638-4.55-3.54-4.05-3.04-6.08-4.05-8.1-5.57-7.59-6.1-8.11-7.09-9.11-7.09-8.09-5.57-7.12-6.07-5.06-4.56c-2.06-0.774-4.56-1.02-4.56-1.02-1.09 0.148-0.781 1.94-0.781 1.94 1.5 1.4 3 2.43 3 2.43l4.88 3.73 6.1 4.04 6.08 4.56 7.09 5.57 5.57 4.55 6.58 5.57 5.57 5.09 7.59 6.58 9.62 9.62 3.55 5.06 3.04 2.02h3.54l2.54-1.52-1.52-5.57" fill="#165096"/><path d="m778 638-4.55-3.54-4.05-3.04-6.08-4.05-8.1-5.57-7.59-6.1-8.11-7.09-9.11-7.09-8.09-5.57-7.12-6.07-5.06-4.56c-2.06-0.774-4.56-1.02-4.56-1.02-1.09 0.148-0.781 1.94-0.781 1.94 1.5 1.4 3 2.43 3 2.43l4.88 3.73 6.1 4.04 6.08 4.56 7.09 5.57 5.57 4.55 6.58 5.57 5.57 5.09 7.59 6.58 9.62 9.62 3.55 5.06 3.04 2.02h3.54l2.54-1.52-1.52-5.57z" stroke="#165096" stroke-miterlimit="3.86" stroke-width="1.42" fill="none"/><path d="m733 594c0.976-0.813 0.402-1.98 0.402-1.98l-3.04-4.05-20.4-16.3-4.9-3.96-5.57-4.55-4.55-4.06-3.04-2.53c-0.867-0.703-1.71-0.703-2.53 0-0.039 1.43 2.02 3.04 2.02 3.04 0.91 0.937 7.6 5.56 7.6 5.56l6.57 5.57 6.58 5.05 8.64 6.58 4.55 3.55 3.55 3.54 1.51 1.76c1.58 3.6 2.64 2.75 2.64 2.75" fill="#165096"/><path d="m733 594c0.976-0.813 0.402-1.98 0.402-1.98l-3.04-4.05-20.4-16.3-4.9-3.96-5.57-4.55-4.55-4.06-3.04-2.53c-0.867-0.703-1.71-0.703-2.53 0-0.039 1.43 2.02 3.04 2.02 3.04 0.91 0.937 7.6 5.56 7.6 5.56l6.57 5.57 6.58 5.05 8.64 6.58 4.55 3.55 3.55 3.54 1.51 1.76c1.58 3.6 2.64 2.75 2.64 2.75z" stroke="#165096" stroke-miterlimit="3.86" stroke-width="1.42" fill="none"/><path d="m762 646-1.16-1.48-1.27-1.48-4.02-3.59-4.23-3.49-4.97-4.13-3.28-2.75-4.13-3.92-4.34-3.81-3.7-3.59-2.65-2.33-2.54-2.33-2.97-2.64-2.01-1.48-1.9-0.839-2.01 0.312-0.422 1.48 1.59 1.91 3.7 2.96 3.59 2.86 4.44 4.12 4.55 4.45 4.34 4.54 4.55 4.55 4.65 4.35 4.44 4.54 3.39 4.35 1.59 0.313h1.9l1.27-0.637 1.58-2.22" fill="#165096"/><path d="m762 646-1.16-1.48-1.27-1.48-4.02-3.59-4.23-3.49-4.97-4.13-3.28-2.75-4.13-3.92-4.34-3.81-3.7-3.59-2.65-2.33-2.54-2.33-2.97-2.64-2.01-1.48-1.9-0.839-2.01 0.312-0.422 1.48 1.59 1.91 3.7 2.96 3.59 2.86 4.44 4.12 4.55 4.45 4.34 4.54 4.55 4.55 4.65 4.35 4.44 4.54 3.39 4.35 1.59 0.313h1.9l1.27-0.637 1.58-2.22z" stroke="#165096" stroke-miterlimit="3.86" stroke-width="1.42" fill="none"/><path d="m750 651-2.32-1.38-1.7-2.23-2.22-2.22-1.59-1.8-2.85-2.86-1.8-1.9-1.91-2.22-2.43-2.64-1.69-1.7-0.957-1.05-1.48-1.16c-1.73-1.22-2.85-0.324-2.85-0.324-0.399 1.72 1.38 3.18 1.38 3.18l1.38 2.01 1.91 2.12 1.9 1.9 2.75 2.96 2.32 2.86 1.8 2.01 1.38 1.69 1.8 1.59 0.215 1.37-0.422 1.59s1.48 0.418 1.69 0.418c0.214 0 1.8-0.207 1.8-0.207l1.06-0.32 1.26-0.313 1.59-1.38" fill="#165096"/><path d="m750 651-2.32-1.38-1.7-2.23-2.22-2.22-1.59-1.8-2.85-2.86-1.8-1.9-1.91-2.22-2.43-2.64-1.69-1.7-0.957-1.05-1.48-1.16c-1.73-1.22-2.85-0.324-2.85-0.324-0.399 1.72 1.38 3.18 1.38 3.18l1.38 2.01 1.91 2.12 1.9 1.9 2.75 2.96 2.32 2.86 1.8 2.01 1.38 1.69 1.8 1.59 0.215 1.37-0.422 1.59s1.48 0.418 1.69 0.418c0.214 0 1.8-0.207 1.8-0.207l1.06-0.32 1.26-0.313 1.59-1.38z" stroke="#165096" stroke-miterlimit="3.86" stroke-width="1.42" fill="none"/><path d="m702 657-3.91-1.72-5.79-9.22-11.2-20.1-18.5-26c-6.72-11.4-14-14.3-14-14.3-4.22-0.781-15.7-3.7-15.7-3.7l11.8 8.7c7.07 3.69 17.5 16.2 17.5 16.2l8.44 10.5 6.71 9.38 5.16 8.12 6.09 9.83c1.26 0.918 5.62 19.2 5.62 19.2l2.66-0.473 2.19-1.88 1.71-2.03 1.26-2.5" fill-rule="evenodd" fill="#165096"/><path d="m702 657-3.91-1.72-5.79-9.22-11.2-20.1-18.5-26c-6.72-11.4-14-14.3-14-14.3-4.22-0.781-15.7-3.7-15.7-3.7l11.8 8.7c7.07 3.69 17.5 16.2 17.5 16.2l8.44 10.5 6.71 9.38 5.16 8.12 6.09 9.83c1.26 0.918 5.62 19.2 5.62 19.2l2.66-0.473 2.19-1.88 1.71-2.03 1.26-2.5z" stroke="#165096" stroke-miterlimit="3.86" stroke-width="1.42" fill="none"/><path d="m694 666-1.88-2.96-5.62-7.34-3.75-5.62-5.47-8.12-4.84-6.09-4.69-5.47-4.69-6.09-5.78-6.41-5.78-6.25-5.16-5.32-5.31-5.32-5.31-5-4.53-4.38-11.2-11.7-7.02-0.879 8.87 8.53 4.84 4.53 7.97 6.88 4.69 4.37 5.47 4.84 3.28 3.44 2.66 2.97 4.22 4.69 4.53 5.47 3.75 5.16 6.56 8.44 4.06 4.84 6.87 10.5 7.2 12.2 2.5 5 3.75-2.35-0.156-2.5" fill="#165096"/><path d="m694 666-1.88-2.96-5.62-7.34-3.75-5.62-5.47-8.12-4.84-6.09-4.69-5.47-4.69-6.09-5.78-6.41-5.78-6.25-5.16-5.32-5.31-5.32-5.31-5-4.53-4.38-11.2-11.7-7.02-0.879 8.87 8.53 4.84 4.53 7.97 6.88 4.69 4.37 5.47 4.84 3.28 3.44 2.66 2.97 4.22 4.69 4.53 5.47 3.75 5.16 6.56 8.44 4.06 4.84 6.87 10.5 7.2 12.2 2.5 5 3.75-2.35-0.156-2.5z" stroke="#165096" stroke-miterlimit="3.86" stroke-width="1.42" fill="none"/><path d="m685 676-2.65-4.06-2.51-4.38-5.93-7.5-7.2-8.6-10.9-13.9-7.03-8.29-4.69-5.62-10.2-11.6-4.38-4.54-9.69-9.52-4.84-4.85-7.81-7.03c-11-8-15-8-15-8-4.49-0.586-8.77-0.586-8.77-0.586s4.91 3.55 5.22 3.55c0.313 0 3.75 1.57 3.75 1.57l4.06 2.35 4.69 3.27 5.94 4.53 4.69 4.38 10.6 10.3 6.88 6.72 5.94 6.41 8.28 9.38 8.12 9.22 6.25 7.8 11.4 14.7 11.2 16.4s0.957 1.89 1.2 2.08c5.25 4.02 4.34-2.03 4.34-2.03" fill="#165096"/><path d="m685 676-2.65-4.06-2.51-4.38-5.93-7.5-7.2-8.6-10.9-13.9-7.03-8.29-4.69-5.62-10.2-11.6-4.38-4.54-9.69-9.52-4.84-4.85-7.81-7.03c-11-8-15-8-15-8-4.49-0.586-8.77-0.586-8.77-0.586s4.91 3.55 5.22 3.55c0.313 0 3.75 1.57 3.75 1.57l4.06 2.35 4.69 3.27 5.94 4.53 4.69 4.38 10.6 10.3 6.88 6.72 5.94 6.41 8.28 9.38 8.12 9.22 6.25 7.8 11.4 14.7 11.2 16.4s0.957 1.89 1.2 2.08c5.25 4.02 4.34-2.03 4.34-2.03z" stroke="#165096" stroke-miterlimit="3.86" stroke-width="1.42" fill="none"/><path d="m594 596-3.73-2.53-5-3.44-5.85-2.97-4.31-2.03-3.75-1.56-5.08-1.93-6.84-1.62-9.22-0.872-6.91-0.386s-9.88-2.38-0.235-3.95c0.461-0.07 5.62 0.313 5.62 0.313l7.34 0.789c7.38 0.305 15.8 3.9 16.1 3.9 0.312 0 10 4.07 10 4.07l16.1 10.6 12.4 11.2c2.5 4.69-16.6-9.64-16.6-9.64" fill="#165096"/><path d="m594 596-3.73-2.53-5-3.44-5.85-2.97-4.31-2.03-3.75-1.56-5.08-1.93-6.84-1.62-9.22-0.872-6.91-0.386s-9.88-2.38-0.235-3.95c0.461-0.07 5.62 0.313 5.62 0.313l7.34 0.789c7.38 0.305 15.8 3.9 16.1 3.9 0.312 0 10 4.07 10 4.07l16.1 10.6 12.4 11.2c2.5 4.69-16.6-9.64-16.6-9.64z" stroke="#165096" stroke-miterlimit="3.86" stroke-width="1.42" fill="none"/><path d="m495 499c-18.9-4.09-23.6-3.52-23.6-3.52l-59.3-2.62c-9.36 0.293-14.2 2.05-14.2 2.05l14.2 1.75c18.1-0.418 75.6 7.38 75.6 7.38l24.2 3.34-17-8.37" fill="#165096"/><path d="m495 499c-18.9-4.09-23.6-3.52-23.6-3.52l-59.3-2.62c-9.36 0.293-14.2 2.05-14.2 2.05l14.2 1.75c18.1-0.418 75.6 7.38 75.6 7.38l24.2 3.34-17-8.37z" stroke="#165096" stroke-miterlimit="3.86" stroke-width="1.42" fill="none"/><path d="m519 518-25.4-5.27-33.7-4.32s-17.9-0.672-18.5-0.801c-1.75-0.43-4.73 0.625-4.73 0.625-0.137 1.38 0.449 1.52 0.449 1.52s2.14 0.527 2.94 0.527c0.801 0 19.5 1.61 19.5 1.61l39.5 5.52 26.3 6.14 11.4 2.8-17.9-8.36" fill-rule="evenodd" fill="#165096"/><path d="m519 518-25.4-5.27-33.7-4.32s-17.9-0.672-18.5-0.801c-1.75-0.43-4.73 0.625-4.73 0.625-0.137 1.38 0.449 1.52 0.449 1.52s2.14 0.527 2.94 0.527c0.801 0 19.5 1.61 19.5 1.61l39.5 5.52 26.3 6.14 11.4 2.8-17.9-8.36z" stroke="#165096" stroke-miterlimit="3.86" stroke-width="1.42" fill="none"/><path d="m564 538-24.8-4.98-25.1-4.91-32.8-4.95c-6.5-1.02-13.4 0-13.4 0-2.44-0.481-1.8 0.894-1.8 0.894 0.078 1.33 2.7 2.71 3.59 2.71 0.898 0 4.5 0.449 4.5 0.449 4.52-0.195 25.6 3.14 25.6 3.14l24.7 4.5s18.9 4.44 21.1 4.89c2.25 0.45 21.1 4.94 21.1 4.94l-2.7-6.69" fill="#165096"/><path d="m564 538-24.8-4.98-25.1-4.91-32.8-4.95c-6.5-1.02-13.4 0-13.4 0-2.44-0.481-1.8 0.894-1.8 0.894 0.078 1.33 2.7 2.71 3.59 2.71 0.898 0 4.5 0.449 4.5 0.449 4.52-0.195 25.6 3.14 25.6 3.14l24.7 4.5s18.9 4.44 21.1 4.89c2.25 0.45 21.1 4.94 21.1 4.94l-2.7-6.69z" stroke="#165096" stroke-miterlimit="3.86" stroke-width="1.42" fill="none"/><path d="m519 638-3.13 1.14h-3.71l-2.57-1.14-2.57-1.44-4-2.27-3.98-2.29-5.43-3.42-2.85-1.71-1.43-0.852-3.42-1.14-0.293 0.848 1.14 1.14 2.28 1.71 2.28 1.71 5.42 4.28 4.84 3.14 4.57 2.57 3.14 2 2.57 1.71 2.99 1.89 2.72-0.468 1.72-4.28-0.293-3.13" fill="#165096"/><path d="m519 638-3.13 1.14h-3.71l-2.57-1.14-2.57-1.44-4-2.27-3.98-2.29-5.43-3.42-2.85-1.71-1.43-0.852-3.42-1.14-0.293 0.848 1.14 1.14 2.28 1.71 2.28 1.71 5.42 4.28 4.84 3.14 4.57 2.57 3.14 2 2.57 1.71 2.99 1.89 2.72-0.468 1.72-4.28-0.293-3.13z" stroke="#165096" stroke-miterlimit="3.86" stroke-width="1.42" fill="none"/><path d="m517 652c-0.578 0.285-3.71 0.864-3.71 0.864l-2.28-1.43-4.28-2.86-2.28-1.43-4.56-2.57-2.85-1.71-2.28-2.57-2.28-1.14-3.42-1.14-2.28-0.86c-0.449-0.605-1.99 0-1.99 0s-0.293 1.14 0.851 1.72c1.14 0.566 2.85 1.42 3.71 1.99 0.859 0.567 6.56 5.42 6.56 5.42l7.7 5.7 6.56 4s4.56 2.29 5.13 2.29c0.574 0 1.72 2.85 1.72 2.85l2.57 0.852 4.28-3.42s-0.86-2-1.14-2.86c-0.285-0.855-1.71-3.14-1.71-3.14s-3.43-0.852-3.99-0.571" fill="#165096"/><path d="m517 652c-0.578 0.285-3.71 0.864-3.71 0.864l-2.28-1.43-4.28-2.86-2.28-1.43-4.56-2.57-2.85-1.71-2.28-2.57-2.28-1.14-3.42-1.14-2.28-0.86c-0.449-0.605-1.99 0-1.99 0s-0.293 1.14 0.851 1.72c1.14 0.566 2.85 1.42 3.71 1.99 0.859 0.567 6.56 5.42 6.56 5.42l7.7 5.7 6.56 4s4.56 2.29 5.13 2.29c0.574 0 1.72 2.85 1.72 2.85l2.57 0.852 4.28-3.42s-0.86-2-1.14-2.86c-0.285-0.855-1.71-3.14-1.71-3.14s-3.43-0.852-3.99-0.571z" stroke="#165096" stroke-miterlimit="3.86" stroke-width="1.42" fill="none"/><path d="m511 676-2.85-1.72-3.99-1.99-5.7-3.43-4.29-2.85-3.7-2.57s-0.031-0.367-2-1.14c-2.77-1.08-4-1.58-4-1.58-0.743-0.269-1.7 1.58-1.13 2.15 0.578 0.562 2.85 2.57 2.85 2.57l3.71 1.71 4.86 3.99 3.71 2.85 3.7 2 3.14 2.27 2.57 1.43 1.99 0.859 1.71 2.28 0.293 3.7-2.57 0.292-2.57-0.863-4.85-3.43-6.56-4-3.42-2.55-2.57-2s-2.57-1.43-3.43-1.43c-0.851 0-2.28-0.242-2.85-0.281-1.95-0.157-1.99 1.42-1.99 1.42 0.508 1.42 2.85 2.57 2.85 2.57l8.84 4.56 4.28 3.43 3.55 2.4 3.59 2.44 3.42 0.859 2.57 0.567 1.43-0.282 2.28-4.84v-4.57l-2.85-4.84" fill="#165096"/><path d="m511 676-2.85-1.72-3.99-1.99-5.7-3.43-4.29-2.85-3.7-2.57s-0.031-0.367-2-1.14c-2.77-1.08-4-1.58-4-1.58-0.743-0.269-1.7 1.58-1.13 2.15 0.578 0.562 2.85 2.57 2.85 2.57l3.71 1.71 4.86 3.99 3.71 2.85 3.7 2 3.14 2.27 2.57 1.43 1.99 0.859 1.71 2.28 0.293 3.7-2.57 0.292-2.57-0.863-4.85-3.43-6.56-4-3.42-2.55-2.57-2s-2.57-1.43-3.43-1.43c-0.851 0-2.28-0.242-2.85-0.281-1.95-0.157-1.99 1.42-1.99 1.42 0.508 1.42 2.85 2.57 2.85 2.57l8.84 4.56 4.28 3.43 3.55 2.4 3.59 2.44 3.42 0.859 2.57 0.567 1.43-0.282 2.28-4.84v-4.57l-2.85-4.84z" stroke="#165096" stroke-miterlimit="3.86" stroke-width="1.42" fill="none"/><path d="m511 702-4.57-2.97-4.84-2.57-4.57-2.29-2.85-2.29-3.99-2.27-3.14-1.72-2.57-1.14-2.85-1.13s-1.14 0.281-0.86 0.847c0.293 0.578 1.14 2 1.14 2s3.43 1.43 3.71 2c0.285 0.575 4 2 4.28 2.57 0.285 0.566 2.85 2.85 2.85 2.85s2 1.14 3.43 1.71c1.42 0.575 4.28 2.86 4.28 2.86s3.43 1.54 3.71 2.12c0.281 0.562 0.566 1.13 1.43 1.99 0.847 0.863 2.28 1.71 2.28 1.71s1.71 0.574 2.27-0.281c0.578-0.86 1.43-1.71 1.43-1.71l-0.566-2.28" fill="#165096"/><path d="m511 702-4.57-2.97-4.84-2.57-4.57-2.29-2.85-2.29-3.99-2.27-3.14-1.72-2.57-1.14-2.85-1.13s-1.14 0.281-0.86 0.847c0.293 0.578 1.14 2 1.14 2s3.43 1.43 3.71 2c0.285 0.575 4 2 4.28 2.57 0.285 0.566 2.85 2.85 2.85 2.85s2 1.14 3.43 1.71c1.42 0.575 4.28 2.86 4.28 2.86s3.43 1.54 3.71 2.12c0.281 0.562 0.566 1.13 1.43 1.99 0.847 0.863 2.28 1.71 2.28 1.71s1.71 0.574 2.27-0.281c0.578-0.86 1.43-1.71 1.43-1.71l-0.566-2.28z" stroke="#165096" stroke-miterlimit="3.86" stroke-width="1.42" fill="none"/><path d="m646 708-2.81-1.41-3.64-1.96-3.09-1.68-2.56-1.41-3.36-1.99-3.09-1.12-3.93-1.68-3.09-0.839-3.37-1.12s-1.4-1.12-1.96 0c-0.559 1.12-0.559 1.68-0.559 1.68s1.12 0.84 1.96 1.12c0.84 0.286 5.05 2.53 5.05 2.53l6.46 3.39 5.33 3.09 4.24 2.25 3.09 1.96 2.8 1.12 2.53-1.12v-2.8" fill="#165096"/><path d="m646 708-2.81-1.41-3.64-1.96-3.09-1.68-2.56-1.41-3.36-1.99-3.09-1.12-3.93-1.68-3.09-0.839-3.37-1.12s-1.4-1.12-1.96 0c-0.559 1.12-0.559 1.68-0.559 1.68s1.12 0.84 1.96 1.12c0.84 0.286 5.05 2.53 5.05 2.53l6.46 3.39 5.33 3.09 4.24 2.25 3.09 1.96 2.8 1.12 2.53-1.12z" stroke="#165096" stroke-miterlimit="3.86" stroke-width="1.42" fill="none"/><path d="m643 720-2.53-0.559-4.21-2.8-4.23-2.53-4.78-3.65-3.93-1.96-9.26-4.77-7.58-3.12-2.81-1.96-4.21-1.12-2.25 0.84 2.25 2.53 3.65 1.71 9.82 5.05 6.17 3.37 10.4 6.45 9 5.89 2.53 1.69 1.68-1.41 0.281-3.65" fill="#165096"/><path d="m643 720-2.53-0.559-4.21-2.8-4.23-2.53-4.78-3.65-3.93-1.96-9.26-4.77-7.58-3.12-2.81-1.96-4.21-1.12-2.25 0.84 2.25 2.53 3.65 1.71 9.82 5.05 6.17 3.37 10.4 6.45 9 5.89 2.53 1.69 1.68-1.41 0.281-3.65z" stroke="#165096" stroke-miterlimit="3.86" stroke-width="1.42" fill="none"/><path d="m642 730h-3.64l-2.56-2.25-3.09-2.8-2.8-1.96-4.21-2.53-5.89-3.37-6.18-3.09-5.89-2.53-7.58-3.36-5.61-2.53-5.61-2.25-2.53-0.554-1.41 1.39 0.851 1.96 4.48 1.97 5.62 1.96 10.7 5.33 10.7 5.33 7.86 5.05 5.32 3.09 2.53 1.68 2.53 1.41 3.39 2.53 2.81 0.554 0.273-5.05" fill="#165096"/><path d="m642 730h-3.64l-2.56-2.25-3.09-2.8-2.8-1.96-4.21-2.53-5.89-3.37-6.18-3.09-5.89-2.53-7.58-3.36-5.61-2.53-5.61-2.25-2.53-0.554-1.41 1.39 0.851 1.96 4.48 1.97 5.62 1.96 10.7 5.33 10.7 5.33 7.86 5.05 5.32 3.09 2.53 1.68 2.53 1.41 3.39 2.53 2.81 0.554 0.273-5.05z" stroke="#165096" stroke-miterlimit="3.86" stroke-width="1.42" fill="none"/><path d="m639 742-4.79-1.12-3.09-1.41-5.33-3.08-6.46-3.93-7.58-4.49-8.13-3.93-5.62-3.09-7.29-3.64-4.77-2.25-6.17-2.25-3.94-1.68-3.93-1.12-4.21-0.286-3.37-0.285-2.8 0.571 0.84 1.68s1.96 0.84 3.37 1.12c1.41 0.285 8.14 1.68 8.14 1.68l10.4 3.37 8.14 3.94 11.5 6.73 12.1 6.74 6.45 3.37 6.17 3.64s2.81 1.69 3.37 1.96c0.566 0.281 1.69 1.41 1.96 1.97 0.285 0.554 1.12 3.64 1.12 3.64l1.99-1.41 1.41-2.8 0.555-3.64" fill="#165096"/><path d="m639 742-4.79-1.12-3.09-1.41-5.33-3.08-6.46-3.93-7.58-4.49-8.13-3.93-5.62-3.09-7.29-3.64-4.77-2.25-6.17-2.25-3.94-1.68-3.93-1.12-4.21-0.286-3.37-0.285-2.8 0.571 0.84 1.68s1.96 0.84 3.37 1.12c1.41 0.285 8.14 1.68 8.14 1.68l10.4 3.37 8.14 3.94 11.5 6.73 12.1 6.74 6.45 3.37 6.17 3.64s2.81 1.69 3.37 1.96c0.566 0.281 1.69 1.41 1.96 1.97 0.285 0.554 1.12 3.64 1.12 3.64l1.99-1.41 1.41-2.8 0.555-3.64z" stroke="#165096" stroke-miterlimit="3.86" stroke-width="1.42" fill="none"/><path d="m515 664-3.42-0.578-2.57-1.71-4.57-2.57-3.42-2.28-3.43-2.27-3.42-1.72-1.43-1.43-2.86-2.28-2.28-1.72s-2.28-0.852-2.85-0.852c-0.575 0-2 0.285-2 0.285s0 1.71 0.566 1.99c0.574 0.292 3.14 2.28 3.14 2.28l3.71 2.28 3.13 2.57 2.57 1.99 3.42 2.29 3.7 1.99 2.85 2.28 1.72 1.14 1.71 1.14 1.71 1.43 3.13-0.86 1.72-1.14-0.859-2.27" fill="#165096"/><path d="m515 664-3.42-0.578-2.57-1.71-4.57-2.57-3.42-2.28-3.43-2.27-3.42-1.72-1.43-1.43-2.86-2.28-2.28-1.72s-2.28-0.852-2.85-0.852c-0.575 0-2 0.285-2 0.285s0 1.71 0.566 1.99c0.574 0.292 3.14 2.28 3.14 2.28l3.71 2.28 3.13 2.57 2.57 1.99 3.42 2.29 3.7 1.99 2.85 2.28 1.72 1.14 1.71 1.14 1.71 1.43 3.13-0.86 1.72-1.14-0.859-2.27z" stroke="#165096" stroke-miterlimit="3.86" stroke-width="1.42" fill="none"/><path d="m515 664-3.42-0.578-2.57-1.71-4.57-2.57-3.42-2.28-3.43-2.27-3.42-1.72-1.43-1.43-2.86-2.28-2.28-1.72s-2.41-0.985-2.97-1.08c-1.88-0.317-1.88 2.22-1.32 2.51 0.574 0.292 3.14 2.28 3.14 2.28l3.71 2.28 3.13 2.57 2.57 1.99 3.42 2.29 3.7 1.99 2.85 2.28 1.72 1.14 1.71 1.14 1.71 1.43 3.13-0.86 1.72-1.14-0.859-2.27" fill="#165096"/><path d="m515 664-3.42-0.578-2.57-1.71-4.57-2.57-3.42-2.28-3.43-2.27-3.42-1.72-1.43-1.43-2.86-2.28-2.28-1.72s-2.41-0.985-2.97-1.08c-1.88-0.317-1.88 2.22-1.32 2.51 0.574 0.292 3.14 2.28 3.14 2.28l3.71 2.28 3.13 2.57 2.57 1.99 3.42 2.29 3.7 1.99 2.85 2.28 1.72 1.14 1.71 1.14 1.71 1.43 3.13-0.86 1.72-1.14-0.859-2.27z" stroke="#165096" stroke-miterlimit="3.86" stroke-width="1.42" fill="none"/><path d="m495 446 1.46 2.19 1.53 2.81 1.79 1.53 1.53 1.54 1.05 3.02c0.442 0.238-2.59-0.973-2.59-0.973l-2.81-1.28-1.79-1.28-2.07-1.31-1.32-7.55 3.2 1.32" fill="#165096"/><path d="m495 446 1.46 2.19 1.53 2.81 1.79 1.53 1.53 1.54 1.05 3.02c0.442 0.238-2.59-0.973-2.59-0.973l-2.81-1.28-1.79-1.28-2.07-1.31-1.32-7.55 3.2 1.32z" stroke="#165096" stroke-miterlimit="3.86" stroke-width="7.5" fill="none"/><path d="m210 310c4.22 3.17 5.09 9.41 1.91 13.6-3.27 4.34-9.41 5.09-13.6 1.91-4.35-3.27-5.19-9.29-1.91-13.6 3.17-4.21 9.28-5.19 13.6-1.91" fill="#165096"/><path d="m298 193-4.55 3.82-7.21-8.59-33.6 28.2 78.8 20 2.33 2.78-44.9 37.6 2.12 2.53-4.54 3.82-11.9-14.1 4.54-3.82 5.52 6.57 31.6-26.5-78.7-20.4-2.23-2.64 51.2-42.9 11.4 13.7" fill="#165096"/><path d="m439 175-29 16.1-3.2-5.77 10.8-5.99-20-36.1c-6.47-11.7-18.9-15.7-29.7-9.74-10.5 5.83-13.1 17.8-6.56 29.7l20.1 36.2 11-6.07 3.2 5.77-32.7 18.2-3.2-5.77 11-6.09-21.8-39.2c-7.52-13.6-1.78-29.7 13.7-38.3 16.4-9.11 33.6-4.68 42.3 10.9l20.2 36.5 10.8-6 3.2 5.77" fill="#165096"/><path d="m518 70.4c15.2-3.79 25.8 1.05 28.8 13.4 2.99 12-4.01 21.4-19.3 25.7 11.7-2.91 21.9 1.86 24.3 11.5 2.8 11.2-4.06 20.6-17.7 24l-39 9.73-1.48-5.93 12-2.98-15.5-62.1-12 3-1.47-5.93 41.3-10.3zm-8.35 39.5 11.5-2.88c10.6-2.63 14.6-9.07 12.1-19-2.28-9.12-8.88-12.4-19.4-9.77l-11.4 2.84 7.18 28.8zm8.07 32.3 11.4-2.83c7.84-1.95 10.9-7.47 8.9-15.5-2.04-8.16-8.48-12.2-16.5-10.2l-10.2 2.55 6.46 25.9" fill-rule="evenodd" fill="#165096"/><path d="m661 70.4-6.09 0.215-0.301-8.74-28 0.977 1 28.9 21.1-0.746-0.285-8.24 6.09-0.215 0.8 22.9-6.1 0.047-0.274-7.92-21.1 0.742 0.957 27.5 27-0.95-0.305-8.57 5.94-0.207 0.644 18.5-6.1 0.215-0.117-3.3-51.8 1.81-0.215-6.11 12.4-0.43-2.23-64-12.4 0.434-0.211-6.11 59-2.06 0.528 15.3" fill="#165096"/><path d="m793 76.3-4.56-0.719c-3.58-0.578-6.99 0.887-10.4 4.53l-18.7 19.8c10.4 3.65 15.9 12.7 14.1 23.6-2.09 13.2-11.7 18.9-27.5 16.4l-38.4-6.09 1.04-6.52 12.2 1.93 9.93-62.7-12.2-1.93 0.957-6.03 36.8 5.83-0.961 6.03-12.2-1.93-4.28 27 7.98 1.27 21.6-23.5c5.05-5.55 6.46-6 13.6-4.86l11.9 1.88-0.957 6.04zm-59.8 54.8 11.4 1.8c8.48 1.34 13.8-2.99 15.3-12.1 1.41-8.96-2.68-15.8-10.5-17l-11.6-1.82-4.62 29.2" fill-rule="evenodd" fill="#165096"/><path d="m894 123-5.54-2.12 3.6-9.39-25.9-9.93-22.6 58.8 11.5 4.44-2.36 6.15-34.8-13.4 2.37-6.15 11.5 4.42 22.8-59.3-11.6-4.43 2.19-5.7 54.7 21-5.98 15.6" fill="#165096"/><path d="m970 154-10.6-6.36-32.7 54.4 10.6 6.37-3.4 5.65-32-19.2 3.4-5.65 10.6 6.38 32.7-54.4-10.6-6.38 3.14-5.23 32 19.2-3.14 5.22" fill="#165096"/><path d="m1.03e3 286 9.05 8.44-4.5 4.82-24.2-22.6 4.5-4.82 9.17 8.54 32.2-34.5-70.6 7.72-15.6-14.5 4.5-4.82 8.44 7.87 5.33-0.883 40.4-43.3-9.06-8.44 4.17-4.46 24.2 22.6-4.16 4.46-9.17-8.55-33.2 35.6 73.2-8.39 3.62 3.37-48.4 51.9" fill="#165096"/><path d="m1.11e3 329c-4.27 3.1-10.5 2.12-13.6-2.16-3.2-4.4-2.11-10.5 2.15-13.6 4.41-3.2 10.4-2.26 13.6 2.14 3.1 4.27 2.24 10.4-2.16 13.6" fill="#165096"/><path d="m149 481 5.04-11.3-58.5-26-5.04 11.3-5.57-2.49 15.2-34.1 5.58 2.48-4.96 11.2 25.8 11.5 18.3-41.1-25.8-11.5-5.03 11.3-5.58-2.48 15.2-34 5.57 2.48-5.04 11.3 58.5 26 5.04-11.3 5.57 2.49-15.2 34-5.58-2.48 5.03-11.3-26.7-11.9-18.3 41.1 26.7 11.9 4.96-11.2 5.58 2.48-15.2 34.1-5.57-2.48" fill="#165096"/><path d="m53.8 604 5.19-32.8 6.52 1.04-1.93 12.2 40.7 6.46c13.2 2.09 24-5.21 26-17.4 1.88-11.9-5.98-21.3-19.3-23.4l-40.9-6.47-1.96 12.4-6.52-1.04 5.86-37 6.52 1.03-1.96 12.4 44.3 7.02c15.3 2.42 24.6 16.9 21.8 34.3-2.94 18.6-17 29.4-34.6 26.6l-41.2-6.53-1.93 12.2-6.52-1.03" fill="#165096"/><path d="m134 764-1.51-12.3-63 7.73 1.5 12.3-6.54 0.801-3.14-25.5 52.1-33.2-58.5-19.1-3.02-24.6 6.55-0.801 1.5 12.3 63-7.74-1.51-12.3 6.06-0.742 4.04 32.9-6.05 0.738-1.5-12.3-51.4 6.31 62 20.1-58.2 37.2 54.7-6.71-1.5-12.3 6.06-0.742 4.54 37-6.06 0.738" fill="#165096"/><path d="m169 851c5.61 14.6 2.09 25.7-9.76 30.3-11.6 4.43-21.7-1.38-27.9-16 4.32 11.2 0.828 21.9-8.41 25.5-10.8 4.14-20.9-1.52-25.9-14.6l-14.5-37 5.69-2.19 4.45 11.5 59.7-22.9-4.43-11.6 5.7-2.19 15.3 39.7zm-40.2-3.47 4.26 11.1c3.91 10.2 10.8 13.4 20.3 9.69 8.77-3.37 11.2-10.3 7.32-20.5l-4.19-10.9-27.7 10.6zm-31.1 11.9 4.2 10.9c2.89 7.55 8.74 9.9 16.4 6.94 7.85-3.02 11-9.89 8.08-17.6l-3.79-9.86-24.9 9.58" fill-rule="evenodd" fill="#165096"/><path d="m222 945c11.9 17 6.93 42.7-10.8 55.1-17.4 12.2-43.1 8.04-55-9-12.1-17.3-7.38-42.8 10.2-55 17.8-12.5 43.5-8.32 55.6 8.97zm-60.2 42c7.95 11.3 26.4 12.1 41.5 1.52 15.3-10.7 21-28.2 12.9-39.7-7.94-11.3-26.4-11.9-41.7-1.19-15 10.5-20.7 28-12.7 39.3" fill-rule="evenodd" fill="#165096"/><path d="m304 1.07e3 -4.28-4.13 6.99-7.24-19.9-19.2-43.8 45.3 8.9 8.6-4.58 4.75-26.8-25.9 4.58-4.75 8.89 8.6 44.1-45.7-8.91-8.59 4.25-4.4 42.1 40.7-11.6 12" fill="#165096"/><path d="m343 1.08e3 33.2 20.7c19.3 12.1 25.2 35 13.7 53.5-11.3 18-35 23-54 11.2l-33.2-20.7 3.24-5.18 10.5 6.55 33.9-54.3-10.5-6.57 3.23-5.17zm17.6 18.8-33.4 53.4 11.1 6.91c12.9 8.04 30.1 2.5 39.6-12.6 9.45-15.1 6.68-32.8-6.33-40.9l-10.9-6.81" fill-rule="evenodd" fill="#165096"/><path d="m495 1.16e3 -13.2-4.56-20.7 60 22.8 7.84 3.01-8.74 5.77 1.99-6.23 18.1-5.77-1.98 1.08-3.12-57.4-19.8-1.07 3.11-5.61-1.93 6.23-18.1 5.61 1.93-3.01 8.74 22.8 7.84 20.7-60-13.3-4.56 1.99-5.77 38.4 13.2-1.99 5.76" fill="#165096"/><path d="m563 1.21e3 -30.9-6.02 2.4-12.3 30.9 6-2.39 12.3" fill="#165096"/><path d="m702 1.25e3 -33.1 0.58-0.118-6.61 12.4-0.21-0.723-41.2c-0.234-13.4-9.3-22.8-21.7-22.6-12 0.2-19.9 9.58-19.7 23.1l0.723 41.4 12.5-0.22 0.118 6.6-37.4 0.65-0.117-6.59 12.5-0.22-0.781-44.9c-0.274-15.5 12.4-27.1 30-27.4 18.8-0.32 31.9 11.7 32.2 29.5l0.735 41.7 12.4-0.21 0.117 6.6" fill="#165096"/><path d="m837 1.22e3 11.9-3.2 1.71 6.36-32 8.59-1.71-6.38 12.1-3.24-12.2-45.6-30.9 63.9-20.5 5.51-1.71-6.38 11.2-2.99 2.07-4.99-15.3-57.2-12 3.21-1.57-5.9 32-8.59 1.58 5.9-12.1 3.25 12.6 47 31.7-66.6 4.78-1.28 18.4 68.5" fill="#165096"/><path d="m910 1.11e3 -10.9 5.81 29.8 56.1 10.9-5.8 3.1 5.82-32.9 17.5-3.11-5.82 10.9-5.81-29.8-56.1-10.9 5.81-2.86-5.39 32.9-17.5 2.86 5.39" fill="#165096"/><path d="m1.03e3 1.11e3 5.54-4.17 3.97 5.28-19.1 14.4-3.97-5.26 7.5-5.66-47.3-28.2 13.7 53.5 8.3-6.27 3.97 5.28-25.6 19.3-3.97-5.28 6.45-4.86-19.4-75 3.16-2.38 66.7 39.4" fill="#165096"/><path d="m1.08e3 987-4.08 4.53-6.49-5.85-18.8 20.8 21.4 19.3 14.1-15.7-6.12-5.52 4.08-4.53 17 15.3-4.21 4.43-5.87-5.31-14.1 15.7 20.5 18.4 18.1-20.1-6.38-5.74 3.98-4.42 13.7 12.4-4.08 4.55-2.46-2.21-34.6 38.5-4.55-4.08 8.29-9.2-47.6-42.8-8.28 9.2-4.54-4.09 39.5-43.9 11.4 10.3" fill="#165096"/><path d="m1.13e3 874-2.24 4.04c-1.76 3.18-1.54 6.88 0.71 11.3l12.2 24.3c7.01-8.56 17.4-10.6 27-5.2 11.7 6.48 13.7 17.4 5.97 31.4l-18.9 34-5.77-3.19 6-10.8-55.5-30.8-6 10.8-5.33-2.96 18.1-32.6 5.34 2.96-5.99 10.8 23.9 13.3 3.92-7.07-14.7-28.3c-3.49-6.65-3.42-8.12 0.1-14.5l5.84-10.5 5.33 2.96zm31.1 74.9 5.59-10.1c4.16-7.5 1.93-14-6.15-18.5-7.93-4.4-15.8-2.89-19.6 4.03l-5.68 10.2 25.8 14.3" fill-rule="evenodd" fill="#165096"/><path d="m1.15e3 829c-1.47-7.24-1.35-13.4 0.58-19.4 4.23-13 16.3-19.8 28.1-16 10.2 3.32 14 8.71 17.1 24.7 0.82 3.91 1.79 8.39 2.81 13.2 1.41 6.35 3.05 8.79 7.13 10.1 6.43 2.09 12.1-1.44 14.5-8.82 1.38-4.24 1.51-7.32 0.21-14.5l-7.85-2.55 1.89-5.8 18.8 6.11-1.89 5.81-3.92-1.28c1.03 5.37 0.65 10.3-1.03 15.4-4.08 12.5-16.2 19.5-27.5 15.9-9.24-3.01-13.2-9.5-15.6-25.5-2.36-15.2-5.06-20.7-11-22.7-6.12-1.99-12.3 2.23-14.9 10.1-1.74 5.33-1.75 10.2-0.03 17.7l8.17 2.66-1.89 5.8-19.6-6.37 1.89-5.81 4.07 1.33" fill="#165096"/><path d="m1.18e3 707-1.72 12.3 62.9 8.84 1.73-12.3 6.53 0.918-5.18 36.9-6.54-0.918 1.72-12.2-62.9-8.84-1.72 12.2-6.04-0.851 5.19-36.9 6.04 0.847" fill="#165096"/><path d="m1.18e3 610 0.49 14 63.5-2.22-0.84-24.1-9.23 0.32-0.21-6.09 19.1-0.676 0.22 6.1-3.31 0.11 2.13 60.7 3.28-0.117 0.22 5.94-19.1 0.676-0.22-5.94 9.24-0.324-0.84-24.1-63.5 2.21 0.48 14-6.1 0.215-1.41-40.5 6.1-0.211" fill="#165096"/><path d="m1.16e3 487 1.71 6.88 77.8 11.9 1.03 4.16-62.8 48.3 1.51 6.08-5.91 1.48-5.59-22.4 5.92-1.47 2.23 8.95 15.6-11.9-7.26-29.1-19.2-2.85 1.76 7.04-5.92 1.48-6.7-26.9 5.88-1.64zm92.1-6.3c4.49-1.12 9.09 1.64 10.2 5.97 1.12 4.48-1.64 9.08-6.12 10.2-4.33 1.07-8.93-1.69-10-6.17-1.07-4.32 1.69-8.92 6-9.99zm7.07 28.3c4.48-1.12 9.08 1.64 10.2 5.96 1.11 4.47-1.65 9.07-6.13 10.2-4.32 1.07-8.92-1.69-10-6.17-1.08-4.32 1.69-8.91 6.01-9.99zm-62.1 25.7 25.1-19.2-31.1-4.66 5.94 23.8" fill-rule="evenodd" fill="#165096"/><path d="m1.12e3 407 5.91 12.7 57.6-26.8-10.2-21.8-8.37 3.9-2.58-5.53 17.3-8.09 2.58 5.53-2.99 1.39 25.7 55 2.99-1.4 2.51 5.38-17.4 8.09-2.51-5.38 8.38-3.91-10.2-21.8-57.6 26.8 5.93 12.7-5.54 2.58-17.2-36.8 5.54-2.58" fill="#165096"/></g></g></svg>
