<?xml version="1.0" encoding="UTF-8" standalone="no"?>
<svg xmlns:rdf="http://www.w3.org/1999/02/22-rdf-syntax-ns#" xmlns="http://www.w3.org/2000/svg" xml:space="preserve" height="422" width="624" version="1.1" xmlns:cc="http://creativecommons.org/ns#" viewBox="0 0 623.91998 422.46667" xmlns:dc="http://purl.org/dc/elements/1.1/"><g transform="matrix(1.33 0 0 -1.33 0 422)"><g transform="scale(.1)"><path d="m144 739v30.1h-111v215h-33v-245zm211 106c0 22.9-7.04 41.2-21.1 55-14.5 14.4-34.5 21.6-60 21.6-22 0-41-7.98-57.1-23.9-17.9-17.8-26.9-41.5-26.9-71.1 0-28.4 8.75-51.1 26.3-67.9 15.7-15.3 34.9-22.9 57.4-22.9 15.6 0 29.8 2.35 42.5 7.05 10.1 3.57 17.7 7.8 22.6 12.7l-13.4 22.9c-12.2-10.6-27.3-15.9-45.5-15.9-16 0-29 4.91-39.1 14.7-11.5 11.2-17.2 27.4-17.2 48.3h129c1.67 5.91 2.52 12.4 2.52 19.4m-43.7 35.8c8.04-8.57 12-19.3 12-32.1h-99.2c1.23 12.9 6.4 23.8 15.6 32.4 9.59 9.14 21.4 13.7 35.6 13.7 15.2 0 27.1-4.68 35.9-14.1m127 99.5c-3.78-3.8-5.69-8.43-5.69-13.9 0-5.45 1.93-10.1 5.77-14 3.84-3.83 8.44-5.76 13.8-5.76 5.46 0 10.1 1.93 14 5.76 3.85 3.86 5.78 8.52 5.78 14 0 5.34-1.94 9.96-5.78 13.8-3.85 3.82-8.5 5.74-14 5.74-5.46 0-10.1-1.88-13.9-5.66m28.3-241v179h-56.4v-26.8h24.6v-152zm127 1.43c8.19-3.19 16.5-4.79 25-4.79 26.1 0 46.8 8.59 62.1 25.7s22.9 40.6 22.9 70.5c0 25.9-7.61 47.3-22.8 64.2-15.2 17-35.1 25.4-59.6 25.4-8.02 0-16.2-1.73-24.5-5.17-8.31-3.49-14-7.26-17-11.4v86.6h-31v-256h15.9l11.2 16.2c4.26-4.46 10.5-8.28 18.7-11.4m-0.344 149c6.98 3.36 12.4 5.02 16.3 5.02 18.5 0 33.2-5.68 44.2-17.1 10.9-11.3 16.4-27.2 16.4-47.5 0-24.4-4.69-41.8-14.1-52.2-9.36-10.4-24.9-15.6-46.5-15.6-4.13 0-10.2 2.04-18.1 6.11-7.93 4.05-11.9 6.99-11.9 8.78v103c2.11 2.68 6.66 5.69 13.6 9.03m318-151v111c0 47.7-19.6 71.6-58.9 71.6-23.7 0-40.9-8.8-51.3-26.4l-10 23.1h-22v-178h31.8v133c4.23 6.35 10.3 11.7 18.2 16.1 7.93 4.35 15.5 6.53 22.8 6.53 13.5 0 23.1-3.83 28.9-11.5 5.75-7.64 8.6-21 8.6-40.1v-104zm94.9 241c-3.8-3.8-5.69-8.43-5.69-13.9 0-5.45 1.92-10.1 5.77-14 3.85-3.83 8.45-5.76 13.8-5.76 5.47 0 10.1 1.93 14 5.76 3.84 3.86 5.75 8.52 5.75 14 0 5.34-1.91 9.96-5.75 13.8-3.86 3.82-8.52 5.74-14 5.74-5.46 0-10.1-1.88-13.9-5.66m28.3-241v179h-56.4v-26.8h24.6v-151zm214 170v9.03h-150v-27h100l-100-142v-8.35h149v28.4h-99.4zm137-56.2h-71.6v-29.3h71.6zm191 135c-36.4 0-65.4-11.8-86.9-35.4s-32.2-54.3-32.2-92.2c0-38 9.8-68.5 29.4-91.4s46.2-34.4 80-34.4c15 0 30.6 2.32 46.5 6.96 15.9 4.62 28.4 10.7 37.3 18.3v107h-67.4v-28.4h34v-57.4c-11-10.7-25.5-16-43.3-16-25.1 0-44.9 8.64-59.5 25.9s-21.8 40.1-21.8 68.4c0 29.8 7.41 53.7 22.2 71.8s35.1 27.1 60.7 27.1c16.2 0 32.7-6.24 49.5-18.7l13.9 27.6c-16.1 14.2-36.9 21.2-62.4 21.2m310-143c0 22.9-7.03 41.2-21.1 55-14.5 14.4-34.5 21.6-60 21.6-22 0-41-7.98-57-23.9-18-17.8-27-41.5-27-71.1 0-28.4 8.77-51.1 26.3-67.9 15.8-15.3 34.9-22.9 57.4-22.9 15.6 0 29.8 2.35 42.5 7.05 10.2 3.57 17.7 7.8 22.6 12.7l-13.4 22.9c-12.2-10.6-27.3-15.9-45.5-15.9-16 0-29 4.91-39.1 14.7-11.5 11.2-17.2 27.4-17.2 48.3h129c1.67 5.91 2.5 12.4 2.5 19.4m-43.6 35.8c8.03-8.57 12-19.3 12-32.1h-99.2c1.23 12.9 6.4 23.8 15.6 32.4 9.59 9.14 21.5 13.7 35.6 13.7 15.2 0 27.2-4.68 36-14.1m350-142v120c0 19.9-5.05 35.3-15.2 46.3s-24.5 16.5-43 16.5c-10.2 0-20.2-2.27-29.9-6.84-9.71-4.59-16.4-10.3-19.9-17.1-10.2 15.9-28.2 23.9-53.9 23.9-18.4 0-33.7-8.02-46-24.1l-10.5 20.8h-20.8v-180h31.8v132c3.01 5.91 8.11 11.3 15.3 16.2 7.19 4.91 14 7.36 20.3 7.36 11 0 19.7-2.53 26.4-7.61 6.63-5.08 9.96-12 9.96-20.8v-127h31.8v132c2.44 6.03 7.01 11.4 13.7 16.1 6.69 4.73 13.9 7.11 21.6 7.11 24.4 0 36.6-14.1 36.6-42.3v-113zm229 106c0 22.9-7.01 41.2-21.1 55-14.5 14.4-34.5 21.6-60 21.6-22 0-41-7.98-57.1-23.9-17.9-17.8-26.9-41.5-26.9-71.1 0-28.4 8.74-51.1 26.2-67.9 15.7-15.3 34.8-22.9 57.4-22.9 15.6 0 29.8 2.35 42.5 7.05 10.2 3.57 17.7 7.8 22.6 12.7l-13.4 22.9c-12.1-10.6-27.3-15.9-45.5-15.9-15.9 0-29 4.91-39.1 14.7-11.5 11.2-17.2 27.4-17.2 48.3h129c1.68 5.91 2.5 12.4 2.5 19.4m-43.6 35.8c8.02-8.57 12-19.3 12-32.1h-99.2c1.23 12.9 6.41 23.8 15.6 32.4 9.59 9.14 21.5 13.7 35.6 13.7 15.2 0 27.2-4.68 36-14.1m127 99.5c-3.8-3.8-5.69-8.43-5.69-13.9 0-5.45 1.93-10.1 5.77-14 3.87-3.83 8.45-5.76 13.8-5.76 5.46 0 10.1 1.93 14 5.76 3.86 3.86 5.77 8.52 5.77 14 0 5.34-1.91 9.96-5.77 13.8-3.85 3.82-8.5 5.74-14 5.74-5.48 0-10.1-1.88-13.9-5.66m28.3-241v179h-56.4v-26.8h24.6v-152zm223 0v111c0 47.7-19.6 71.6-58.9 71.6-23.8 0-40.9-8.8-51.4-26.4l-10 23.1h-21.8v-179h31.8v133c4.27 6.35 10.3 11.7 18.2 16.1 7.91 4.35 15.5 6.53 22.8 6.53 13.5 0 23.1-3.83 28.8-11.5 5.76-7.64 8.62-21 8.62-40.1v-104zm117-3.36c20 0 35.6 4.56 46.9 13.6 11.3 9.07 16.9 21.6 16.9 37.7 0 12.2-3.17 22.4-9.53 30.6-6.37 8.15-16.5 15.4-30.4 21.8l-22.8 10.4c-13 5.91-19.6 14.6-19.6 26.1 0 5.46 2.6 9.97 7.76 13.5 5.2 3.59 11.6 5.37 19.2 5.37 12.7 0 25.4-5.02 38-15.1l9.02 29.4c-19.8 8.24-36.3 12.4-49.4 12.4-17.3 0-31.3-4.13-41.9-12.4-10.8-8.26-16.1-19.8-16.1-34.5 0-5.68 0.92-11 2.78-16 1.8-4.95 4.59-9.66 8.34-14 3.73-4.41 8.13-8.34 13.2-11.8 5.06-3.46 14.9-8.55 29.5-15.2 19-8.45 28.4-18.6 28.4-30.4 0-16.5-9.82-24.8-29.4-24.8-10.8 0-25.1 5.8-42.8 17.4l-11.2-30.1c16.6-9.36 34.3-14.1 53.2-14.1m239 180c-10.8 3.88-20.8 5.84-30.1 5.84-28.8 0-51.4-8.66-68-25.9-16.6-17.3-24.9-40.2-24.9-68.8 0-28 8-50.2 23.9-66.6s36.1-24.6 60.6-24.6c25.2 0 46.3 5.53 63.4 16.6l-12.5 26.8c-14.5-11-28.9-16.6-43.2-16.6-18.4 0-32.8 5.5-43.1 16.5s-15.6 26.9-15.6 47.9c0 21.1 5.07 37.7 15.2 49.8 10.2 12.1 23.9 18.2 41.2 18.2 7.88 0 15.9-1.45 24.2-4.34 8.18-2.92 13.9-5.96 17.1-9.2l15.7 22.4c-5.12 4.14-13.1 8.15-23.9 12.1m210-176v113c0 21.6-5.35 38.7-16.1 51.2-10.7 12.5-25.6 18.7-44.5 18.7-10 0-19.8-2.19-29.2-6.6-9.45-4.4-16.3-9.9-20.5-16.5v93.1h-31.8v-253h31.8v133c4.13 6.02 10.1 11.3 17.8 15.8 7.77 4.5 15.5 6.76 23.2 6.76 11.9 0 21.2-3.85 27.8-11.6 6.57-7.7 9.87-18.2 9.87-31.6v-112zm191 2.33c6.43-3.66 16.1-5.5 29-5.5v15.9c-9.35 5.24-14 15.7-14 31.4v64.2c0 25.8-5.88 44.6-17.6 56.4-11.8 11.8-30.7 17.7-56.6 17.7-9.69 0-19.9-1.74-30.5-5.26-10.6-3.53-19-7.74-25-12.6l13.4-26.6c10.7 10.7 26 16.1 45.8 16.1 25.9 0 38.8-14.5 38.8-43.5-8.44 2.89-16 4.34-22.7 4.34-24.6 0-44.9-6.28-60.8-18.8-15.9-12.6-23.8-27.9-23.8-46.1 0-15.2 5.15-27.8 15.5-38 10.3-10.2 22.5-15.3 36.6-15.3 26.2 0 45.7 7.99 58.4 23.9 2.78-8.48 7.4-14.5 13.8-18.2m-16.8 42.3c-12.4-15.3-26.6-22.9-42.6-22.9-22 0-33 9.31-33 27.9 0 11.3 5.08 21 15.2 29.3 10.1 8.25 23.3 12.4 39.3 12.4 4.01 0 11-1.09 21.1-3.34zm218 203c-10.6 3.35-20.5 5.02-29.7 5.02-18.5 0-33.4-6.53-44.7-19.6-11.2-13-16.9-31-16.9-53.9h-26.1v-26.8h26.1v-152h31.8v152h36.5v26.8h-36.5c-0.53 3.24-0.82 6.35-0.82 9.37 0 11.2 3.15 20.5 9.46 27.9 6.29 7.35 14.3 11 24 11 5.58 0 11.6-1.1 18.1-3.35zm63.1-195c0-16.1 4.88-29.4 14.6-39.9 9.73-10.5 21.7-15.8 35.8-15.8 15.7 0 30.2 1.68 43.3 5.04l-4.69 27.9c-8.69-4.14-17.1-6.19-25.3-6.19-11.3 0-19.4 3.18-24.5 9.53-5.06 6.36-7.59 17.1-7.59 32.1v89h49.2v25.1h-49.2v49.7l-31.8-12.2v-37.5h-20.7v-25.1h20.7v-101" fill="#1c63b7"/><path d="m2.97e3 1.74e3c-15.7-24.7-43.6 32.7-99.8-38.8-23.4-29.8-8.7-66.1-37.4-97.9-32-35.6-59.4-63.4-33.7 35.6 25.8 99 16.7 57.3 32.6 94.2 15.6 36.2 84.9 220 90.2 235 3.03 8.38 63.9 128 126 218 0 0 167 148 99.7-119-45.1-179-96-198-178-327m3.46-258c-21.8-79.2-53.9-210-90.4-244-32.1-29.7-74.6-105-112 32s59.7 252 59.7 252 41.2 55.5 67.3 53c32.2-3.04 97-13.4 75.3-92.5m-2.05e3 15.4c-13.5-5.65-51.3 26.9-49.9 44 2.78 33.5 37.4-1.03 77.2 0 40.4 1.04-13-38.1-27.3-44m1.04e3 1.17e3c380 348 370 338 400 351 36.4 14.4 169 75.1 194 45.6 31.2-36.2 33.7-121-33.6-188-67.4-67.3-289-294-428-351-132-54.1-583-269-133 143m1.64e3 -1.32e3c34.3-28.2 68.6-72.6 192 42.4s60.5 66.6 127-84.7c66.6-151 109-67.9 113-38.4 10.3 73.9-12.3 219-27.8 278-13 49.4-97.8 73.8-132 49.3-32-23.2-117-119-174-137-56.5-18.1-11.8 36.3-25.8 127-14.1 90.8-47.4 132-83 117-24-10.3-76.4-63.9-101-50.1-47.8 26.9-80.9 142-315 14.2-272-149-28.3 190-28.3 190s182 248 72.7 428-343-206-343-206-123-244-178-502c-54.5-258-166-229-208-174-45.1 59.8-32.6 295-194 196-161-98.8-159-297-256-72.6-96.8 224-199 80-212 56.5-18.4-33-8.89-105-36.3-121-30.9-17.7-69.5 45.8-92.8 54.4-25.1 9.33-188-143-262-284-107-203-278 286-261 316 14.6 26.8 432 604 471 688 41 87.2 101 113 131 117 30.3 4.03 416 68.6 694 363 278 295 236 367 103 442-133 74.6-513-297-531-311-13-9.82-327-363-349-408-22.2-44.4-539-16.1-539-16.1-59.9-29.3 6.4-53.9 6.4-53.9s232-33.7 376-29.7c145 3.97 49.1-80.5 32-101-112-133-323-493-398-569-75.3-75.2-219 8.52-228 9.9-8.5 1.39-224 33.7-180-131 43.6-164 174-91.4 238-107 19.4-4.76 46.8-38.5 57.4-55.4 32.1-51 47.2-132 80.9-182 49.2-73.2 236-255 381 7.58 150 272 246 170 254 21.8 7.92-149 55.4-93.1 109-69.3 53.5 23.8 7.9 127 13.8 261 5.95 135 117-59.4 109-113-7.9-53.5 75.2-43.6 149-13.9 73.3 29.7 15.8 75.3 117 168 101 93.1 106-125 133-176 21.2-40.9 127-127 180-11.8 53.5 115 137 89.9 119-27.1-18.2-117 82.5-163 115-161 30.9 1.57 208 98.9 210 295 2.02 196 142 195 165 198 23.7 3.19 204 32.3 188-20.1-16.1-52.4-96.9-204-4.03-202 92.8 2.01 54.5 82.7 141 174 86.7 90.8 46.4-157 80.7-186" fill="#231f20"/><path d="m2.48e3 2.18e3c-12.4-131 68.4-88.6 68.4-88.6 150 77.4 31.4 149 31.4 149s-87.5 70.7-99.8-60.6" fill="#231f20"/><path d="m4.37e3 711s-182-351-202-382c-30-38-160-221-340-247-190-25.4-290 82-290 148 1.97 65.3 62.8 151 267 252 457 227 497 244 497 244 33 13.1 104 55.1 62.2-14.7m19.9 855c-0.59-2.17-1.19-4.05-1.67-5.49zm287-560c-7.65 21.1-23.3 49.3-86-27.8-96.2-118-83.2-43.6-92.2 33.7-1.56 13.1 7.95 48.3-58 104-34.4 29.1-195 73.8-159 111 92.3 93.6 68.2 84.5 102 126 33.7 41.6 158 164 152 339-5.94 174-257 158-257 158-164-29.7-95.1-180 23.8-170 111 9.21 96.1-83.8 87.7-114-0.07-0.22-13.8-36.2-41.3-79.6-36.8-58-82.2-141-126-184-23.7-23-151-104-59.3-150 152-75.5 267-236 208-325-59.4-89.1-527-266-624-309-94-41.3-279-53.5-275-295 3.96-242 262-239 374-210 197 51.7 280 129 354 214 79.5 90.6 238 450 242 454 3.98 3.98 55.5 212 147 236 91.1 23.7 98.3 58.2 87.2 89.1" fill="#231f20"/><path d="m4.2e3 2.1e3c-46.3 19.2-185-52.3-143-171 42.3-122 356 83.4 143 171" fill="#231f20"/></g></g></svg>
