<?xml version="1.0" encoding="UTF-8" standalone="no"?>
<svg xmlns:rdf="http://www.w3.org/1999/02/22-rdf-syntax-ns#" xmlns="http://www.w3.org/2000/svg" xml:space="preserve" height="422" width="624" version="1.1" xmlns:cc="http://creativecommons.org/ns#" viewBox="0 0 624.35999 422.46667" xmlns:dc="http://purl.org/dc/elements/1.1/"><g transform="matrix(1.33 0 0 -1.33 0 422)"><g transform="scale(.1)"><path d="m0 735v247h33.7v-217h111v-30.3h-145" fill="#1c63b7"/><path d="m301 892c-14.3 0-26.2-4.61-35.9-13.8-9.21-8.76-14.4-19.6-15.7-32.7h99.9c0 12.9-4.04 23.7-12.1 32.3-8.88 9.44-20.9 14.2-36.2 14.2zm77-70h-130c0-21.1 5.78-37.3 17.4-48.7 10.2-9.88 23.4-14.8 39.4-14.8 18.3 0 33.6 5.33 45.8 16l13.5-23.1c-4.94-4.94-12.5-9.21-22.7-12.8-12.8-4.73-27.1-7.08-42.8-7.08-22.7 0-41.9 7.69-57.8 23.1-17.6 17-26.4 39.8-26.4 68.4 0 29.8 9.04 53.6 27.1 71.6 16.2 16.1 35.3 24.1 57.4 24.1 25.7 0 45.9-7.25 60.5-21.7 14.2-13.9 21.2-32.4 21.2-55.4 0-7.07-0.84-13.6-2.53-19.5" fill="#1c63b7"/><path d="m502 984c5.5 0 10.2-1.94 14.1-5.81 3.88-3.88 5.81-8.51 5.81-13.9 0-5.51-1.94-10.2-5.81-14.1-3.87-3.87-8.56-5.81-14.1-5.81-5.39 0-10 1.94-13.9 5.81-3.87 3.88-5.81 8.56-5.81 14.1 0 5.5 1.91 10.2 5.73 14 3.82 3.81 8.48 5.73 14 5.73zm-18-249v154h-24.8v27h57v-181h-32" fill="#1c63b7"/><path d="m653 878v-104c0-1.8 3.99-4.75 12-8.84 7.97-4.1 14-6.15 18.2-6.15 21.8 0 37.4 5.22 46.8 15.7 9.43 10.4 14.2 28 14.2 52.6 0 20.4-5.5 36.4-16.5 47.8-11 11.5-25.8 17.2-44.5 17.2-3.93 0-9.41-1.69-16.4-5.06-7.02-3.37-11.6-6.39-13.7-9.09zm-5-130-11-16h-16v258h32v-87.3c3.04 4.15 8.73 7.96 17.1 11.5 8.36 3.48 16.6 5.23 24.7 5.23 24.7 0 44.7-8.54 60.1-25.6 15.3-17.1 23-38.6 23-64.7 0-30.1-7.69-53.8-23.1-71s-36.2-25.9-62.5-25.9c-8.54 0-16.9 1.6-25.2 4.8-8.25 3.19-14.5 7.04-18.8 11.5" fill="#1c63b7"/><path d="m979 735v105c0 19.2-2.89 32.6-8.68 40.3-5.78 7.69-15.5 11.5-29.1 11.5-7.3 0-14.9-2.19-22.9-6.57-7.97-4.39-14.1-9.78-18.4-16.2v-134h-32v180h21.9l10.1-23.3c10.6 17.8 27.8 26.6 51.7 26.6 39.5 0 59.3-24 59.3-72.1v-111h-32" fill="#1c63b7"/><path d="m1.14e3 984c5.49 0 10.2-1.94 14.1-5.81 3.88-3.88 5.81-8.51 5.81-13.9 0-5.51-1.93-10.2-5.81-14.1-3.87-3.87-8.57-5.81-14.1-5.81-5.39 0-10 1.94-13.9 5.81-3.88 3.88-5.82 8.56-5.82 14.1 0 5.5 1.91 10.2 5.73 14 3.82 3.81 8.48 5.73 14 5.73zm-10-249v154h-24.8v27h56.8v-181h-32" fill="#1c63b7"/><path d="m1.3e3 764h100v-28.6h-150v8.41l103 143h-101v28.7h148v-9.11l-99-143" fill="#1c63b7"/><path d="m1.72e3 921-38.2-109h73.3zm61.7-185-17 52.1h-91.8l-18.2-52.1h-37.7l100 250h8.93l93-250h-37.4" fill="#1c63b7"/><path d="m1.88e3 746 11.3 30.3c17.9-11.7 32.2-17.5 43.1-17.5 19.8 0 29.6 8.31 29.6 24.9 0 11.9-9.55 22.1-28.6 30.7-14.7 6.73-24.6 11.8-29.7 15.3-5.12 3.48-9.55 7.44-13.3 11.9-3.77 4.45-6.57 9.16-8.43 14.1-1.85 5-2.78 10.4-2.78 16.1 0 14.8 5.4 26.4 16.2 34.7 10.8 8.31 24.9 12.5 42.3 12.5 13.1 0 29.7-4.17 49.7-12.5l-9.09-29.6c-12.7 10.1-25.4 15.2-38.2 15.2-7.64 0-14.1-1.79-19.3-5.39-5.22-3.59-7.83-8.14-7.83-13.6 0-11.6 6.57-20.3 19.7-26.3l22.9-10.4c14-6.41 24.3-13.7 30.7-21.9 6.39-8.21 9.6-18.5 9.6-30.8 0-16.2-5.68-28.8-17-38-11.4-9.16-27.1-13.7-47.2-13.7-19 0-36.8 4.71-53.6 14.1" fill="#1c63b7"/><path d="m2.08e3 746 11.3 30.3c17.9-11.7 32.2-17.5 43.1-17.5 19.8 0 29.6 8.31 29.6 24.9 0 11.9-9.54 22.1-28.6 30.7-14.7 6.73-24.6 11.8-29.7 15.3-5.11 3.48-9.54 7.44-13.3 11.9-3.76 4.45-6.56 9.16-8.42 14.1-1.85 5-2.78 10.4-2.78 16.1 0 14.8 5.39 26.4 16.2 34.7 10.8 8.31 24.9 12.5 42.3 12.5 13.1 0 29.7-4.17 49.7-12.5l-9.09-29.6c-12.7 10.1-25.4 15.2-38.2 15.2-7.63 0-14.1-1.79-19.3-5.39-5.22-3.59-7.84-8.14-7.84-13.6 0-11.6 6.58-20.3 19.7-26.3l22.9-10.4c14-6.41 24.3-13.7 30.7-21.9 6.39-8.21 9.6-18.5 9.6-30.8 0-16.2-5.68-28.8-17-38-11.3-9.16-27.1-13.7-47.2-13.7-19 0-36.8 4.71-53.6 14.1" fill="#1c63b7"/><path d="m2.31e3 826c0-45.2 16-67.9 48-67.9 14.9 0 26.6 6.06 35.1 18.2 8.49 12.1 12.7 28.7 12.7 49.7 0 44.7-16 67.1-47.8 67.1-14.6 0-26.3-5.96-35-17.9s-13-28.3-13-49.2zm-33.7 0c0 27.9 7.5 50.3 22.5 67.5 15 17.1 34.7 25.7 59.2 25.7 25.8 0 45.9-8.24 60.1-24.7 14.3-16.5 21.4-39.3 21.4-68.5 0-29.1-7.31-52-21.9-68.8s-34.5-25.2-59.6-25.2c-25.7 0-45.8 8.47-60.1 25.4-14.4 16.9-21.6 39.8-21.6 68.6" fill="#1c63b7"/><path d="m2.66e3 901-15.8-22.6c-3.25 3.26-9 6.35-17.3 9.27-8.25 2.92-16.4 4.38-24.3 4.38-17.4 0-31.2-6.09-41.4-18.3s-15.3-28.9-15.3-50.1c0-21.1 5.24-37.2 15.7-48.3 10.4-11.1 24.9-16.6 43.5-16.6 14.4 0 28.9 5.56 43.5 16.7l12.6-27c-17.2-11.1-38.5-16.7-63.8-16.7-24.6 0-44.9 8.25-61 24.8-16.1 16.5-24.1 38.9-24.1 67 0 28.8 8.34 51.8 25 69.2s39.5 26.1 68.5 26.1c9.32 0 19.4-1.98 30.3-5.9 10.9-3.94 18.9-7.98 24.1-12.1" fill="#1c63b7"/><path d="m2.78e3 984c5.48 0 10.2-1.94 14.1-5.81 3.87-3.88 5.8-8.51 5.8-13.9 0-5.51-1.93-10.2-5.8-14.1-3.88-3.87-8.58-5.81-14.1-5.81-5.39 0-10 1.94-13.9 5.81-3.87 3.88-5.81 8.56-5.81 14.1 0 5.5 1.9 10.2 5.73 14 3.81 3.81 8.48 5.73 14 5.73zm-20-249v154h-24.8v27h56.8v-181h-32" fill="#1c63b7"/><path d="m3e3 824c-10.1 2.24-17.2 3.36-21.2 3.36-16.2 0-29.4-4.15-39.6-12.5-10.2-8.31-15.3-18.1-15.3-29.5 0-18.8 11.1-28.1 33.2-28.1 16.2 0 30.5 7.7 42.9 23.1zm3.03-67.9c-12.8-16.1-32.4-24.1-58.8-24.1-14.1 0-26.4 5.13-36.8 15.4s-15.6 23-15.6 38.3c0 18.3 7.99 33.8 24 46.4s36.4 19 61.2 19c6.74 0 14.4-1.47 22.9-4.39 0 29.2-13 43.8-39.1 43.8-20 0-35.4-5.39-46.2-16.2l-13.5 26.8c6.06 4.94 14.5 9.18 25.2 12.7 10.7 3.55 21 5.32 30.7 5.32 26.2 0 45.2-5.96 57-17.9s17.8-30.8 17.8-56.8v-64.7c0-15.8 4.7-26.4 14.1-31.7v-16c-13 0-22.8 1.86-29.2 5.57-6.47 3.7-11.1 9.82-13.9 18.4" fill="#1c63b7"/><path d="m3.15e3 890h-20.9v25.3h20.9v37.7l32 12.3v-50h49.5v-25h-49.5v-89.6c0-15.1 2.56-25.9 7.68-32.3 5.1-6.4 13.3-9.6 24.7-9.6 8.2 0 16.7 2.08 25.4 6.23l4.7-28.1c-13.2-3.36-27.8-5.05-43.6-5.05-14.3 0-26.3 5.3-36.1 15.9-9.82 10.6-14.7 24-14.7 40.2v103" fill="#1c63b7"/><path d="m3.36e3 984c5.51 0 10.2-1.94 14.1-5.81 3.88-3.88 5.82-8.51 5.82-13.9 0-5.51-1.94-10.2-5.82-14.1-3.87-3.87-8.56-5.81-14.1-5.81-5.39 0-10 1.94-13.9 5.81-3.89 3.88-5.82 8.56-5.82 14.1 0 5.5 1.91 10.2 5.72 14 3.83 3.81 8.47 5.73 14 5.73zm-20-249v154h-24.8v27h56.8v-181h-32" fill="#1c63b7"/><path d="m3.5e3 826c0-45.2 16-67.9 48-67.9 14.9 0 26.6 6.06 35.1 18.2 8.48 12.1 12.7 28.7 12.7 49.7 0 44.7-16 67.1-47.8 67.1-14.6 0-26.3-5.96-35-17.9-8.71-11.9-13.1-28.3-13.1-49.2zm-33.7 0c0 27.9 7.5 50.3 22.5 67.5 15 17.1 34.7 25.7 59.2 25.7 25.8 0 45.9-8.24 60.1-24.7 14.3-16.5 21.4-39.3 21.4-68.5 0-29.1-7.31-52-21.9-68.8s-34.5-25.2-59.6-25.2c-25.7 0-45.8 8.47-60.2 25.4s-21.6 39.8-21.6 68.6" fill="#1c63b7"/><path d="m3.83e3 735v105c0 19.2-2.89 32.6-8.68 40.3-5.78 7.69-15.5 11.5-29.1 11.5-7.3 0-14.9-2.19-22.9-6.57-7.97-4.39-14.1-9.78-18.4-16.2v-134h-32v180h21.9l10.1-23.3c10.6 17.8 27.8 26.6 51.7 26.6 39.5 0 59.3-24 59.3-72.1v-111h-32" fill="#1c63b7"/><path d="m2.98e3 1.74e3c-15.7-24.7-43.5 32.7-99.8-38.8-23.4-29.8-8.7-66.1-37.4-97.9-32-35.6-59.4-63.4-33.7 35.6 25.8 99 16.7 57.3 32.6 94.2 15.6 36.2 84.9 220 90.2 235 3.02 8.38 63.9 128 126 218 0 0 167 148 99.7-119-45.1-179-96-198-178-327m3.46-258c-21.8-79.2-53.9-210-90.3-244-32.1-29.7-74.6-105-112 32s59.7 252 59.7 252 41.2 55.5 67.3 53c32.2-3.04 97-13.4 75.3-92.5m-2.05e3 15.4c-13.5-5.65-51.3 26.9-49.9 44 2.78 33.5 37.4-1.03 77.2 0 40.4 1.04-13-38.1-27.3-44m1.05e3 1.17e3c380 348 370 338 400 351 36.4 14.4 169 75.1 194 45.6 31.2-36.2 33.7-121-33.6-188-67.4-67.3-289-294-428-351-132-54.1-583-269-133 143m1.62e3 -1.32e3c34.3-28.2 68.6-72.6 192 42.4s60.5 66.6 127-84.7c66.6-151 109-67.9 113-38.4 10.3 73.9-12.3 219-27.7 278-13 49.4-97.8 73.8-132 49.3-32-23.2-117-119-174-137-56.5-18.1-11.7 36.3-25.8 127-14.1 90.8-47.4 132-83 117-24-10.3-76.4-63.9-101-50.1-47.8 26.9-80.9 142-315 14.2-272-149-28.3 190-28.3 190s182 248 72.7 428-343-206-343-206-123-244-178-502c-54.5-258-166-229-208-174-45.1 59.8-32.6 295-194 196-161-98.8-159-297-256-72.6-96.8 224-199 80-212 56.5-18.4-33-8.89-105-36.3-121-30.9-17.7-69.5 45.8-92.8 54.4-25.1 9.33-188-143-262-284-107-203-278 286-261 316 14.6 26.8 432 604 471 688 41 87.2 101 113 131 117 30.3 4.03 416 68.6 694 363 278 295 236 367 103 442-133 74.6-513-297-531-311-13-9.82-327-363-349-408-22.2-44.4-539-16.1-539-16.1-59.9-29.3 6.4-53.9 6.4-53.9s232-33.7 376-29.7c145 3.97 49.1-80.5 32-101-112-133-323-493-398-569-75.2-75.2-219 8.52-228 9.9-8.5 1.39-224 33.7-180-131 43.6-164 174-91.4 238-107 19.4-4.76 46.8-38.5 57.4-55.4 32-51 47.2-132 80.9-182 49.2-73.2 236-255 381 7.58 150 272 246 170 254 21.8 7.93-149 55.4-93.1 109-69.3 53.5 23.8 7.91 127 13.8 261 5.95 135 117-59.4 109-113-7.89-53.5 75.2-43.6 149-13.9 73.3 29.7 15.8 75.3 117 168 101 93.1 106-125 133-176 21.2-40.9 127-127 180-11.8 53.5 115 137 89.9 119-27.1-18.2-117 82.5-163 115-161 30.9 1.57 208 98.9 210 295 2.02 196 142 195 165 198 23.7 3.19 204 32.3 188-20.1-16.1-52.4-96.9-204-4.03-202 92.8 2.01 54.5 82.7 141 174 86.7 90.8 46.4-157 80.7-186" fill="#231f20"/><path d="m2.49e3 2.18e3c-12.3-131 68.4-88.6 68.4-88.6 150 77.4 31.4 149 31.4 149s-87.5 70.7-99.8-60.6" fill="#231f20"/><path d="m4.37e3 711s-182-351-202-382c-24.6-37.8-152-221-338-246-186-25.7-288 82-286 147 1.97 65.3 62.8 151 267 252 457 227 497 244 497 244 33 13.1 104 55.1 62.2-14.7m19.9 855c-0.6-2.17-1.19-4.05-1.67-5.49zm287-560c-7.66 21.1-23.3 49.3-86-27.8-96.2-118-83.2-43.6-92.2 33.7-1.56 13.1 7.95 48.3-58 104-34.4 29.1-195 73.8-159 111 92.3 93.6 68.2 84.5 102 126 33.7 41.6 158 164 152 339-5.93 174-257 158-257 158-164-29.7-95.1-180 23.8-170 111 9.21 96.1-83.8 87.7-114-0.07-0.22-13.8-36.2-41.3-79.6-36.8-58-82.2-141-126-184-23.7-23-151-104-59.3-150 152-75.5 267-236 208-325-59.4-89.1-527-266-624-309-94-41.3-279-53.5-275-295 3.95-242 262-239 374-210 197 51.7 280 129 354 214 79.5 90.6 238 450 242 454 3.97 3.98 55.5 212 147 236 91.1 23.7 98.3 58.2 87.2 89.1" fill="#231f20"/><path d="m4.21e3 2.1e3c-46.3 19.2-185-52.3-143-171 42.3-122 356 83.4 143 171" fill="#231f20"/></g></g></svg>
