<svg xmlns="http://www.w3.org/2000/svg" width="520" height="210"><defs><clipPath id="a"><path d="M0 419.527h595.275V0H0v419.527z"/></clipPath></defs><g clip-path="url(#a)" transform="matrix(1.25 0 0 -1.25 -112.05 367.2)"><path d="M239.177 250.93V153.3h-6.512c-12.183 0-23.396 5.76-29.5 11.558v-16.85H218.3l6.23-11.986h-2.88l-6.555 4.58h-8.503l3.03-3.276 1.042-9.427h-2.588L196.402 140.6h-18.525l-4.022-4.58h-2.584l3.15 11.986h15.174l-8.19 8.906h-30.518l-8.19-8.906h15.175l3.153-11.986h-2.59l-4.02 4.58h-18.527l-11.677-12.705h-2.585l1.043 9.424 3.03 3.282h-8.503l-6.55-4.58h-2.884l6.236 11.986h15.287v16.834C123.177 159.05 111.97 153.3 99.8 153.3h-6.517v97.63c0 8.23 6.523 12.847 14.68 12.847 10.134 0 17.547-7.135 21.836-14.256l3.48 42.11h16.687s5.074-7.203 6.61-9.38H175.2c1.54 2.165 6.68 9.38 6.68 9.38h16.292l4.382-42.29c4.276 7.18 11.72 14.437 21.94 14.437 8.16 0 14.683-4.616 14.683-12.848" fill="#10427a"/><path d="M165.974 248.67l-4.43-3.325 4.43-9.987 4.516 9.987-4.516 3.326zM193.94 259.968c0-7.29-5.91-13.205-13.206-13.205-7.29 0-13.2 5.914-13.2 13.205 0 7.29 5.91 13.205 13.2 13.205 7.295 0 13.207-5.914 13.207-13.205" fill="#fff"/><path d="M190.755 259.968c0-5.535-4.484-10.02-10.02-10.02-5.535 0-10.02 4.485-10.02 10.02 0 5.533 4.485 10.02 10.02 10.02 5.536 0 10.02-4.487 10.02-10.02" fill="#173e7d"/><path d="M186.51 259.968c0-3.19-2.583-5.777-5.776-5.777-3.188 0-5.778 2.59-5.778 5.778 0 3.19 2.59 5.777 5.778 5.777 3.193 0 5.777-2.588 5.777-5.777M164.498 259.968c0-7.29-5.906-13.205-13.2-13.205-7.292 0-13.202 5.914-13.202 13.205 0 7.29 5.91 13.205 13.2 13.205 7.296 0 13.202-5.914 13.202-13.205" fill="#fff"/><path d="M161.316 259.968c0-5.535-4.482-10.02-10.02-10.02-5.53 0-10.02 4.485-10.02 10.02 0 5.533 4.49 10.02 10.02 10.02 5.538 0 10.02-4.487 10.02-10.02" fill="#173e7d"/><path d="M157.074 259.968c0-3.19-2.584-5.777-5.777-5.777-3.188 0-5.778 2.59-5.778 5.778 0 3.19 2.59 5.777 5.777 5.777 3.193 0 5.777-2.588 5.777-5.777M147.076 194.287c0 .953-.777 1.73-1.732 1.73-.956 0-1.733-.777-1.733-1.73v-11.21c0-.663-.472-1.202-1.057-1.202-.584 0-1.063.54-1.063 1.2v11.212c0 .953-.773 1.73-1.73 1.73-.955 0-1.73-.777-1.73-1.73v-20.275c0-2.573 2.028-4.664 4.523-4.664 2.492 0 4.523 2.09 4.523 4.664v20.275zM162.34 189.656c0 .955-.772 1.732-1.728 1.732-.96 0-1.734-.777-1.734-1.732v-11.213c0-.664-.475-1.203-1.06-1.203-.582 0-1.06.54-1.06 1.203v11.213c0 .955-.774 1.732-1.73 1.732-.96 0-1.734-.777-1.734-1.732V169.38c0-2.574 2.03-4.663 4.524-4.663 2.496 0 4.523 2.09 4.523 4.664v20.276zM178.408 189.656c0 .955-.777 1.732-1.73 1.732-.96 0-1.733-.777-1.733-1.732v-11.213c0-.664-.475-1.203-1.06-1.203-.586 0-1.06.54-1.06 1.203v11.213c0 .955-.774 1.732-1.733 1.732-.957 0-1.73-.777-1.73-1.732V169.38c0-2.574 2.026-4.663 4.523-4.663 2.492 0 4.523 2.09 4.523 4.664v20.276zM193.67 194.287c0 .953-.772 1.73-1.728 1.73-.957 0-1.734-.777-1.734-1.73v-11.21c0-.663-.475-1.202-1.06-1.202-.58 0-1.06.54-1.06 1.2v11.212c0 .953-.774 1.73-1.73 1.73-.955 0-1.728-.777-1.728-1.73v-20.275c0-2.573 2.027-4.664 4.518-4.664 2.496 0 4.523 2.09 4.523 4.664v20.275zM147.076 226.38c0 .955-.777 1.73-1.732 1.73-.956 0-1.733-.775-1.733-1.73v-11.213c0-.662-.472-1.2-1.057-1.2-.584 0-1.063.538-1.063 1.2v11.213c0 .955-.773 1.73-1.73 1.73-.955 0-1.73-.775-1.73-1.73v-20.276c0-2.573 2.028-4.664 4.523-4.664 2.492 0 4.523 2.09 4.523 4.664v20.276zM162.34 221.75c0 .952-.772 1.728-1.728 1.728-.96 0-1.734-.776-1.734-1.73v-11.21c0-.665-.475-1.205-1.06-1.205-.582 0-1.06.54-1.06 1.204v11.212c0 .952-.774 1.728-1.73 1.728-.96 0-1.734-.776-1.734-1.73v-20.277c0-2.568 2.03-4.663 4.524-4.663 2.496 0 4.523 2.095 4.523 4.664v20.28zM178.408 221.75c0 .952-.777 1.728-1.73 1.728-.96 0-1.733-.776-1.733-1.73v-11.21c0-.665-.475-1.205-1.06-1.205-.586 0-1.06.54-1.06 1.204v11.212c0 .952-.774 1.728-1.733 1.728-.957 0-1.73-.776-1.73-1.73v-20.277c0-2.568 2.026-4.663 4.523-4.663 2.492 0 4.523 2.095 4.523 4.664v20.28zM193.67 226.38c0 .955-.772 1.73-1.728 1.73-.957 0-1.734-.775-1.734-1.73v-11.213c0-.662-.475-1.2-1.06-1.2-.58 0-1.06.538-1.06 1.2v11.213c0 .955-.774 1.73-1.73 1.73-.955 0-1.728-.775-1.728-1.73v-20.276c0-2.573 2.027-4.664 4.518-4.664 2.496 0 4.523 2.09 4.523 4.664v20.276zM120.212 178.863c0-2.572 2.03-4.664 4.527-4.664 2.492 0 4.52 2.09 4.52 4.663v56.817c0 .954-.775 1.727-1.73 1.727-.96 0-1.732-.773-1.732-1.727v-47.557c0-.664-.477-1.203-1.06-1.203-.588 0-1.06.54-1.06 1.203v54.956c0 .952-.777 1.727-1.732 1.727s-1.734-.775-1.734-1.728v-64.217zM104.95 172.066c0-2.568 2.026-4.662 4.522-4.662 2.495 0 4.522 2.094 4.522 4.662v78.5c0 .954-.777 1.73-1.732 1.73-.956 0-1.73-.776-1.73-1.73v-61.47c0-.66-.476-1.2-1.06-1.2-.585 0-1.06.54-1.06 1.2v60.268c0 .957-.774 1.73-1.734 1.73-.956 0-1.73-.773-1.73-1.73v-77.298zM212.187 243.09c0 .952-.773 1.728-1.73 1.728-.96 0-1.733-.776-1.733-1.73v-54.955c0-.662-.475-1.2-1.06-1.2-.584 0-1.06.538-1.06 1.2v47.556c0 .956-.774 1.73-1.73 1.73-.96 0-1.734-.774-1.734-1.73v-56.815c0-2.572 2.03-4.664 4.524-4.664 2.496 0 4.523 2.093 4.523 4.665v64.214zM227.454 249.374c0 .955-.777 1.73-1.732 1.73-.956 0-1.733-.775-1.733-1.73v-60.267c0-.66-.474-1.203-1.063-1.203-.58 0-1.06.543-1.06 1.203v61.47c0 .955-.772 1.73-1.73 1.73-.954 0-1.73-.775-1.73-1.73v-78.5c0-2.567 2.03-4.663 4.52-4.663 2.496 0 4.527 2.096 4.527 4.664v77.296zM165.974 248.67l-4.43-3.325 4.43-9.987 4.516 9.987-4.516 3.326zM193.94 259.968c0-7.29-5.91-13.205-13.206-13.205-7.29 0-13.2 5.914-13.2 13.205 0 7.29 5.91 13.205 13.2 13.205 7.295 0 13.207-5.914 13.207-13.205" fill="#fff"/><path d="M190.755 259.968c0-5.535-4.484-10.02-10.02-10.02-5.535 0-10.02 4.485-10.02 10.02 0 5.533 4.485 10.02 10.02 10.02 5.536 0 10.02-4.487 10.02-10.02" fill="#10427a"/><path d="M186.51 259.968c0-3.19-2.583-5.777-5.776-5.777-3.188 0-5.778 2.59-5.778 5.778 0 3.19 2.59 5.777 5.778 5.777 3.193 0 5.777-2.588 5.777-5.777M164.498 259.968c0-7.29-5.906-13.205-13.2-13.205-7.292 0-13.202 5.914-13.202 13.205 0 7.29 5.91 13.205 13.2 13.205 7.296 0 13.202-5.914 13.202-13.205" fill="#fff"/><path d="M161.316 259.968c0-5.535-4.482-10.02-10.02-10.02-5.53 0-10.02 4.485-10.02 10.02 0 5.533 4.49 10.02 10.02 10.02 5.538 0 10.02-4.487 10.02-10.02" fill="#10427a"/><path d="M157.074 259.968c0-3.19-2.584-5.777-5.777-5.777-3.188 0-5.778 2.59-5.778 5.778 0 3.19 2.59 5.777 5.777 5.777 3.193 0 5.777-2.588 5.777-5.777M147.076 194.287c0 .953-.777 1.73-1.732 1.73-.956 0-1.733-.777-1.733-1.73v-11.21c0-.663-.472-1.202-1.057-1.202-.584 0-1.063.54-1.063 1.2v11.212c0 .953-.773 1.73-1.73 1.73-.955 0-1.73-.777-1.73-1.73v-20.275c0-2.573 2.028-4.664 4.523-4.664 2.492 0 4.523 2.09 4.523 4.664v20.275zM162.34 189.656c0 .955-.772 1.732-1.728 1.732-.96 0-1.734-.777-1.734-1.732v-11.213c0-.664-.475-1.203-1.06-1.203-.582 0-1.06.54-1.06 1.203v11.213c0 .955-.774 1.732-1.73 1.732-.96 0-1.734-.777-1.734-1.732V169.38c0-2.574 2.03-4.663 4.524-4.663 2.496 0 4.523 2.09 4.523 4.664v20.276zM178.408 189.656c0 .955-.777 1.732-1.73 1.732-.96 0-1.733-.777-1.733-1.732v-11.213c0-.664-.475-1.203-1.06-1.203-.586 0-1.06.54-1.06 1.203v11.213c0 .955-.774 1.732-1.733 1.732-.957 0-1.73-.777-1.73-1.732V169.38c0-2.574 2.026-4.663 4.523-4.663 2.492 0 4.523 2.09 4.523 4.664v20.276zM193.67 194.287c0 .953-.772 1.73-1.728 1.73-.957 0-1.734-.777-1.734-1.73v-11.21c0-.663-.475-1.202-1.06-1.202-.58 0-1.06.54-1.06 1.2v11.212c0 .953-.774 1.73-1.73 1.73-.955 0-1.728-.777-1.728-1.73v-20.275c0-2.573 2.027-4.664 4.518-4.664 2.496 0 4.523 2.09 4.523 4.664v20.275zM147.076 226.38c0 .955-.777 1.73-1.732 1.73-.956 0-1.733-.775-1.733-1.73v-11.213c0-.662-.472-1.2-1.057-1.2-.584 0-1.063.538-1.063 1.2v11.213c0 .955-.773 1.73-1.73 1.73-.955 0-1.73-.775-1.73-1.73v-20.276c0-2.573 2.028-4.664 4.523-4.664 2.492 0 4.523 2.09 4.523 4.664v20.276zM162.34 221.75c0 .952-.772 1.728-1.728 1.728-.96 0-1.734-.776-1.734-1.73v-11.21c0-.665-.475-1.205-1.06-1.205-.582 0-1.06.54-1.06 1.204v11.212c0 .952-.774 1.728-1.73 1.728-.96 0-1.734-.776-1.734-1.73v-20.277c0-2.568 2.03-4.663 4.524-4.663 2.496 0 4.523 2.095 4.523 4.664v20.28zM178.408 221.75c0 .952-.777 1.728-1.73 1.728-.96 0-1.733-.776-1.733-1.73v-11.21c0-.665-.475-1.205-1.06-1.205-.586 0-1.06.54-1.06 1.204v11.212c0 .952-.774 1.728-1.733 1.728-.957 0-1.73-.776-1.73-1.73v-20.277c0-2.568 2.026-4.663 4.523-4.663 2.492 0 4.523 2.095 4.523 4.664v20.28zM193.67 226.38c0 .955-.772 1.73-1.728 1.73-.957 0-1.734-.775-1.734-1.73v-11.213c0-.662-.475-1.2-1.06-1.2-.58 0-1.06.538-1.06 1.2v11.213c0 .955-.774 1.73-1.73 1.73-.955 0-1.728-.775-1.728-1.73v-20.276c0-2.573 2.027-4.664 4.518-4.664 2.496 0 4.523 2.09 4.523 4.664v20.276zM120.212 178.863c0-2.572 2.03-4.664 4.527-4.664 2.492 0 4.52 2.09 4.52 4.663v56.817c0 .954-.775 1.727-1.73 1.727-.96 0-1.732-.773-1.732-1.727v-47.557c0-.664-.477-1.203-1.06-1.203-.588 0-1.06.54-1.06 1.203v54.956c0 .952-.777 1.727-1.732 1.727s-1.734-.775-1.734-1.728v-64.217zM104.95 172.066c0-2.568 2.026-4.662 4.522-4.662 2.495 0 4.522 2.094 4.522 4.662v78.5c0 .954-.777 1.73-1.732 1.73-.956 0-1.73-.776-1.73-1.73v-61.47c0-.66-.476-1.2-1.06-1.2-.585 0-1.06.54-1.06 1.2v60.268c0 .957-.774 1.73-1.734 1.73-.956 0-1.73-.773-1.73-1.73v-77.298zM212.187 243.09c0 .952-.773 1.728-1.73 1.728-.96 0-1.733-.776-1.733-1.73v-54.955c0-.662-.475-1.2-1.06-1.2-.584 0-1.06.538-1.06 1.2v47.556c0 .956-.774 1.73-1.73 1.73-.96 0-1.734-.774-1.734-1.73v-56.815c0-2.572 2.03-4.664 4.524-4.664 2.496 0 4.523 2.093 4.523 4.665v64.214zM227.454 249.374c0 .955-.777 1.73-1.732 1.73-.956 0-1.733-.775-1.733-1.73v-60.267c0-.66-.474-1.203-1.063-1.203-.58 0-1.06.543-1.06 1.203v61.47c0 .955-.772 1.73-1.73 1.73-.954 0-1.73-.775-1.73-1.73v-78.5c0-2.567 2.03-4.663 4.52-4.663 2.496 0 4.527 2.096 4.527 4.664v77.296z" fill="#fff"/><path d="M286.097 235.567c-4.98 0-8.94 3.377-8.94 8.53v15.962h4.745v-15.794c0-2.797 1.634-4.47 4.195-4.47 2.557 0 4.23 1.673 4.23 4.47v15.793h4.706v-15.964c0-5.152-3.956-8.53-8.936-8.53M316.048 235.773l-9.62 14.906V235.77h-4.743v24.287h4.23l9.62-14.87v14.87h4.74v-24.287h-4.227zM327.985 260.06h4.742v-24.287h-4.742v24.287zM348.59 235.773h-3.548l-8.015 24.287h4.912l4.878-15.828 4.878 15.828h4.946l-8.05-24.287zM360.6 235.773v24.287h15.995v-4.23H365.34v-5.696h9.585v-4.23h-9.586v-5.902h11.255v-4.23H360.6zM391.812 255.83h-4.47v-6.413h4.47c2.08 0 3.445 1.33 3.445 3.205 0 1.877-1.365 3.207-3.445 3.207m3.682-20.058l-4.743 9.688h-3.41v-9.688h-4.74v24.287h9.516c4.946 0 7.882-3.376 7.882-7.438 0-3.41-2.08-5.523-4.436-6.377l5.426-10.473h-5.494zM412.958 235.567c-3.684 0-6.48.785-8.867 3.207l3.07 3.07c1.536-1.535 3.614-2.047 5.868-2.047 2.795 0 4.297 1.06 4.297 3.002 0 .853-.238 1.568-.752 2.046-.474.444-1.02.682-2.146.852l-2.934.408c-2.08.31-3.615.957-4.71 2.016-1.157 1.158-1.74 2.728-1.74 4.775 0 4.33 3.21 7.367 8.46 7.367 3.346 0 5.766-.818 7.846-2.83l-3-2.97c-1.537 1.468-3.38 1.673-4.982 1.673-2.525 0-3.754-1.398-3.754-3.07 0-.613.21-1.262.72-1.738.476-.447 1.26-.822 2.25-.958l2.864-.41c2.217-.307 3.62-.92 4.64-1.875 1.296-1.23 1.876-3.002 1.876-5.15 0-4.708-3.92-7.37-9.006-7.37M427.8 260.06h4.74v-24.287h-4.74v24.287zM448.847 255.83V235.77h-4.74v20.057h-6.346v4.23h17.433v-4.23h-6.346zM468.22 266.747h3.79v-4.266h-3.79v4.267zm-1.703-13.85l-3.07-8.835h6.036l-2.966 8.835zm-5.834 13.85h3.785v-4.266h-3.785v4.267zm11.496-30.975l-1.433 4.3h-8.63l-1.47-4.3h-4.945l8.836 24.288h3.717l8.87-24.288h-4.946zM488.724 255.83V235.77h-4.742v20.057h-6.342v4.23h17.428v-4.23h-6.344zM288.622 213.395c-.82.988-1.91 1.502-3.55 1.502h-3.58V199.07h3.58c1.64 0 2.73.513 3.55 1.5.885 1.093 1.023 2.833 1.023 6.514 0 3.682-.138 5.217-1.023 6.31m3.31-16.236c-1.605-1.6-3.89-2.32-6.415-2.32h-8.766v24.288h8.767c2.525 0 4.81-.714 6.414-2.318 2.727-2.73 2.454-6.072 2.454-9.724 0-3.648.273-7.197-2.453-9.925M300.32 194.838v24.288h16v-4.228h-11.257V209.2h9.586v-4.23h-9.587v-5.902h11.256v-4.23h-16zM329.01 194.635c-3.685 0-6.48.785-8.87 3.207l3.07 3.07c1.535-1.535 3.615-2.047 5.87-2.047 2.796 0 4.296 1.057 4.296 3.002 0 .85-.24 1.57-.75 2.045-.48.446-1.025.684-2.15.856l-2.932.406c-2.084.31-3.62.957-4.71 2.014-1.16 1.16-1.74 2.73-1.74 4.774 0 4.332 3.206 7.367 8.462 7.367 3.344 0 5.766-.817 7.846-2.833l-3.002-2.965c-1.535 1.465-3.38 1.67-4.98 1.67-2.524 0-3.755-1.396-3.755-3.07 0-.61.205-1.26.72-1.74.476-.44 1.26-.816 2.25-.955l2.862-.408c2.22-.308 3.62-.922 4.64-1.877 1.298-1.23 1.876-3 1.876-5.15 0-4.708-3.922-7.368-9.002-7.368M284.9 153.7c-3.68 0-6.48.782-8.868 3.204l3.07 3.07c1.535-1.53 3.617-2.046 5.87-2.046 2.794 0 4.298 1.06 4.298 3.003 0 .853-.242 1.568-.754 2.048-.474.442-1.023.68-2.148.852l-2.932.408c-2.08.307-3.615.955-4.71 2.016-1.16 1.16-1.737 2.728-1.737 4.775 0 4.33 3.206 7.366 8.456 7.366 3.346 0 5.766-.82 7.846-2.832l-3-2.968c-1.536 1.468-3.377 1.673-4.98 1.673-2.526 0-3.753-1.4-3.753-3.07 0-.616.202-1.265.716-1.74.475-.446 1.26-.82 2.25-.956l2.865-.41c2.22-.305 3.616-.92 4.642-1.875 1.295-1.23 1.875-3 1.875-5.152 0-4.707-3.922-7.367-9.006-7.367M307.894 171.03l-3.07-8.837h6.037l-2.966 8.836zm5.662-17.128l-1.432 4.3h-8.63l-1.465-4.3h-4.95l8.835 24.29h3.72l8.866-24.29h-4.944zM331.706 171.03l-3.07-8.837h6.035l-2.964 8.836zm5.66-17.128l-1.43 4.3h-8.63l-1.47-4.3h-4.946l8.836 24.29h3.72l8.865-24.29h-4.944zM355.888 173.963h-4.47v-6.414h4.47c2.08 0 3.445 1.33 3.445 3.204 0 1.875-1.365 3.21-3.445 3.21m3.686-20.062l-4.74 9.692h-3.415v-9.692h-4.743v24.29h9.52c4.947 0 7.88-3.377 7.88-7.438 0-3.41-2.084-5.525-4.435-6.377l5.422-10.475h-5.49zM370.353 153.902v24.29h4.742v-20.06h11.016v-4.23h-15.757zM399.485 171.03l-3.07-8.837h6.037l-2.967 8.836zm5.662-17.128l-1.435 4.3h-8.63l-1.466-4.3h-4.945l8.836 24.29h3.717l8.87-24.29h-4.946zM428.82 153.902l-9.616 14.908v-14.908h-4.742v24.29h4.23l9.617-14.874v14.875h4.74v-24.29h-4.23zM452.632 172.463c-.818.986-1.91 1.5-3.545 1.5H445.5v-15.83h3.587c1.635 0 2.727.514 3.545 1.502.89 1.09 1.025 2.832 1.025 6.514 0 3.684-.136 5.22-1.025 6.313m3.31-16.24c-1.605-1.604-3.89-2.32-6.415-2.32h-8.766v24.29h8.767c2.525 0 4.81-.718 6.416-2.32 2.726-2.728 2.455-6.074 2.455-9.724 0-3.652.27-7.197-2.455-9.927M464.333 153.902v24.29h16.002v-4.23h-11.262v-5.7h9.586v-4.23h-9.587v-5.9h11.262v-4.23h-16.002zM492.99 153.7c-3.685 0-6.485.782-8.87 3.204l3.07 3.07c1.535-1.53 3.615-2.046 5.865-2.046 2.797 0 4.3 1.06 4.3 3.003 0 .853-.24 1.568-.753 2.048-.476.442-1.02.68-2.146.852l-2.936.408c-2.08.307-3.615.955-4.705 2.016-1.16 1.16-1.74 2.728-1.74 4.775 0 4.33 3.205 7.366 8.457 7.366 3.344 0 5.766-.82 7.85-2.832l-3.006-2.968c-1.535 1.468-3.375 1.673-4.98 1.673-2.524 0-3.75-1.4-3.75-3.07 0-.616.204-1.265.714-1.74.48-.446 1.266-.82 2.254-.956l2.863-.41c2.22-.305 3.62-.92 4.64-1.875 1.298-1.23 1.874-3 1.874-5.152 0-4.707-3.92-7.367-9-7.367" fill="#10427a"/></g></svg>