<svg id="Ebene_1" data-name="Ebene 1" xmlns="http://www.w3.org/2000/svg" viewBox="0 0 841.89 595.28"><defs><style>.cls-1,.cls-2{fill:#00529b;}.cls-1{fill-rule:evenodd;}</style></defs><title>Logo_englisch</title><polygon class="cls-1" points="330.08 303.91 322.45 303.91 322.45 333.21 330.08 333.21 330.08 303.91 330.08 303.91"/><path class="cls-1" d="M333.32,313.27v19.94h7.05V322.56c0-2.59,1.37-4.1,3.67-4.1a3,3,0,0,1,2.81,1.51c0.43,0.79.5,1.15,0.5,3.17v10.08h7V320.54c0-2.73-.43-4.1-1.8-5.47a7.71,7.71,0,0,0-5.69-2.23,7.45,7.45,0,0,0-6.48,3v-2.52h-7.05Z"/><path class="cls-1" d="M364.55,319.17h5v-5.9h-5v-2.45a7.34,7.34,0,0,1,.29-2.81,2.51,2.51,0,0,1,2.23-1.3,5,5,0,0,1,2.45.72v-6.12a6.4,6.4,0,0,0-3.1-.79,9.23,9.23,0,0,0-6.55,2.81c-1.73,1.8-2.37,3.6-2.37,6.91v3H355v5.9h2.52v14h7.05v-14h0Z"/><path class="cls-1" d="M381.54,312.55c-7.05,0-12,4.46-12,10.72s5,10.72,12,10.72,11.95-4.46,11.95-10.72-5-10.72-11.95-10.72h0Zm0,6a4.57,4.57,0,1,1-4.61,4.61,4.53,4.53,0,0,1,4.61-4.61h0Z"/><path class="cls-1" d="M395.36,313.27v19.94h7v-8.49q0-5.61,5-5.61a5.6,5.6,0,0,1,3,.72v-6.76h-1.37a7,7,0,0,0-6.55,3.53v-3.31h-7Z"/><path class="cls-1" d="M411.27,313.27v19.94h7v-9.86a7.51,7.51,0,0,1,.5-3.38,3.21,3.21,0,0,1,2.74-1.65,3,3,0,0,1,2.73,1.87c0.29,0.72.36,1.08,0.36,3.17v9.86h7v-9.86c0-3.24,1.15-4.89,3.38-4.89a2.81,2.81,0,0,1,2.59,1.73,7.49,7.49,0,0,1,.36,3.17v9.86H445V320.33c0-4.75-2.37-7.34-6.76-7.34a7.54,7.54,0,0,0-6.7,3.67,7.15,7.15,0,0,0-6.76-3.67,8.37,8.37,0,0,0-6.48,2.81v-2.52h-7Z"/><path class="cls-1" d="M463,313.27v1.95a7.91,7.91,0,0,0-6.19-2.59c-5.69,0-10,4.61-10,10.65s4.39,10.58,10.08,10.58A7.14,7.14,0,0,0,463,331v2.16h7.05V313.27H463Zm-4.32,5.47a4.53,4.53,0,1,1,0,9.07,4.61,4.61,0,0,1-4.54-4.53,4.52,4.52,0,0,1,4.54-4.53h0Z"/><path class="cls-1" d="M488.5,301.68a4,4,0,0,0-4,4,4,4,0,0,0,4,4,3.9,3.9,0,0,0,4-4,4,4,0,0,0-4-4h0Z"/><polygon class="cls-1" points="492.02 313.27 484.97 313.27 484.97 333.21 492.02 333.21 492.02 313.27 492.02 313.27"/><path class="cls-1" d="M505.85,312.55c-7.05,0-12,4.46-12,10.72s5,10.72,12,10.72,11.95-4.46,11.95-10.72-5-10.72-11.95-10.72h0Zm0,6a4.57,4.57,0,1,1-4.61,4.61,4.59,4.59,0,0,1,4.61-4.61h0Z"/><path class="cls-1" d="M519.66,313.27v19.94h7.05V322.56c0-2.59,1.29-4.1,3.67-4.1A3,3,0,0,1,533.2,320c0.36,0.79.43,1.15,0.43,3.17v10.08h7.05V320.54c0-2.73-.43-4.1-1.87-5.47a7.59,7.59,0,0,0-5.69-2.23,7.33,7.33,0,0,0-6.41,3v-2.52h-7.05Z"/><path class="cls-1" d="M356.42,286.06h4.75c6.55,0,9.93-3.45,9.93-9.93a9.59,9.59,0,0,0-2.81-7.2c-1.94-1.8-4-2.45-7.41-2.45H348.79v29.37h7.63v-9.79h0Zm0-6.12V272.6H359c2.73,0,4.17,1.22,4.17,3.6,0,2.59-1.29,3.74-4.25,3.74h-2.52Z"/><path class="cls-1" d="M387.95,276.49a15.36,15.36,0,0,0-6.48-1.29c-5.4,0-8.85,2.81-8.85,7.13,0,3.24,1.51,4.75,5.83,5.61,2.45,0.58,3,.86,3,1.87s-0.93,1.51-2.23,1.51a11.38,11.38,0,0,1-5.61-2l-2.52,5a14.81,14.81,0,0,0,7.92,2.3c5.76,0,9.5-3,9.5-7.41,0-3.24-1.8-5.18-5.76-6-2.88-.57-3.17-0.79-3.17-1.65s0.86-1.44,2.09-1.44a8.78,8.78,0,0,1,3.89.94l2.37-4.54h0Z"/><polygon class="cls-1" points="397.09 293.19 390.32 305.78 398.24 305.78 414.22 275.92 406.16 275.92 400.97 286.14 395.65 275.92 387.44 275.92 397.09 293.19 397.09 293.19"/><path class="cls-1" d="M428.4,276.42a9.78,9.78,0,0,0-4.68-1.15c-6.48,0-11.16,4.53-11.16,10.8a10.55,10.55,0,0,0,10.87,10.44,11.28,11.28,0,0,0,5-1.08v-6a5.81,5.81,0,0,1-3.6,1.3,4.82,4.82,0,1,1-.07-9.64,6,6,0,0,1,3.67,1.29v-6h0Z"/><path class="cls-1" d="M431.13,263.61v32.24h7.05V285.13c0-2.59,1.37-4.1,3.67-4.1a3.09,3.09,0,0,1,2.81,1.58c0.43,0.72.43,1.15,0.43,3.17v10.08h7.05V283.18c0-2.73-.43-4.1-1.87-5.54a7.37,7.37,0,0,0-5.61-2.16,7.27,7.27,0,0,0-6.48,3V263.61h-7.05Z"/><path class="cls-1" d="M466,275.2c-7.05,0-12,4.39-12,10.65s5,10.73,12,10.73,11.95-4.46,11.95-10.73S473,275.2,466,275.2h0Zm0,6a4.52,4.52,0,0,1,4.53,4.54,4.57,4.57,0,1,1-4.53-4.54h0Z"/><polygon class="cls-1" points="486.77 263.61 479.79 263.61 479.79 295.85 486.77 295.85 486.77 263.61 486.77 263.61"/><path class="cls-1" d="M500.59,275.2c-7,0-12,4.39-12,10.65s5,10.73,12,10.73,11.95-4.46,11.95-10.73-5-10.65-11.95-10.65h0Zm0,6a4.52,4.52,0,0,1,4.53,4.54,4.54,4.54,0,1,1-9.07,0,4.52,4.52,0,0,1,4.54-4.54h0Z"/><path class="cls-1" d="M536.72,275.91h-7.05V278a7,7,0,0,0-5.9-2.66c-5.76,0-10.15,4.68-10.15,10.8,0,5.9,4,10.08,9.71,10.08a8.12,8.12,0,0,0,6.34-2.59v1.87c0,3-1.73,4.75-4.54,4.75-1.8,0-2.88-.65-3.38-2h-7.91c0.79,4.68,5.33,7.7,11.37,7.7q5.61,0,8.85-3.24c2-2.09,2.66-4,2.66-8.21V275.91h0Zm-11.23,5.4a4.5,4.5,0,1,1-4.54,4.46,4.5,4.5,0,0,1,4.54-4.46h0Z"/><path class="cls-1" d="M296.82,333.21V296.86H279.19a9.17,9.17,0,0,1-9.14-9.21V241.37h7.27a9.06,9.06,0,0,1,9.14,8.93v42.32a2.58,2.58,0,0,0,2.52,2.66h7.85v-54h16.41v54H321a2.61,2.61,0,0,0,2.66-2.66V250.29a9,9,0,0,1,9-8.93H340v46.28a9.17,9.17,0,0,1-9.14,9.21H313.23v36.35H296.82Z"/><polygon class="cls-1" points="481.08 319.17 481.08 313.27 481.08 307.3 474.03 307.3 474.03 313.27 474.03 319.17 474.03 333.21 481.08 333.21 481.08 319.17 481.08 319.17"/><polygon class="cls-1" points="471.37 313.27 483.75 313.27 483.75 319.17 471.37 319.17 471.37 313.27 471.37 313.27"/><polygon class="cls-1" points="549.04 293.33 542.28 305.93 550.19 305.93 566.17 276.06 558.11 276.06 552.93 286.28 547.6 276.06 539.4 276.06 549.04 293.33 549.04 293.33"/><path class="cls-2" d="M307,342.65L301.35,352h5v2.64H296.12l5.67-9.36h-4.73v-2.64H307Z"/><path class="cls-2" d="M317.61,346.59q0,4.06-4.07,4.06h-1.95v4h-3.11v-12h4.95a4.2,4.2,0,0,1,3,1A3.83,3.83,0,0,1,317.61,346.59Zm-3.27,0q0-1.47-1.71-1.47h-1v3h1A1.44,1.44,0,0,0,314.34,346.62Z"/><path class="cls-2" d="M322.39,354.65h-3.11v-12h3.11v12Z"/><path class="cls-2" d="M335.41,348.64a5.81,5.81,0,0,1-1.76,4.22,5.63,5.63,0,0,1-4.14,1.79H324.9v-12h4.61a5.63,5.63,0,0,1,4.14,1.79A5.79,5.79,0,0,1,335.41,348.64Zm-3.27,0a3.25,3.25,0,0,0-.94-2.43,3.39,3.39,0,0,0-2.48-.92H328V352h0.72a3.39,3.39,0,0,0,2.48-.92A3.28,3.28,0,0,0,332.15,348.64Z"/><path class="cls-2" d="M345.21,351.59h-4.55V349.2h4.55v2.39Z"/><path class="cls-2" d="M357.82,354.65H351v-12h3.11V352h3.75v2.64Z"/><path class="cls-2" d="M367.81,351.1h-6.06a1.61,1.61,0,0,0,1.78,1.84,1.57,1.57,0,0,0,1.38-.78h2.77q-0.83,2.81-4.14,2.81a4.88,4.88,0,0,1-3.43-1.18,4.06,4.06,0,0,1-1.29-3.14,4.26,4.26,0,0,1,1.22-3.22,4.57,4.57,0,0,1,3.31-1.18,4.13,4.13,0,0,1,4.45,4.47v0.38Zm-2.68-1.67a1.56,1.56,0,0,0-1.66-1.31,1.47,1.47,0,0,0-1.66,1.31h3.31Z"/><path class="cls-2" d="M372.51,343.36a1.57,1.57,0,0,1-.47,1.14,1.62,1.62,0,1,1-2.29-2.29A1.61,1.61,0,0,1,372.51,343.36Zm-0.17,11.29h-2.87V346.5h2.87v8.16Z"/><path class="cls-2" d="M383.81,350.56a4.34,4.34,0,0,1-1.19,3.09,3.87,3.87,0,0,1-2.93,1.26,3,3,0,0,1-2.52-1.17v0.9h-2.87V341.46h2.88v5.83a3.43,3.43,0,0,1,2.54-1.06,3.87,3.87,0,0,1,2.92,1.24A4.32,4.32,0,0,1,383.81,350.56Zm-3,0a1.84,1.84,0,0,0-1.85-1.85,1.81,1.81,0,0,0-1.32.54,1.79,1.79,0,0,0-.55,1.33,1.77,1.77,0,0,0,.55,1.31,1.81,1.81,0,0,0,1.32.54,1.77,1.77,0,0,0,1.31-.55A1.82,1.82,0,0,0,380.81,350.56Z"/><path class="cls-2" d="M394.06,354.65h-2.87v-4.12a3.19,3.19,0,0,0-.18-1.3,1.19,1.19,0,0,0-1.16-.63,1.42,1.42,0,0,0-1.52,1.67v4.37h-2.87V346.5h2.87v1a3.38,3.38,0,0,1,1.16-.94,3.69,3.69,0,0,1,1.49-.26,2.87,2.87,0,0,1,3.08,3.15v5.18Z"/><path class="cls-2" d="M399.08,343.36a1.57,1.57,0,0,1-.47,1.14,1.62,1.62,0,1,1-2.29-2.29A1.61,1.61,0,0,1,399.08,343.36Zm-0.17,11.29H396V346.5h2.87v8.16Z"/><path class="cls-2" d="M408.88,346.5l-3.82,5.77h3.44v2.39h-8.24l3.83-5.77h-3.33V346.5h8.12Z"/><path class="cls-2" d="M418.13,354.65H415v-12h3.11v12Z"/><path class="cls-2" d="M429,354.65h-2.87v-4.12a3.23,3.23,0,0,0-.18-1.3,1.19,1.19,0,0,0-1.16-.63,1.42,1.42,0,0,0-1.52,1.67v4.37h-2.87V346.5h2.87v1a3.38,3.38,0,0,1,1.16-.94,3.69,3.69,0,0,1,1.49-.26,2.86,2.86,0,0,1,3.08,3.15v5.18Z"/><path class="cls-2" d="M437.58,351.92a2.67,2.67,0,0,1-1.06,2.21,4.47,4.47,0,0,1-2.82.83,6.32,6.32,0,0,1-3.26-.94l1-2a4.21,4.21,0,0,0,2.3.84c0.6,0,.9-0.21.9-0.63a0.49,0.49,0,0,0-.23-0.45,3.69,3.69,0,0,0-1-.31,3.79,3.79,0,0,1-1.86-.79,2,2,0,0,1-.54-1.51,2.58,2.58,0,0,1,1-2.12,4.11,4.11,0,0,1,2.65-.79,6.73,6.73,0,0,1,2.63.52l-1,1.87a3.54,3.54,0,0,0-1.57-.39q-0.88,0-.88.59a0.6,0.6,0,0,0,.5.52l0.79,0.16Q437.58,350,437.58,351.92Z"/><path class="cls-2" d="M444.12,348.89h-1.64v5.77H439.6v-5.77h-1V346.5h1V344h2.87v2.45h1.64v2.39Z"/><path class="cls-2" d="M448.26,343.36a1.57,1.57,0,0,1-.47,1.14,1.62,1.62,0,1,1-2.29-2.29A1.61,1.61,0,0,1,448.26,343.36Zm-0.17,11.29h-2.87V346.5h2.87v8.16Z"/><path class="cls-2" d="M454.9,348.89h-1.64v5.77h-2.87v-5.77h-1V346.5h1V344h2.87v2.45h1.64v2.39Z"/><path class="cls-2" d="M464.66,351.68q0,3.33-4.33,3.33T456,351.68V346.5h2.87v4.63a1.47,1.47,0,1,0,2.94,0V346.5h2.88v5.19Z"/><path class="cls-2" d="M471.49,348.89h-1.64v5.77H467v-5.77h-1V346.5h1V344h2.87v2.45h1.64v2.39Z"/><path class="cls-2" d="M482,351.24H476a1.61,1.61,0,0,0,1.78,1.84,1.57,1.57,0,0,0,1.38-.78h2.77q-0.83,2.81-4.14,2.81a4.88,4.88,0,0,1-3.43-1.18,4.06,4.06,0,0,1-1.29-3.14,4.26,4.26,0,0,1,1.22-3.22,4.57,4.57,0,0,1,3.31-1.18,4.13,4.13,0,0,1,4.45,4.47v0.38Zm-2.68-1.67a1.56,1.56,0,0,0-1.66-1.31,1.47,1.47,0,0,0-1.66,1.31h3.31Z"/></svg>