<svg xmlns="http://www.w3.org/2000/svg" viewBox="0 0 300 113.77"><title>ZPID_Logo</title><path fill="#005396" fill-rule="evenodd" d="M60.03 62.62H52.4v29.29h7.63V62.62M63.27 72v19.91h7.05V81.26c0-2.59 1.37-4.1 3.67-4.1a3 3 0 0 1 2.81 1.51c.43.79.5 1.15.5 3.17v10.07h7V79.25c0-2.73-.43-4.1-1.8-5.47a7.71 7.71 0 0 0-5.69-2.23 7.45 7.45 0 0 0-6.48 3V72zM94.51 77.88h5V72h-5v-2.47a7.34 7.34 0 0 1 .29-2.81 2.51 2.51 0 0 1 2.2-1.29 5 5 0 0 1 2.45.72V60a6.4 6.4 0 0 0-3.1-.79A9.23 9.23 0 0 0 89.83 62c-1.73 1.8-2.37 3.6-2.37 6.91v3h-2.53v5.9h2.52v14h7.05v-14zM111.49 71.26c-7.05 0-12 4.46-12 10.72s5 10.72 12 10.72 11.95-4.46 11.95-10.7-5-10.72-11.95-10.72zm0 6a4.57 4.57 0 1 1-4.61 4.61 4.53 4.53 0 0 1 4.61-4.61zM125.31 72v19.91h7v-8.49q0-5.61 5-5.61a5.6 5.6 0 0 1 3 .72v-6.77h-1.37a7 7 0 0 0-6.55 3.53V72zM141.22 72v19.91h7v-9.86a7.51 7.51 0 0 1 .5-3.38 3.21 3.21 0 0 1 2.72-1.67 3 3 0 0 1 2.73 1.87c.29.72.36 1.08.36 3.17v9.86h7v-9.85c0-3.24 1.15-4.89 3.38-4.89a2.81 2.81 0 0 1 2.59 1.73 7.49 7.49 0 0 1 .36 3.17v9.86h7.05V79c0-4.75-2.37-7.34-6.76-7.34a7.54 7.54 0 0 0-6.7 3.67 7.15 7.15 0 0 0-6.76-3.67 8.37 8.37 0 0 0-6.48 2.81V72zM193 72v1.95a7.91 7.91 0 0 0-6.19-2.59c-5.69 0-10 4.61-10 10.65s4.39 10.58 10.08 10.58a7.14 7.14 0 0 0 6.11-2.84v2.16h7V72zm-4.32 5.47a4.53 4.53 0 1 1 0 9.07 4.61 4.61 0 0 1-4.56-4.54 4.52 4.52 0 0 1 4.54-4.53zM218.45 60.39a4 4 0 0 0-4 4 4 4 0 0 0 4 4 3.9 3.9 0 0 0 4-4 4 4 0 0 0-4-4zM221.98 71.98h-7.05v19.93h7.05V71.98M235.8 71.26c-7.05 0-12 4.46-12 10.72s5 10.72 12 10.72 11.95-4.46 11.95-10.7-5-10.72-11.95-10.72zm0 6a4.57 4.57 0 1 1-4.61 4.61 4.59 4.59 0 0 1 4.61-4.61zM249.62 72v19.91h7.05V81.26c0-2.59 1.29-4.1 3.67-4.1a3 3 0 0 1 2.81 1.51c.36.79.43 1.15.43 3.17v10.07h7.05V79.25c0-2.73-.43-4.1-1.87-5.47a7.59 7.59 0 0 0-5.69-2.23 7.33 7.33 0 0 0-6.41 3V72zM86.37 44.77h4.75c6.55 0 9.93-3.45 9.93-9.93a9.59 9.59 0 0 0-2.81-7.2c-1.94-1.8-4-2.45-7.41-2.45H78.74v29.37h7.63v-9.79zm0-6.12v-7.34H89c2.73 0 4.17 1.22 4.17 3.6 0 2.59-1.29 3.74-4.25 3.74zM117.9 35.2a15.36 15.36 0 0 0-6.48-1.29c-5.4 0-8.85 2.81-8.85 7.13 0 3.24 1.51 4.75 5.83 5.61 2.45.58 3 .86 3 1.87s-.91 1.48-2.21 1.48a11.38 11.38 0 0 1-5.61-2l-2.52 5a14.81 14.81 0 0 0 7.92 2.3c5.76 0 9.5-3 9.5-7.41 0-3.24-1.8-5.18-5.76-6-2.88-.57-3.17-.79-3.17-1.65s.86-1.44 2.09-1.44a8.78 8.78 0 0 1 3.89.94l2.37-4.54z"/><path fill="#005396" fill-rule="evenodd" d="M127.04 51.89l-6.77 12.6h7.92l15.98-29.87h-8.06l-5.18 10.22-5.33-10.22h-8.21l9.65 17.27M158.35 35.12a9.78 9.78 0 0 0-4.68-1.12c-6.48 0-11.16 4.53-11.16 10.8a10.55 10.55 0 0 0 10.87 10.44 11.28 11.28 0 0 0 5-1.08v-6a5.81 5.81 0 0 1-3.6 1.3 4.82 4.82 0 1 1-.07-9.64 6 6 0 0 1 3.67 1.29v-6zM161.08 22.31v32.25h7.05V43.83c0-2.59 1.37-4.1 3.67-4.1a3.09 3.09 0 0 1 2.81 1.58c.43.72.43 1.15.43 3.17v10.08h7.05V41.89c0-2.73-.43-4.1-1.87-5.54a7.37 7.37 0 0 0-5.61-2.16 7.27 7.27 0 0 0-6.48 3V22.31zM195.92 33.9c-7.05 0-12 4.39-12 10.65s5 10.73 12 10.73 11.95-4.46 11.95-10.73-5-10.65-11.95-10.65zm0 6a4.52 4.52 0 0 1 4.53 4.54 4.57 4.57 0 1 1-4.53-4.54zM216.72 22.31h-6.98v32.25h6.98V22.31M230.54 33.9c-7 0-12 4.39-12 10.65s5 10.73 12 10.73 11.95-4.46 11.95-10.73-5-10.65-11.95-10.65zm0 6a4.52 4.52 0 0 1 4.53 4.54 4.54 4.54 0 1 1-9.07 0 4.52 4.52 0 0 1 4.54-4.54zM266.67 34.62h-7.05v2.09a7 7 0 0 0-5.9-2.66c-5.76 0-10.15 4.68-10.15 10.8 0 5.9 4 10.08 9.71 10.08a8.12 8.12 0 0 0 6.34-2.59v1.86c0 3-1.73 4.75-4.54 4.75-1.8 0-2.88-.65-3.38-2h-7.91c.79 4.68 5.33 7.7 11.37 7.7q5.61 0 8.85-3.24c2-2.09 2.66-4 2.66-8.21V34.62zM255.45 40a4.5 4.5 0 1 1-4.54 4.46 4.5 4.5 0 0 1 4.54-4.46zM276.32 34.62h-7.05v19.94h7.05V34.62zM272.79 23a4 4 0 0 0-4 4 4 4 0 0 0 4 4 4 4 0 0 0 4-4 3.9 3.9 0 0 0-4-4zM300 45.85V45c0-6.85-4.17-11-11.09-11-6.55 0-10.8 4.25-10.8 10.73s4.54 10.58 11.52 10.58c5.33 0 8.78-2.37 10.08-6.91h-6.77a3.51 3.51 0 0 1-3.38 1.94c-2.88 0-4.32-1.44-4.32-4.53zm-14.61-4c.36-2.09 1.8-3.24 4.1-3.24a3.94 3.94 0 0 1 4 3.24zM26.78 91.91V55.57H9.14A9.17 9.17 0 0 1 0 46.35V.07h7.27A9.06 9.06 0 0 1 16.41 9v42.32A2.58 2.58 0 0 0 18.93 54h7.85V0h16.41v54H51a2.61 2.61 0 0 0 2.66-2.66V9a9 9 0 0 1 9-8.93H70v46.28a9.17 9.17 0 0 1-9.14 9.21H43.19v36.35zM211.04 77.88V66h-7.06v25.91h7.06V77.88"/><path fill="#005396" fill-rule="evenodd" d="M201.32 71.98h12.38v5.9h-12.38v-5.9"/><path d="M36.67 101.41L31 110.77h5v2.64H25.79l5.67-9.41h-4.72v-2.64zM47.28 105.34q0 4.06-4.07 4.06h-1.94v4h-3.11v-12h4.95a4.2 4.2 0 0 1 3 1 3.82 3.82 0 0 1 1.17 2.94zm-3.27 0q0-1.47-1.71-1.47h-1v3h1q1.7.04 1.7-1.49zM52.06 113.41H49v-12h3.11zM65.09 107.4a5.81 5.81 0 0 1-1.76 4.22 5.63 5.63 0 0 1-4.14 1.79h-4.62v-12h4.61a5.63 5.63 0 0 1 4.14 1.79 5.79 5.79 0 0 1 1.77 4.2zm-3.27 0a3.25 3.25 0 0 0-.94-2.43 3.39 3.39 0 0 0-2.48-.97h-.72v6.72h.72a3.39 3.39 0 0 0 2.48-.92 3.28 3.28 0 0 0 .94-2.4zM74.88 110.35h-4.55V108h4.55zM87.49 113.41h-6.85v-12h3.11v9.36h3.75zM97.48 109.86h-6.06q0 1.84 1.78 1.84a1.57 1.57 0 0 0 1.38-.78h2.77q-.83 2.81-4.14 2.81a4.88 4.88 0 0 1-3.43-1.18 4.06 4.06 0 0 1-1.29-3.14 4.26 4.26 0 0 1 1.22-3.22A4.57 4.57 0 0 1 93 105a4.13 4.13 0 0 1 4.45 4.47zm-2.68-1.67a1.56 1.56 0 0 0-1.66-1.31 1.47 1.47 0 0 0-1.66 1.31zM102.19 102.12a1.57 1.57 0 0 1-.47 1.14 1.62 1.62 0 1 1-2.29-2.26 1.61 1.61 0 0 1 2.76 1.15zm-.19 11.29h-2.86v-8.16H102zM113.48 109.32a4.34 4.34 0 0 1-1.19 3.09 3.87 3.87 0 0 1-2.93 1.26 3 3 0 0 1-2.52-1.17v.9H104v-13.18h2.87V106a3.43 3.43 0 0 1 2.54-1.06 3.87 3.87 0 0 1 2.92 1.24 4.32 4.32 0 0 1 1.15 3.14zm-3 0a1.84 1.84 0 0 0-1.85-1.85 1.81 1.81 0 0 0-1.32.54 1.79 1.79 0 0 0-.55 1.33 1.77 1.77 0 0 0 .55 1.31 1.81 1.81 0 0 0 1.32.54 1.77 1.77 0 0 0 1.31-.55 1.82 1.82 0 0 0 .54-1.32zM123.74 113.41h-2.87v-4.12a3.21 3.21 0 0 0-.18-1.3 1.19 1.19 0 0 0-1.16-.63q-1.52 0-1.52 1.67v4.37h-2.87v-8.16H118v1a3.38 3.38 0 0 1 1.16-.94 3.69 3.69 0 0 1 1.49-.26 2.87 2.87 0 0 1 3.08 3.15zM128.76 102.12a1.57 1.57 0 0 1-.47 1.14A1.62 1.62 0 1 1 126 101a1.61 1.61 0 0 1 2.76 1.15zm-.17 11.29h-2.87v-8.16h2.88zM138.55 105.25l-3.82 5.75h3.44v2.39h-8.24l3.83-5.77h-3.33v-2.39zM147.8 113.41h-3.11v-12h3.11zM158.66 113.41h-2.87v-4.12a3.21 3.21 0 0 0-.18-1.3 1.19 1.19 0 0 0-1.16-.63q-1.52 0-1.52 1.67v4.37H150v-8.16h2.87v1a3.38 3.38 0 0 1 1.16-.94 3.69 3.69 0 0 1 1.49-.26 2.86 2.86 0 0 1 3.08 3.15zM167.25 110.68a2.66 2.66 0 0 1-1.06 2.21 4.47 4.47 0 0 1-2.82.83 6.3 6.3 0 0 1-3.26-.94l1-2a4.2 4.2 0 0 0 2.3.84q.9 0 .9-.63a.49.49 0 0 0-.23-.45 3.75 3.75 0 0 0-1-.31 3.78 3.78 0 0 1-1.86-.79 2 2 0 0 1-.54-1.51 2.58 2.58 0 0 1 1-2.12 4.12 4.12 0 0 1 2.65-.79 6.74 6.74 0 0 1 2.63.52l-1 1.87a3.53 3.53 0 0 0-1.57-.39q-.88 0-.88.59 0 .34.5.52l.79.16q2.45.45 2.45 2.39zM173.79 107.64h-1.64v5.77h-2.87v-5.77h-1v-2.39h1v-2.45h2.88v2.45h1.64zM177.93 102.12a1.58 1.58 0 0 1-.47 1.14 1.64 1.64 0 1 1 .47-1.14zm-.17 11.29h-2.87v-8.16h2.87zM184.57 107.64h-1.64v5.77h-2.87v-5.77h-1v-2.39h1v-2.45h2.87v2.45h1.64zM194.34 110.44q0 3.33-4.33 3.33t-4.35-3.33v-5.18h2.87v4.63a1.32 1.32 0 0 0 1.48 1.51q1.46 0 1.46-1.51v-4.63h2.87zM201.16 107.64h-1.64v5.77h-2.87v-5.77h-1v-2.39h1v-2.45h2.88v2.45h1.64z" fill="#005396"/></svg>