<svg xmlns="http://www.w3.org/2000/svg" viewBox="0 0 296.12 113.73"><title>ZPID_Logo_Englisch</title><path fill="#00529b" d="M60.03 62.63H52.4v29.3h7.63v-29.3M63.27 72v19.93h7V81.28c0-2.59 1.37-4.1 3.67-4.1a3 3 0 0 1 2.81 1.51c.43.79.5 1.15.5 3.17v10.08h7V79.26c0-2.73-.43-4.1-1.8-5.47a7.71 7.71 0 0 0-5.69-2.23 7.45 7.45 0 0 0-6.48 3V72h-7zM94.5 77.89h5V72h-5v-2.46a7.34 7.34 0 0 1 .29-2.81 2.51 2.51 0 0 1 2.21-1.3 5 5 0 0 1 2.45.72V60a6.4 6.4 0 0 0-3.1-.79A9.23 9.23 0 0 0 89.8 62c-1.73 1.8-2.37 3.6-2.37 6.91v3H85v5.9h2.52v14h7v-14zM111.49 71.27c-7 0-12 4.46-12 10.72s5 10.72 12 10.72 12-4.46 12-10.72-5-10.72-12-10.72zm0 6a4.53 4.53 0 1 1-.16 0zM125.31 72v19.93h7v-8.49q0-5.61 5-5.61a5.6 5.6 0 0 1 3 .72v-6.76h-1.37a7 7 0 0 0-6.55 3.53V72h-7.08zM141.22 72v19.93h7v-9.86a7.51 7.51 0 0 1 .5-3.38 3.21 3.21 0 0 1 2.74-1.69 3 3 0 0 1 2.73 1.87c.29.72.36 1.08.36 3.17v9.86h7v-9.82c0-3.24 1.15-4.89 3.38-4.89a2.81 2.81 0 0 1 2.59 1.73 7.49 7.49 0 0 1 .36 3.17V92H175V79c0-4.75-2.37-7.34-6.76-7.34a7.54 7.54 0 0 0-6.7 3.67 7.15 7.15 0 0 0-6.76-3.67 8.37 8.37 0 0 0-6.48 2.81V72h-7.08zM193 72v2a7.91 7.91 0 0 0-6.19-2.59c-5.69 0-10 4.61-10 10.65s4.39 10.58 10.08 10.58a7.14 7.14 0 0 0 6.11-2.92v2.16h7V72zm-4.32 5.47a4.54 4.54 0 0 1 0 9.07 4.61 4.61 0 0 1-4.59-4.54 4.52 4.52 0 0 1 4.51-4.53h.08zM218.45 60.4a4 4 0 0 0 0 8 3.9 3.9 0 0 0 4-3.8v-.2a4 4 0 0 0-4-4zM221.97 71.99h-7.05v19.94h7.05V71.99M235.8 71.27c-7 0-12 4.46-12 10.72s5 10.72 12 10.72 11.95-4.46 11.95-10.71-5-10.72-12-10.72h.05zm0 6a4.57 4.57 0 1 1-.08 0zM249.61 72v19.93h7V81.28c0-2.59 1.29-4.1 3.67-4.1a3 3 0 0 1 2.82 1.54c.36.79.43 1.15.43 3.17V92h7V79.26c0-2.73-.43-4.1-1.87-5.47a7.59 7.59 0 0 0-5.66-2.23 7.33 7.33 0 0 0-6.41 3V72h-6.95zM86.37 44.78h4.75c6.55 0 9.93-3.45 9.93-9.93a9.59 9.59 0 0 0-2.81-7.2c-1.94-1.8-4-2.45-7.41-2.45H78.74v29.37h7.63v-9.79zm0-6.12v-7.34H89c2.73 0 4.17 1.22 4.17 3.6 0 2.59-1.29 3.74-4.25 3.74h-2.55zM117.9 35.21a15.36 15.36 0 0 0-6.48-1.29c-5.4 0-8.85 2.81-8.85 7.13 0 3.24 1.51 4.75 5.83 5.61 2.45.58 3 .86 3 1.87s-.93 1.47-2.23 1.47a11.38 11.38 0 0 1-5.61-2L101 53a14.81 14.81 0 0 0 7.92 2.3c5.76 0 9.5-3 9.5-7.41 0-3.24-1.8-5.18-5.76-6-2.88-.57-3.17-.79-3.17-1.65s.86-1.44 2.09-1.44a8.78 8.78 0 0 1 3.89.94l2.37-4.54h.06z"/><path fill="#00529b" d="M127.04 51.91l-6.77 12.59h7.92l15.98-29.86h-8.06l-5.19 10.22-5.32-10.22h-8.21l9.65 17.27M158.35 35.14a9.78 9.78 0 0 0-4.68-1.14c-6.48 0-11.16 4.53-11.16 10.8a10.55 10.55 0 0 0 10.65 10.44h.22a11.28 11.28 0 0 0 5-1.08v-6a5.81 5.81 0 0 1-3.6 1.3 4.82 4.82 0 1 1-.07-9.64 6 6 0 0 1 3.67 1.29v-6zM161.08 22.33v32.24h7V43.85c0-2.59 1.37-4.1 3.67-4.1a3.09 3.09 0 0 1 2.81 1.58c.43.72.43 1.15.43 3.17v10.08h7V41.9c0-2.73-.43-4.1-1.87-5.54a7.37 7.37 0 0 0-5.61-2.16 7.27 7.27 0 0 0-6.48 3V22.33zM196 33.92c-7 0-12 4.39-12 10.65s5 10.73 12 10.73 12-4.46 12-10.73-5-10.65-12-10.65zm0 6a4.52 4.52 0 0 1 4.53 4.51 4.57 4.57 0 1 1-4.6-4.54zM216.72 22.33h-6.98v32.24h6.98V22.33M230.54 33.92c-7 0-12 4.39-12 10.65s5 10.73 12 10.73 11.95-4.46 11.95-10.73-5-10.65-12-10.65h.05zm0 6a4.52 4.52 0 0 1 4.53 4.51 4.54 4.54 0 1 1-9.07.43v-.43a4.52 4.52 0 0 1 4.5-4.54zM266.67 34.63h-7v2.09a7 7 0 0 0-5.9-2.66c-5.76 0-10.15 4.68-10.15 10.8 0 5.9 4 10.08 9.71 10.08a8.12 8.12 0 0 0 6.34-2.59v1.87c0 3-1.73 4.75-4.54 4.75-1.8 0-2.88-.65-3.38-2h-7.91c.79 4.68 5.33 7.7 11.37 7.7q5.61 0 8.85-3.24c2-2.09 2.66-4 2.66-8.21V34.63zM255.44 40a4.5 4.5 0 1 1-4.54 4.46 4.5 4.5 0 0 1 4.54-4.46zM26.77 91.93V55.58H9.14A9.17 9.17 0 0 1 0 46.38V.09h7.27A9.06 9.06 0 0 1 16.41 9v42.34a2.58 2.58 0 0 0 2.5 2.66h7.87V0h16.41v54H51a2.61 2.61 0 0 0 2.66-2.56V9a9 9 0 0 1 9-8.93H70v46.29a9.17 9.17 0 0 1-9.13 9.21H43.18v36.35H26.77zM211.03 77.89V66.02h-7.05v25.91h7.05V77.89"/><path fill="#00529b" d="M201.32 71.99h12.38v5.9h-12.38v-5.9M278.99 52.05l-6.76 12.6h7.91l15.98-29.87h-8.06L282.88 45l-5.33-10.22h-8.2l9.64 17.27M37 101.37l-5.65 9.35h5v2.64H26.07l5.67-9.36H27v-2.64h10zM47.56 105.31q0 4.06-4.07 4.06h-2v4h-3.06v-12h5a4.2 4.2 0 0 1 3 1 3.83 3.83 0 0 1 1.13 2.94zm-3.27 0q0-1.47-1.71-1.47h-1v3h1a1.44 1.44 0 0 0 1.71-1.5zM52.34 113.37h-3.11v-12h3.11zM65.36 107.36a5.81 5.81 0 0 1-1.76 4.22 5.63 5.63 0 0 1-4.14 1.79h-4.61v-12h4.61a5.63 5.63 0 0 1 4.14 1.79 5.79 5.79 0 0 1 1.76 4.2zm-3.27 0a3.25 3.25 0 0 0-.94-2.43 3.39 3.39 0 0 0-2.48-.92H58v6.71h.72a3.39 3.39 0 0 0 2.48-.92 3.28 3.28 0 0 0 1-2.44zM75.16 110.31h-4.55v-2.39h4.55zM87.77 113.37H81v-12h3.11v9.35h3.75v2.64zM97.76 109.82H91.7a1.61 1.61 0 0 0 1.78 1.84 1.57 1.57 0 0 0 1.38-.78h2.77q-.83 2.81-4.14 2.81a4.88 4.88 0 0 1-3.43-1.18 4.06 4.06 0 0 1-1.29-3.14 4.26 4.26 0 0 1 1.23-3.22 4.57 4.57 0 0 1 3.3-1.15 4.13 4.13 0 0 1 4.45 4.47v.35zm-2.68-1.67a1.56 1.56 0 0 0-1.66-1.31 1.47 1.47 0 0 0-1.65 1.26v.05h3.31zM102.46 102.08a1.57 1.57 0 0 1-.47 1.14 1.62 1.62 0 0 1-2.36-2.22l.07-.07a1.61 1.61 0 0 1 2.76 1.15zm-.17 11.29h-2.87v-8.15h2.87v8.16zM113.76 109.28a4.34 4.34 0 0 1-1.19 3.09 3.87 3.87 0 0 1-2.93 1.26 3 3 0 0 1-2.52-1.17v.9h-2.87v-13.18h2.88V106a3.43 3.43 0 0 1 2.54-1.06 3.87 3.87 0 0 1 2.92 1.24 4.32 4.32 0 0 1 1.17 3.1zm-3 0a1.84 1.84 0 0 0-1.83-1.85 1.81 1.81 0 0 0-1.32.54 1.79 1.79 0 0 0-.55 1.33 1.77 1.77 0 0 0 .55 1.31 1.81 1.81 0 0 0 1.32.54 1.77 1.77 0 0 0 1.31-.55 1.82 1.82 0 0 0 .52-1.32zM124 113.37h-2.87v-4.12A3.19 3.19 0 0 0 121 108a1.19 1.19 0 0 0-1.16-.63 1.42 1.42 0 0 0-1.52 1.67v4.37h-2.87v-8.14h2.87v1a3.38 3.38 0 0 1 1.16-.94 3.69 3.69 0 0 1 1.49-.26 2.87 2.87 0 0 1 3.08 3.15v5.2zM129 102.08a1.57 1.57 0 0 1-.47 1.14 1.62 1.62 0 0 1-2.33-2.22l.07-.07a1.61 1.61 0 0 1 2.76 1.15zm-.17 11.29H126v-8.15h2.87v8.16zM138.83 105.22L135 111h3.44v2.39h-8.24l3.83-5.77h-3.33v-2.39zM148.08 113.37H145v-12h3.11v12zM159 113.37h-2.87v-4.12a3.23 3.23 0 0 0-.18-1.3 1.19 1.19 0 0 0-1.16-.63 1.42 1.42 0 0 0-1.52 1.67v4.37h-2.87v-8.14h2.87v1a3.38 3.38 0 0 1 1.16-.94 3.69 3.69 0 0 1 1.49-.26 2.86 2.86 0 0 1 3.08 3.15v5.2zM167.53 110.64a2.67 2.67 0 0 1-1.06 2.21 4.47 4.47 0 0 1-2.82.83 6.32 6.32 0 0 1-3.26-.94l1-2a4.21 4.21 0 0 0 2.3.84q.9 0 .9-.63a.49.49 0 0 0-.23-.45 3.69 3.69 0 0 0-1-.31 3.79 3.79 0 0 1-1.86-.79 2 2 0 0 1-.54-1.51 2.58 2.58 0 0 1 1-2.12 4.11 4.11 0 0 1 2.65-.79 6.73 6.73 0 0 1 2.63.52l-1 1.87a3.54 3.54 0 0 0-1.57-.39q-.88 0-.88.59a.6.6 0 0 0 .5.52l.79.16q2.45.47 2.45 2.39zM174.07 107.61h-1.64v5.77h-2.88v-5.77h-1v-2.39h1v-2.5h2.87v2.45h1.64v2.44zM178.21 102.08a1.57 1.57 0 0 1-.47 1.14 1.62 1.62 0 1 1-2.36-2.22l.07-.07a1.61 1.61 0 0 1 2.76 1.15zm-.21 11.29h-2.87v-8.15H178v8.16zM184.85 107.61h-1.64v5.77h-2.87v-5.77h-1v-2.39h1v-2.5h2.87v2.45h1.64zM194.61 110.4q0 3.33-4.33 3.33T186 110.4v-5.18h2.87v4.63a1.47 1.47 0 0 0 2.94 0v-4.63h2.88v5.19zM201.44 107.61h-1.64v5.77H197v-5.77h-1v-2.39h1v-2.5h2.87v2.45h1.64v2.39zM210.76 109.82h-6.06a1.61 1.61 0 0 0 1.78 1.84 1.57 1.57 0 0 0 1.38-.78h2.77q-.83 2.81-4.14 2.81a4.88 4.88 0 0 1-3.43-1.18 4.06 4.06 0 0 1-1.29-3.14 4.26 4.26 0 0 1 1.23-3.22 4.57 4.57 0 0 1 3.3-1.15 4.13 4.13 0 0 1 4.45 4.47v.35zm-2.68-1.67a1.56 1.56 0 0 0-1.66-1.31 1.47 1.47 0 0 0-1.65 1.26v.05h3.31z"/></svg>