<?xml version="1.0" encoding="UTF-8"?><svg xmlns="http://www.w3.org/2000/svg" xmlns:xlink="http://www.w3.org/1999/xlink" fill-opacity="1" color-rendering="auto" color-interpolation="auto" text-rendering="auto" stroke="black" stroke-linecap="square" width="578" stroke-miterlimit="10" shape-rendering="auto" stroke-opacity="1" fill="black" stroke-dasharray="none" font-weight="normal" stroke-width="1" height="224" font-family="'Dialog'" font-style="normal" stroke-linejoin="miter" font-size="12px" stroke-dashoffset="0" image-rendering="auto">
  <!--Generated by ySVG 2.5-->
  <defs id="genericDefs"/>
  <g>
    <g fill="white" text-rendering="geometricPrecision" shape-rendering="geometricPrecision" transform="translate(-63,-180)" stroke="white">
      <rect x="63" width="578" height="224" y="180" clip-path="url(#clipPath2)" stroke="none"/>
    </g>
    <g fill="rgb(255,204,0)" text-rendering="geometricPrecision" shape-rendering="geometricPrecision" transform="matrix(1,0,0,1,-63,-180)" stroke="rgb(255,204,0)">
      <rect x="78.918" width="84.0547" height="30" y="225" clip-path="url(#clipPath2)" stroke="none"/>
    </g>
    <g text-rendering="geometricPrecision" stroke-miterlimit="1.45" shape-rendering="geometricPrecision" transform="matrix(1,0,0,1,-63,-180)" stroke-linecap="butt">
      <rect fill="none" x="78.918" width="84.0547" height="30" y="225" clip-path="url(#clipPath2)"/>
      <text x="83.8584" xml:space="preserve" y="244.1543" clip-path="url(#clipPath2)" font-family="sans-serif" stroke="none">English data</text>
    </g>
    <g fill="rgb(255,204,0)" text-rendering="geometricPrecision" shape-rendering="geometricPrecision" transform="matrix(1,0,0,1,-63,-180)" stroke="rgb(255,204,0)">
      <rect x="198.918" width="84.0547" height="30" y="195" clip-path="url(#clipPath2)" stroke="none"/>
    </g>
    <g text-rendering="geometricPrecision" stroke-miterlimit="1.45" shape-rendering="geometricPrecision" transform="matrix(1,0,0,1,-63,-180)" stroke-linecap="butt">
      <rect fill="none" x="198.918" width="84.0547" height="30" y="195" clip-path="url(#clipPath2)"/>
      <text x="201.8311" xml:space="preserve" y="214.1543" clip-path="url(#clipPath2)" font-family="sans-serif" stroke="none">Spanish data</text>
    </g>
    <g fill="rgb(255,204,0)" text-rendering="geometricPrecision" shape-rendering="geometricPrecision" transform="matrix(1,0,0,1,-63,-180)" stroke="rgb(255,204,0)">
      <rect x="198.918" width="84.0547" height="30" y="225" clip-path="url(#clipPath2)" stroke="none"/>
    </g>
    <g text-rendering="geometricPrecision" stroke-miterlimit="1.45" shape-rendering="geometricPrecision" transform="matrix(1,0,0,1,-63,-180)" stroke-linecap="butt">
      <rect fill="none" x="198.918" width="84.0547" height="30" y="225" clip-path="url(#clipPath2)"/>
      <text x="205.0098" xml:space="preserve" y="244.1543" clip-path="url(#clipPath2)" font-family="sans-serif" stroke="none">French data</text>
    </g>
    <g fill="rgb(255,204,0)" text-rendering="geometricPrecision" shape-rendering="geometricPrecision" transform="matrix(1,0,0,1,-63,-180)" stroke="rgb(255,204,0)">
      <rect x="198.918" width="84.0547" height="30" y="255" clip-path="url(#clipPath2)" stroke="none"/>
    </g>
    <g text-rendering="geometricPrecision" stroke-miterlimit="1.45" shape-rendering="geometricPrecision" transform="matrix(1,0,0,1,-63,-180)" stroke-linecap="butt">
      <rect fill="none" x="198.918" width="84.0547" height="30" y="255" clip-path="url(#clipPath2)"/>
      <text x="201.3916" xml:space="preserve" y="274.1543" clip-path="url(#clipPath2)" font-family="sans-serif" stroke="none">German data</text>
    </g>
    <g fill="rgb(255,204,0)" text-rendering="geometricPrecision" shape-rendering="geometricPrecision" transform="matrix(1,0,0,1,-63,-180)" stroke="rgb(255,204,0)">
      <rect x="78.918" width="84.0547" height="30" y="329" clip-path="url(#clipPath2)" stroke="none"/>
    </g>
    <g text-rendering="geometricPrecision" stroke-miterlimit="1.45" shape-rendering="geometricPrecision" transform="matrix(1,0,0,1,-63,-180)" stroke-linecap="butt">
      <rect fill="none" x="78.918" width="84.0547" height="30" y="329" clip-path="url(#clipPath2)"/>
      <text x="81.8311" xml:space="preserve" y="348.1543" clip-path="url(#clipPath2)" font-family="sans-serif" stroke="none">Spanish data</text>
    </g>
    <g fill="rgb(255,204,0)" text-rendering="geometricPrecision" shape-rendering="geometricPrecision" transform="matrix(1,0,0,1,-63,-180)" stroke="rgb(255,204,0)">
      <rect x="198.918" width="84.0547" height="30" y="299" clip-path="url(#clipPath2)" stroke="none"/>
    </g>
    <g text-rendering="geometricPrecision" stroke-miterlimit="1.45" shape-rendering="geometricPrecision" transform="matrix(1,0,0,1,-63,-180)" stroke-linecap="butt">
      <rect fill="none" x="198.918" width="84.0547" height="30" y="299" clip-path="url(#clipPath2)"/>
      <text x="203.8584" xml:space="preserve" y="318.1543" clip-path="url(#clipPath2)" font-family="sans-serif" stroke="none">English data</text>
    </g>
    <g fill="rgb(255,204,0)" text-rendering="geometricPrecision" shape-rendering="geometricPrecision" transform="matrix(1,0,0,1,-63,-180)" stroke="rgb(255,204,0)">
      <rect x="198.918" width="84.0547" height="30" y="329" clip-path="url(#clipPath2)" stroke="none"/>
    </g>
    <g text-rendering="geometricPrecision" stroke-miterlimit="1.45" shape-rendering="geometricPrecision" transform="matrix(1,0,0,1,-63,-180)" stroke-linecap="butt">
      <rect fill="none" x="198.918" width="84.0547" height="30" y="329" clip-path="url(#clipPath2)"/>
      <text x="205.0098" xml:space="preserve" y="348.1543" clip-path="url(#clipPath2)" font-family="sans-serif" stroke="none">French data</text>
    </g>
    <g fill="rgb(255,204,0)" text-rendering="geometricPrecision" shape-rendering="geometricPrecision" transform="matrix(1,0,0,1,-63,-180)" stroke="rgb(255,204,0)">
      <rect x="198.918" width="84.0547" height="30" y="359" clip-path="url(#clipPath2)" stroke="none"/>
    </g>
    <g text-rendering="geometricPrecision" stroke-miterlimit="1.45" shape-rendering="geometricPrecision" transform="matrix(1,0,0,1,-63,-180)" stroke-linecap="butt">
      <rect fill="none" x="198.918" width="84.0547" height="30" y="359" clip-path="url(#clipPath2)"/>
      <text x="201.3916" xml:space="preserve" y="378.1543" clip-path="url(#clipPath2)" font-family="sans-serif" stroke="none">German data</text>
    </g>
    <g fill="rgb(255,204,0)" text-rendering="geometricPrecision" shape-rendering="geometricPrecision" transform="matrix(1,0,0,1,-63,-180)" stroke="rgb(255,204,0)">
      <rect x="541.082" width="84.0547" height="30" y="225" clip-path="url(#clipPath2)" stroke="none"/>
    </g>
    <g text-rendering="geometricPrecision" stroke-miterlimit="1.45" shape-rendering="geometricPrecision" transform="matrix(1,0,0,1,-63,-180)" stroke-linecap="butt">
      <rect fill="none" x="541.082" width="84.0547" height="30" y="225" clip-path="url(#clipPath2)"/>
      <text x="547.1738" xml:space="preserve" y="244.1543" clip-path="url(#clipPath2)" font-family="sans-serif" stroke="none">French data</text>
    </g>
    <g fill="rgb(255,204,0)" text-rendering="geometricPrecision" shape-rendering="geometricPrecision" transform="matrix(1,0,0,1,-63,-180)" stroke="rgb(255,204,0)">
      <rect x="427.0273" width="84.0547" height="30" y="195" clip-path="url(#clipPath2)" stroke="none"/>
    </g>
    <g text-rendering="geometricPrecision" stroke-miterlimit="1.45" shape-rendering="geometricPrecision" transform="matrix(1,0,0,1,-63,-180)" stroke-linecap="butt">
      <rect fill="none" x="427.0273" width="84.0547" height="30" y="195" clip-path="url(#clipPath2)"/>
      <text x="429.9404" xml:space="preserve" y="214.1543" clip-path="url(#clipPath2)" font-family="sans-serif" stroke="none">Spanish data</text>
    </g>
    <g fill="rgb(255,204,0)" text-rendering="geometricPrecision" shape-rendering="geometricPrecision" transform="matrix(1,0,0,1,-63,-180)" stroke="rgb(255,204,0)">
      <rect x="427.0273" width="84.0547" height="30" y="225" clip-path="url(#clipPath2)" stroke="none"/>
    </g>
    <g text-rendering="geometricPrecision" stroke-miterlimit="1.45" shape-rendering="geometricPrecision" transform="matrix(1,0,0,1,-63,-180)" stroke-linecap="butt">
      <rect fill="none" x="427.0273" width="84.0547" height="30" y="225" clip-path="url(#clipPath2)"/>
      <text x="431.9678" xml:space="preserve" y="244.1543" clip-path="url(#clipPath2)" font-family="sans-serif" stroke="none">English data</text>
    </g>
    <g fill="rgb(255,204,0)" text-rendering="geometricPrecision" shape-rendering="geometricPrecision" transform="matrix(1,0,0,1,-63,-180)" stroke="rgb(255,204,0)">
      <rect x="427.0273" width="84.0547" height="30" y="255" clip-path="url(#clipPath2)" stroke="none"/>
    </g>
    <g text-rendering="geometricPrecision" stroke-miterlimit="1.45" shape-rendering="geometricPrecision" transform="matrix(1,0,0,1,-63,-180)" stroke-linecap="butt">
      <rect fill="none" x="427.0273" width="84.0547" height="30" y="255" clip-path="url(#clipPath2)"/>
      <text x="429.501" xml:space="preserve" y="274.1543" clip-path="url(#clipPath2)" font-family="sans-serif" stroke="none">German data</text>
    </g>
    <g fill="rgb(255,204,0)" text-rendering="geometricPrecision" shape-rendering="geometricPrecision" transform="matrix(1,0,0,1,-63,-180)" stroke="rgb(255,204,0)">
      <rect x="541.082" width="84.0547" height="30" y="329" clip-path="url(#clipPath2)" stroke="none"/>
    </g>
    <g text-rendering="geometricPrecision" stroke-miterlimit="1.45" shape-rendering="geometricPrecision" transform="matrix(1,0,0,1,-63,-180)" stroke-linecap="butt">
      <rect fill="none" x="541.082" width="84.0547" height="30" y="329" clip-path="url(#clipPath2)"/>
      <text x="543.5557" xml:space="preserve" y="348.1543" clip-path="url(#clipPath2)" font-family="sans-serif" stroke="none">German data</text>
    </g>
    <g fill="rgb(255,204,0)" text-rendering="geometricPrecision" shape-rendering="geometricPrecision" transform="matrix(1,0,0,1,-63,-180)" stroke="rgb(255,204,0)">
      <rect x="427.0273" width="84.0547" height="30" y="299" clip-path="url(#clipPath2)" stroke="none"/>
    </g>
    <g text-rendering="geometricPrecision" stroke-miterlimit="1.45" shape-rendering="geometricPrecision" transform="matrix(1,0,0,1,-63,-180)" stroke-linecap="butt">
      <rect fill="none" x="427.0273" width="84.0547" height="30" y="299" clip-path="url(#clipPath2)"/>
      <text x="429.9404" xml:space="preserve" y="318.1543" clip-path="url(#clipPath2)" font-family="sans-serif" stroke="none">Spanish data</text>
    </g>
    <g fill="rgb(255,204,0)" text-rendering="geometricPrecision" shape-rendering="geometricPrecision" transform="matrix(1,0,0,1,-63,-180)" stroke="rgb(255,204,0)">
      <rect x="427.0273" width="84.0547" height="30" y="329" clip-path="url(#clipPath2)" stroke="none"/>
    </g>
    <g text-rendering="geometricPrecision" stroke-miterlimit="1.45" shape-rendering="geometricPrecision" transform="matrix(1,0,0,1,-63,-180)" stroke-linecap="butt">
      <rect fill="none" x="427.0273" width="84.0547" height="30" y="329" clip-path="url(#clipPath2)"/>
      <text x="431.9678" xml:space="preserve" y="348.1543" clip-path="url(#clipPath2)" font-family="sans-serif" stroke="none">English data</text>
    </g>
    <g fill="rgb(255,204,0)" text-rendering="geometricPrecision" shape-rendering="geometricPrecision" transform="matrix(1,0,0,1,-63,-180)" stroke="rgb(255,204,0)">
      <rect x="427.0273" width="84.0547" height="30" y="359" clip-path="url(#clipPath2)" stroke="none"/>
    </g>
    <g text-rendering="geometricPrecision" stroke-miterlimit="1.45" shape-rendering="geometricPrecision" transform="matrix(1,0,0,1,-63,-180)" stroke-linecap="butt">
      <rect fill="none" x="427.0273" width="84.0547" height="30" y="359" clip-path="url(#clipPath2)"/>
      <text x="433.1191" xml:space="preserve" y="378.1543" clip-path="url(#clipPath2)" font-family="sans-serif" stroke="none">French data</text>
    </g>
    <g fill="rgb(255,204,0)" text-rendering="geometricPrecision" shape-rendering="geometricPrecision" transform="matrix(1,0,0,1,-63,-180)" stroke="rgb(255,204,0)">
      <rect x="312.9727" width="84.0547" height="30" y="195" clip-path="url(#clipPath2)" stroke="none"/>
    </g>
    <g text-rendering="geometricPrecision" stroke-miterlimit="1.45" shape-rendering="geometricPrecision" transform="matrix(1,0,0,1,-63,-180)" stroke-linecap="butt">
      <rect fill="none" x="312.9727" width="84.0547" height="30" y="195" clip-path="url(#clipPath2)"/>
      <text x="336.7656" xml:space="preserve" y="214.1543" clip-path="url(#clipPath2)" font-family="sans-serif" stroke="none">Query</text>
    </g>
    <g text-rendering="geometricPrecision" shape-rendering="geometricPrecision" transform="matrix(2.172,0,0,2.172,249.375,75)">
      <g clip-path="url(#clipPath3)">
        <svg xml:space="preserve" opacity="1" writing-mode="lr-tb" stop-color="rgb(0, 0, 0)" shape-rendering="auto" glyph-orientation-horizontal="0deg" color-profile="auto" lighting-color="rgb(255, 255, 255)" color="rgb(0, 0, 0)" font-weight="400" alignment-baseline="auto" font-style="normal" version="1.1" color-interpolation-filters="linearrgb" text-anchor="start" stroke-linecap="butt" color-interpolation="srgb" font-variant="normal" word-spacing="normal" fill-opacity="1" text-rendering="auto" clip-path="none" text-decoration="none" letter-spacing="normal" viewBox="0 0 40 48" glyph-orientation-vertical="auto" display="inline" font-size-adjust="none" overflow="visible" fill="rgb(0, 0, 0)" font-stretch="normal" stroke-dasharray="none" stroke-miterlimit="4" stop-opacity="1" color-rendering="auto" font-size="12" pointer-events="visiblepainted" mask="none" direction="ltr" baseline-shift="baseline" enable-background="new 0 0 40 48" fill-rule="nonzero" image-rendering="auto" stroke-dashoffset="0" width="40px" marker-end="none" clip="auto" cursor="auto" stroke="none" filter="none" visibility="visible" kerning="auto" stroke-width="1" font-family="&quot;Arial&quot;,&quot;Helvetica&quot;,sans-serif" flood-opacity="1" clip-rule="nonzero" src="none" height="48px" unicode-bidi="normal" stroke-linejoin="miter" stroke-opacity="1" flood-color="rgb(0, 0, 0)" dominant-baseline="auto" marker-start="none" x="0px" marker-mid="none" y="0px">
<defs>
<clipPath clipPathUnits="userSpaceOnUse" id="clipPath1">
              <path d="M0 0 L578 0 L578 224 L0 224 L0 0 Z"/>
            </clipPath>
            <clipPath clipPathUnits="userSpaceOnUse" id="clipPath2">
              <path d="M63 180 L641 180 L641 404 L63 404 L63 180 Z"/>
            </clipPath>
            <clipPath clipPathUnits="userSpaceOnUse" id="clipPath3">
              <path d="M-114.8149 -34.5308 L151.3024 -34.5308 L151.3024 68.6012 L-114.8149 68.6012 L-114.8149 -34.5308 Z"/>
            </clipPath>
          </defs>
<linearGradient gradientTransform="matrix(1 0 0 1 -370.2002 -614.5742)" x1="370.2002" x2="409.4502" gradientUnits="userSpaceOnUse" y1="655.0938" y2="655.0938" id="svg1.SVGID_1_">
	<stop offset="0" style="stop-color:#4D4D4D"/>
	<stop offset="0.0558" style="stop-color:#5F5F5F"/>
	<stop offset="0.2103" style="stop-color:#8D8D8D"/>
	<stop offset="0.3479" style="stop-color:#AEAEAE"/>
	<stop offset="0.4623" style="stop-color:#C2C2C2"/>
	<stop offset="0.5394" style="stop-color:#C9C9C9"/>
	<stop offset="0.6247" style="stop-color:#C5C5C5"/>
	<stop offset="0.7072" style="stop-color:#BABABA"/>
	<stop offset="0.7885" style="stop-color:#A6A6A6"/>
	<stop offset="0.869" style="stop-color:#8B8B8B"/>
	<stop offset="0.9484" style="stop-color:#686868"/>
	<stop offset="1" style="stop-color:#4D4D4D"/>
</linearGradient>
<path fill="url(#svg1.SVGID_1_)" d="M19.625,37.613C8.787,37.613,0,35.738,0,33.425v10c0,2.313,8.787,4.188,19.625,4.188  c10.839,0,19.625-1.875,19.625-4.188v-10C39.25,35.738,30.464,37.613,19.625,37.613z"/>
<linearGradient gradientTransform="matrix(1 0 0 1 -370.2002 -614.5742)" x1="370.2002" x2="409.4502" gradientUnits="userSpaceOnUse" y1="649.0938" y2="649.0938" id="svg1.SVGID_2_">
	<stop offset="0" style="stop-color:#B3B3B3"/>
	<stop offset="0.0171" style="stop-color:#B6B6B6"/>
	<stop offset="0.235" style="stop-color:#D7D7D7"/>
	<stop offset="0.4168" style="stop-color:#EBEBEB"/>
	<stop offset="0.5394" style="stop-color:#F2F2F2"/>
	<stop offset="0.6579" style="stop-color:#EEEEEE"/>
	<stop offset="0.7724" style="stop-color:#E3E3E3"/>
	<stop offset="0.8853" style="stop-color:#CFCFCF"/>
	<stop offset="0.9965" style="stop-color:#B4B4B4"/>
	<stop offset="1" style="stop-color:#B3B3B3"/>
</linearGradient>
<path fill="url(#svg1.SVGID_2_)" d="M19.625,37.613c10.839,0,19.625-1.875,19.625-4.188l-1.229-2c0,2.168-8.235,3.927-18.396,3.927  c-9.481,0-17.396-1.959-18.396-3.927l-1.229,2C0,35.738,8.787,37.613,19.625,37.613z"/>
<linearGradient gradientTransform="matrix(1 0 0 1 -370.2002 -614.5742)" x1="371.4297" x2="408.2217" gradientUnits="userSpaceOnUse" y1="646" y2="646" id="svg1.SVGID_3_">
	<stop offset="0" style="stop-color:#C9C9C9"/>
	<stop offset="1" style="stop-color:#808080"/>
</linearGradient>
<ellipse rx="18.396" fill="url(#svg1.SVGID_3_)" ry="3.926" cx="19.625" cy="31.425"/>
<linearGradient gradientTransform="matrix(1 0 0 1 -370.2002 -614.5742)" x1="370.2002" x2="409.4502" gradientUnits="userSpaceOnUse" y1="641.0938" y2="641.0938" id="svg1.SVGID_4_">
	<stop offset="0" style="stop-color:#4D4D4D"/>
	<stop offset="0.0558" style="stop-color:#5F5F5F"/>
	<stop offset="0.2103" style="stop-color:#8D8D8D"/>
	<stop offset="0.3479" style="stop-color:#AEAEAE"/>
	<stop offset="0.4623" style="stop-color:#C2C2C2"/>
	<stop offset="0.5394" style="stop-color:#C9C9C9"/>
	<stop offset="0.6247" style="stop-color:#C5C5C5"/>
	<stop offset="0.7072" style="stop-color:#BABABA"/>
	<stop offset="0.7885" style="stop-color:#A6A6A6"/>
	<stop offset="0.869" style="stop-color:#8B8B8B"/>
	<stop offset="0.9484" style="stop-color:#686868"/>
	<stop offset="1" style="stop-color:#4D4D4D"/>
</linearGradient>
<path fill="url(#svg1.SVGID_4_)" d="M19.625,23.613C8.787,23.613,0,21.738,0,19.425v10c0,2.313,8.787,4.188,19.625,4.188  c10.839,0,19.625-1.875,19.625-4.188v-10C39.25,21.738,30.464,23.613,19.625,23.613z"/>
<linearGradient gradientTransform="matrix(1 0 0 1 -370.2002 -614.5742)" x1="370.2002" x2="409.4502" gradientUnits="userSpaceOnUse" y1="635.0938" y2="635.0938" id="svg1.SVGID_5_">
	<stop offset="0" style="stop-color:#B3B3B3"/>
	<stop offset="0.0171" style="stop-color:#B6B6B6"/>
	<stop offset="0.235" style="stop-color:#D7D7D7"/>
	<stop offset="0.4168" style="stop-color:#EBEBEB"/>
	<stop offset="0.5394" style="stop-color:#F2F2F2"/>
	<stop offset="0.6579" style="stop-color:#EEEEEE"/>
	<stop offset="0.7724" style="stop-color:#E3E3E3"/>
	<stop offset="0.8853" style="stop-color:#CFCFCF"/>
	<stop offset="0.9965" style="stop-color:#B4B4B4"/>
	<stop offset="1" style="stop-color:#B3B3B3"/>
</linearGradient>
<path fill="url(#svg1.SVGID_5_)" d="M19.625,23.613c10.839,0,19.625-1.875,19.625-4.188l-1.229-2c0,2.168-8.235,3.926-18.396,3.926  c-9.481,0-17.396-1.959-18.396-3.926l-1.229,2C0,21.738,8.787,23.613,19.625,23.613z"/>
<linearGradient gradientTransform="matrix(1 0 0 1 -370.2002 -614.5742)" x1="371.4297" x2="408.2217" gradientUnits="userSpaceOnUse" y1="632" y2="632" id="svg1.SVGID_6_">
	<stop offset="0" style="stop-color:#C9C9C9"/>
	<stop offset="1" style="stop-color:#808080"/>
</linearGradient>
<ellipse rx="18.396" fill="url(#svg1.SVGID_6_)" ry="3.926" cx="19.625" cy="17.426"/>
<linearGradient gradientTransform="matrix(1 0 0 1 -370.2002 -614.5742)" x1="370.2002" x2="409.4502" gradientUnits="userSpaceOnUse" y1="627.5938" y2="627.5938" id="svg1.SVGID_7_">
	<stop offset="0" style="stop-color:#4D4D4D"/>
	<stop offset="0.0558" style="stop-color:#5F5F5F"/>
	<stop offset="0.2103" style="stop-color:#8D8D8D"/>
	<stop offset="0.3479" style="stop-color:#AEAEAE"/>
	<stop offset="0.4623" style="stop-color:#C2C2C2"/>
	<stop offset="0.5394" style="stop-color:#C9C9C9"/>
	<stop offset="0.6247" style="stop-color:#C5C5C5"/>
	<stop offset="0.7072" style="stop-color:#BABABA"/>
	<stop offset="0.7885" style="stop-color:#A6A6A6"/>
	<stop offset="0.869" style="stop-color:#8B8B8B"/>
	<stop offset="0.9484" style="stop-color:#686868"/>
	<stop offset="1" style="stop-color:#4D4D4D"/>
</linearGradient>
<path fill="url(#svg1.SVGID_7_)" d="M19.625,10.113C8.787,10.113,0,8.238,0,5.925v10c0,2.313,8.787,4.188,19.625,4.188  c10.839,0,19.625-1.875,19.625-4.188v-10C39.25,8.238,30.464,10.113,19.625,10.113z"/>
<linearGradient gradientTransform="matrix(1 0 0 1 -370.2002 -614.5742)" x1="370.2002" x2="409.4502" gradientUnits="userSpaceOnUse" y1="621.5938" y2="621.5938" id="svg1.SVGID_8_">
	<stop offset="0" style="stop-color:#B3B3B3"/>
	<stop offset="0.0171" style="stop-color:#B6B6B6"/>
	<stop offset="0.235" style="stop-color:#D7D7D7"/>
	<stop offset="0.4168" style="stop-color:#EBEBEB"/>
	<stop offset="0.5394" style="stop-color:#F2F2F2"/>
	<stop offset="0.6579" style="stop-color:#EEEEEE"/>
	<stop offset="0.7724" style="stop-color:#E3E3E3"/>
	<stop offset="0.8853" style="stop-color:#CFCFCF"/>
	<stop offset="0.9965" style="stop-color:#B4B4B4"/>
	<stop offset="1" style="stop-color:#B3B3B3"/>
</linearGradient>
<path fill="url(#svg1.SVGID_8_)" d="M19.625,10.113c10.839,0,19.625-1.875,19.625-4.188l-1.229-2c0,2.168-8.235,3.926-18.396,3.926  c-9.481,0-17.396-1.959-18.396-3.926L0,5.925C0,8.238,8.787,10.113,19.625,10.113z"/>
<linearGradient gradientTransform="matrix(1 0 0 1 -370.2002 -614.5742)" x1="371.4297" x2="408.2217" gradientUnits="userSpaceOnUse" y1="618.5" y2="618.5" id="svg1.SVGID_9_">
	<stop offset="0" style="stop-color:#C9C9C9"/>
	<stop offset="1" style="stop-color:#808080"/>
</linearGradient>
<ellipse rx="18.396" fill="url(#svg1.SVGID_9_)" ry="3.926" cx="19.625" cy="3.926"/>
<path fill="#FFFFFF" d="M31.291,46.792c0,0-4.313,0.578-7.249,0.694  C20.917,47.613,15,47.613,15,47.613l-2.443-10.279l-0.119-2.283l-1.231-1.842L9.789,23.024l-0.082-0.119L9.3,20.715l-1.45-1.44  L5.329,8.793c0,0,5.296,0.882,7.234,1.07s8.375,0.25,8.375,0.25l3,9.875l-0.25,1.313l1.063,2.168l2.312,9.644l-0.375,1.875  l1.627,2.193L31.291,46.792z" enable-background="new    " opacity="0.24"/>
</svg>
      </g>
    </g>
    <g text-rendering="geometricPrecision" stroke-miterlimit="1.45" shape-rendering="geometricPrecision" font-family="sans-serif" transform="matrix(1,0,0,1,-63,-180)" stroke-linecap="butt">
      <text x="292.2432" xml:space="preserve" y="375.5529" clip-path="url(#clipPath2)" stroke="none">Publication database</text>
      <path fill="none" d="M162.9727 229.4932 L191.1568 222.4471" clip-path="url(#clipPath2)"/>
      <path d="M198.918 220.5068 L186.0636 218.5666 L190.1867 222.6897 L188.4889 228.268 Z" clip-path="url(#clipPath2)" stroke="none"/>
      <path fill="none" d="M162.9727 240 L190.918 240" clip-path="url(#clipPath2)"/>
      <path d="M198.918 240 L186.918 235 L189.918 240 L186.918 245 Z" clip-path="url(#clipPath2)" stroke="none"/>
      <path fill="none" d="M162.9727 250.5068 L191.1568 257.5529" clip-path="url(#clipPath2)"/>
      <path d="M198.918 259.4932 L188.4889 251.732 L190.1867 257.3104 L186.0636 261.4335 Z" clip-path="url(#clipPath2)" stroke="none"/>
      <path fill="none" d="M162.9727 333.4932 L191.1568 326.4471" clip-path="url(#clipPath2)"/>
      <path d="M198.918 324.5068 L186.0636 322.5665 L190.1867 326.6896 L188.4889 332.268 Z" clip-path="url(#clipPath2)" stroke="none"/>
      <path fill="none" d="M162.9727 344 L190.918 344" clip-path="url(#clipPath2)"/>
      <path d="M198.918 344 L186.918 339 L189.918 344 L186.918 349 Z" clip-path="url(#clipPath2)" stroke="none"/>
      <path fill="none" d="M162.9727 354.5068 L191.1568 361.5529" clip-path="url(#clipPath2)"/>
      <path d="M198.918 363.4932 L188.4889 355.732 L190.1867 361.3104 L186.0636 365.4335 Z" clip-path="url(#clipPath2)" stroke="none"/>
      <path fill="none" d="M541.082 228.9455 L518.8188 223.0896" clip-path="url(#clipPath2)"/>
      <path d="M511.082 221.0545 L521.4153 228.9426 L519.7859 223.3439 L523.9592 219.2716 Z" clip-path="url(#clipPath2)" stroke="none"/>
      <path fill="none" d="M541.082 240 L519.082 240" clip-path="url(#clipPath2)"/>
      <path d="M511.082 240 L523.082 245 L520.082 240 L523.082 235 Z" clip-path="url(#clipPath2)" stroke="none"/>
      <path fill="none" d="M541.082 251.0545 L518.8188 256.9104" clip-path="url(#clipPath2)"/>
      <path d="M511.082 258.9455 L523.9592 260.7284 L519.7859 256.656 L521.4153 251.0574 Z" clip-path="url(#clipPath2)" stroke="none"/>
      <path fill="none" d="M541.082 332.9455 L518.8188 327.0896" clip-path="url(#clipPath2)"/>
      <path d="M511.082 325.0545 L521.4153 332.9426 L519.7859 327.344 L523.9592 323.2716 Z" clip-path="url(#clipPath2)" stroke="none"/>
      <path fill="none" d="M541.082 344 L519.082 344" clip-path="url(#clipPath2)"/>
      <path d="M511.082 344 L523.082 349 L520.082 344 L523.082 339 Z" clip-path="url(#clipPath2)" stroke="none"/>
      <path fill="none" d="M541.082 355.0545 L518.8188 360.9104" clip-path="url(#clipPath2)"/>
      <path d="M511.082 362.9455 L523.9592 364.7284 L519.7859 360.656 L521.4153 355.0574 Z" clip-path="url(#clipPath2)" stroke="none"/>
      <path fill="none" d="M266.3688 359 L305.5037 335.9102" clip-path="url(#clipPath2)"/>
      <path d="M312.3938 331.845 L299.5179 333.6365 L304.6424 336.4183 L304.5994 342.2491 Z" clip-path="url(#clipPath2)" stroke="none"/>
      <path fill="none" d="M282.9727 330.2581 L304.8058 323.1193" clip-path="url(#clipPath2)"/>
      <path d="M312.4096 320.6331 L299.4499 319.61 L303.8553 323.4301 L302.5577 329.1148 Z" clip-path="url(#clipPath2)" stroke="none"/>
      <path fill="none" d="M282.9727 311.3127 L304.4259 309.9409" clip-path="url(#clipPath2)"/>
      <path d="M312.4096 309.4304 L300.115 305.2064 L303.4279 310.0047 L300.7531 315.186 Z" clip-path="url(#clipPath2)" stroke="none"/>
      <path fill="none" d="M282.9727 283.526 L304.7943 290.549" clip-path="url(#clipPath2)"/>
      <path d="M312.4096 292.9999 L302.5184 284.564 L303.8424 290.2426 L299.4548 294.0831 Z" clip-path="url(#clipPath2)" stroke="none"/>
      <path fill="none" d="M266.5921 255 L305.4661 277.7362" clip-path="url(#clipPath2)"/>
      <path d="M312.3717 281.7751 L304.5376 271.4008 L304.6029 277.2314 L299.489 280.0328 Z" clip-path="url(#clipPath2)" stroke="none"/>
      <path fill="none" d="M258.636 225 L306.2919 265.4075" clip-path="url(#clipPath2)"/>
      <path d="M312.3938 270.5812 L306.4746 259.007 L305.5292 264.7608 L300.0074 266.6343 Z" clip-path="url(#clipPath2)" stroke="none"/>
      <path fill="none" d="M355 225 L355 246.9619" clip-path="url(#clipPath2)"/>
      <path d="M355 254.9619 L360 242.9619 L355 245.9619 L350 242.9619 Z" clip-path="url(#clipPath2)" stroke="none"/>
      <path fill="none" d="M443.6312 359 L404.4963 335.9102" clip-path="url(#clipPath2)"/>
      <path d="M397.6062 331.845 L405.4006 342.2491 L405.3576 336.4183 L410.4821 333.6365 Z" clip-path="url(#clipPath2)" stroke="none"/>
      <path fill="none" d="M427.0273 330.2581 L405.1942 323.1193" clip-path="url(#clipPath2)"/>
      <path d="M397.5904 320.6331 L407.4423 329.1148 L406.1447 323.4301 L410.5501 319.61 Z" clip-path="url(#clipPath2)" stroke="none"/>
      <path fill="none" d="M427.0273 311.3127 L405.5741 309.9409" clip-path="url(#clipPath2)"/>
      <path d="M397.5904 309.4304 L409.2469 315.186 L406.5721 310.0047 L409.885 305.2064 Z" clip-path="url(#clipPath2)" stroke="none"/>
      <path fill="none" d="M427.0273 283.526 L405.2057 290.549" clip-path="url(#clipPath2)"/>
      <path d="M397.5904 292.9999 L410.5452 294.0831 L406.1576 290.2426 L407.4816 284.564 Z" clip-path="url(#clipPath2)" stroke="none"/>
      <path fill="none" d="M443.4079 255 L404.5339 277.7362" clip-path="url(#clipPath2)"/>
      <path d="M397.6283 281.7751 L410.511 280.0328 L405.3971 277.2314 L405.4624 271.4008 Z" clip-path="url(#clipPath2)" stroke="none"/>
      <path fill="none" d="M451.364 225 L403.7081 265.4075" clip-path="url(#clipPath2)"/>
      <path d="M397.6062 270.5812 L409.9926 266.6343 L404.4708 264.7608 L403.5254 259.007 Z" clip-path="url(#clipPath2)" stroke="none"/>
    </g>
  </g>
</svg>
